<?xml version="1.0" encoding="UTF-8"?>
<svg id="Layer_2" xmlns="http://www.w3.org/2000/svg" xmlns:xlink="http://www.w3.org/1999/xlink" viewBox="0 0 417 165">
  <defs>
    <filter id="drop-shadow-1" filterUnits="userSpaceOnUse">
      <feOffset dx="7" dy="7"/>
      <feGaussianBlur result="blur" stdDeviation="6"/>
      <feFlood flood-color="#000" flood-opacity=".25"/>
      <feComposite in2="blur" operator="in"/>
      <feComposite in="SourceGraphic"/>
    </filter>
    <linearGradient id="linear-gradient" x1="14.65" y1="73.19" x2="77.22" y2="73.19" gradientUnits="userSpaceOnUse">
      <stop offset="0" stop-color="#fff"/>
      <stop offset="1" stop-color="#fff" stop-opacity="0"/>
    </linearGradient>
    <linearGradient id="linear-gradient-2" x1="84.33" x2="146.9" xlink:href="#linear-gradient"/>
    <linearGradient id="linear-gradient-3" x1="223.7" x2="286.27" xlink:href="#linear-gradient"/>
    <linearGradient id="linear-gradient-4" x1="293.3" x2="355.87" xlink:href="#linear-gradient"/>
    <linearGradient id="linear-gradient-5" x1="154.02" y1="73.19" x2="216.59" y2="73.19" xlink:href="#linear-gradient"/>
  </defs>
  <g id="Layer_1-2" data-name="Layer_1">
    <g>
      <path d="M381.65,21.17c-4.24-5.75-11.06-9.49-18.73-9.49h-76.59c-12.83,0-23.26,10.43-23.26,23.26v4.01h-16.64v-11.91c0-.29-.03-.58-.09-.88,0-.18-.03-.38-.06-.6v-.17l-.08-.34c-.04-.16-.06-.27-.08-.38-.03-.17-.07-.34-.13-.53v-.4l-1.34-2.12v-.37l-.79-.85c-.3-.32-.56-.57-.83-.77-.18-.14-.36-.26-.54-.38-.05-.04-.11-.07-.17-.12-.19-.14-.38-.28-.58-.4-.25-.15-.51-.29-.77-.4-.11-.06-.22-.11-.33-.16l-.96-1.51v-.37l-.79-.85c-.3-.32-.56-.57-.83-.77-.18-.14-.36-.26-.54-.38-.05-.04-.11-.07-.17-.12-.19-.14-.38-.28-.58-.4-.25-.15-.51-.29-.77-.4-.38-.22-.78-.38-1.2-.47-.28-.11-.57-.19-.85-.24-.06-.01-.13-.02-.2-.04-.3-.07-.61-.11-.91-.12-.03,0-.37-.06-.37-.06h-13.7c-.29,0-.59.03-.86.08-.09.02-.21.04-.36.07h-.13l-2.02.56-1.68,1.06h-.46l-.87.87c-.34.34-.57.6-.75.83l-.22.28-.66-.65c-.16-.16-.34-.33-.54-.49-.02-.02-.07-.06-.15-.14-.21-.21-.43-.41-.66-.58-.24-.19-.5-.36-.76-.5-.06-.03-.12-.07-.19-.12-.29-.18-.59-.34-.9-.46l-.39-.15c-.25-.1-.5-.17-.76-.24.01,0,.03,0,.03,0-.45-.17-.91-.26-1.38-.27-.08-.02-.18-.04-.31-.07l-.33-.08h-19.4v-.02h-12.55v14.8h-2.31v-9.84h-4.96v-4.96h-40.81v1.79c-.33-.26-.68-.47-1.05-.63-.31-.2-.65-.36-1.01-.49-.08-.03-.15-.06-.24-.09-.3-.13-.61-.22-.94-.29l-.39-.08c-.14-.03-.93-.19-.93-.19h-23.59v1.75s-.02-.01-.03-.02c-.19-.14-.38-.28-.58-.4-.25-.15-.51-.29-.77-.4-.38-.22-.78-.38-1.2-.47-.28-.11-.56-.19-.85-.24-.06-.01-.13-.02-.2-.04-.3-.07-.61-.11-.92-.12-.03,0-.37-.06-.37-.06h-13.7c-.29,0-.59.03-.86.08-.09.02-.21.04-.36.07h-.13l-2.02.56-1.68,1.06h-.46l-.87.87c-.34.34-.57.59-.75.83l-.22.28-.66-.65c-.16-.16-.34-.33-.54-.49-.02-.02-.07-.06-.15-.14-.21-.21-.43-.4-.66-.58-.24-.19-.49-.36-.76-.5-.06-.03-.12-.07-.19-.12-.28-.18-.59-.34-.9-.46l-.38-.15c-.25-.1-.5-.18-.76-.24.01,0,.03,0,.03,0-.45-.17-.91-.26-1.38-.27-.08-.02-.18-.04-.31-.07l-.34-.08H20.65l-.42.12c-.07.02-.13.04-.2.05-.04.01-.1.02-.16.03h-.16l-.34.08c-.15.04-.27.06-.35.08-.18.03-.37.08-.57.14h-.46l-2.12,1.4h-.42l-.87.87c-.27.27-.47.49-.63.68-.11.14-.23.28-.35.44-.17.22-.33.45-.46.67-.06.11-.13.22-.2.33-.16.26-.29.52-.4.78-.06.14-.12.28-.17.43-.04.11-.08.21-.12.31-.13.32-.23.66-.29,1.02,0,.06-.02.11-.03.16-.04.19-.08.38-.11.56-.02.12-.14.77-.14.77v8.86c0,.28.02.57.07.86.01.08.03.19.05.31v.17l.08.33c.04.15.06.27.08.36.03.18.08.37.14.57v.43l1.4,2.2v.42l.87.87c.27.27.49.47.68.63.14.11.28.23.44.35.2.16.39.29.57.4.17.11.36.22.54.33.07.04.13.07.2.12.21.14.44.25.66.35h-.51c-2.91,0-5.28,2.37-5.28,5.28v57.95c0,2.81,2.21,5.1,4.98,5.26.16,2.77,2.45,4.98,5.26,4.98h57.95c2.88,0,5.22-2.32,5.27-5.18.38.11.79.18,1.2.21.16,2.77,2.45,4.98,5.26,4.98h57.95c2.88,0,5.22-2.32,5.27-5.18.38.11.79.18,1.2.21.16,2.77,2.45,4.98,5.25,4.98h57.95c2.88,0,5.22-2.32,5.27-5.18.38.11.79.18,1.2.2.16,2.77,2.45,4.98,5.26,4.98h32.12c.27,7.32,3.94,13.78,9.47,17.85,4.24,5.75,11.06,9.49,18.73,9.49h76.59c12.83,0,23.26-10.44,23.26-23.26V39.9c0-7.68-3.74-14.49-9.49-18.73ZM134.3,29.91v9.04h-.87v-9.04h.87ZM126.17,83.74h-16.13v-34.56c0-2.73-2.09-4.98-4.75-5.25v-1.01c.31.23.64.42.98.57,0,0,0,0,0,0,.31.19.63.35.94.47.11.04.22.08.35.13.3.12.6.21.89.27l.8.17c.2.04.45.09.8.14l.22.03h15.91v39.03ZM57.35,36.47h2.33v2.48h-2.33v-2.48ZM198.48,36.47h2.33v2.48h-2.33v-2.48ZM152.71,31.17c0,.17.03.35.06.55v.43l.59,1.69,1.05,1.68v.44l.87.87c.26.26.47.45.66.6l.62.49c.19.15.39.28.6.42.21.12.42.23.61.32.2.12.4.21.6.3h-2.05c-1.95,0-3.66,1.07-4.57,2.66v-11.69h.89v.49c0,.26.02.52.07.77ZM74.91,83.74h-34.56v-16.13h39.52c.52,0,1.02-.08,1.5-.22v21.53c-.38-.11-.78-.18-1.2-.2-.16-2.77-2.45-4.98-5.26-4.98ZM219.53,43.92c0-.07,0-.14-.02-.21.11.05.2.11.32.16.12.05.23.09.34.13-.21-.04-.42-.06-.64-.07Z" style="filter: url(#drop-shadow-1);"/>
      <g>
        <rect x="266.03" y="14.64" width="113.02" height="113.02" rx="15.22" ry="15.22" style="fill: #fbb03b;"/>
        <g>
          <path d="M353.56,38.94h-57.95c-2.91,0-5.28,2.37-5.28,5.28v35.55c0,1.99,1.11,3.72,2.73,4.62-1.63.9-2.73,2.63-2.73,4.62v13.15c0,2.91,2.37,5.28,5.28,5.28h57.95c2.91,0,5.27-2.37,5.27-5.28v-35.55c0-1.99-1.11-3.72-2.73-4.62,1.63-.9,2.73-2.63,2.73-4.62v-13.15c0-2.91-2.37-5.28-5.27-5.28Z" style="fill: #151c18;"/>
          <path d="M362.92,11.67h-76.59c-12.83,0-23.26,10.44-23.26,23.26v4.01h-21.6v-16.87c0-.29-.03-.58-.09-.88,0-.18-.03-.38-.06-.6v-.17l-.08-.34c-.04-.16-.06-.27-.08-.38-.03-.17-.07-.34-.13-.53v-.4l-1.34-2.12v-.37l-.79-.85c-.3-.32-.56-.57-.83-.77-.18-.14-.36-.26-.54-.38-.05-.04-.11-.07-.17-.12-.19-.14-.38-.28-.58-.4-.25-.15-.51-.29-.77-.4-.38-.22-.78-.38-1.2-.47-.28-.11-.57-.19-.85-.24-.06-.01-.13-.02-.2-.04-.3-.07-.61-.11-.91-.12-.03,0-.37-.06-.37-.06h-13.7c-.29,0-.59.03-.86.08-.09.02-.21.04-.36.07h-.13l-2.02.56-1.68,1.06h-.46l-.87.87c-.34.34-.57.6-.75.83l-.22.28-.66-.65c-.16-.16-.34-.33-.54-.49-.02-.02-.07-.06-.15-.14-.21-.21-.43-.41-.66-.58-.24-.19-.5-.36-.76-.5-.06-.03-.12-.07-.19-.12-.28-.18-.59-.34-.9-.46l-.39-.15c-.25-.1-.5-.17-.76-.24.01,0,.03,0,.03,0-.45-.17-.91-.26-1.38-.27-.08-.02-.18-.04-.31-.07l-.33-.08h-19.4v-.02h-12.55v14.8h-7.27v-14.8h-40.81v1.79c-.33-.26-.68-.47-1.05-.63-.31-.2-.65-.36-1.01-.49-.08-.03-.15-.06-.24-.09-.3-.13-.61-.22-.94-.29l-.39-.08c-.14-.03-.93-.19-.93-.19h-23.59v1.75s-.02-.01-.03-.02c-.19-.14-.38-.28-.58-.4-.25-.15-.51-.29-.77-.4-.38-.22-.78-.38-1.2-.47-.28-.11-.56-.19-.85-.24-.06-.01-.13-.02-.2-.04-.3-.07-.61-.11-.92-.12-.03,0-.37-.06-.37-.06h-13.7c-.29,0-.59.03-.86.08-.09.02-.21.04-.36.07h-.13l-2.02.56-1.68,1.06h-.46l-.87.87c-.34.34-.57.59-.75.83l-.22.28-.66-.65c-.16-.16-.34-.33-.54-.49-.02-.02-.07-.06-.15-.14-.21-.21-.43-.4-.66-.58-.24-.19-.49-.36-.76-.5-.06-.03-.12-.07-.19-.12-.28-.18-.59-.34-.9-.46l-.38-.15c-.25-.1-.5-.18-.76-.24.01,0,.03,0,.03,0-.45-.17-.91-.26-1.38-.27-.08-.02-.18-.04-.31-.07l-.34-.08H20.65l-.42.12c-.07.02-.13.04-.2.05-.04,0-.1.02-.16.03h-.16l-.34.08c-.15.04-.27.06-.35.08-.18.03-.37.08-.57.14h-.46l-2.12,1.4h-.42l-.87.87c-.27.27-.47.49-.63.68-.11.14-.23.28-.35.44-.17.22-.33.45-.46.67-.06.11-.13.22-.2.33-.16.26-.29.52-.4.78-.06.14-.12.28-.17.43-.04.11-.08.21-.12.31-.13.32-.23.66-.29,1.02,0,.06-.02.11-.03.16-.04.19-.08.38-.11.56-.02.12-.14.77-.14.77v8.86c0,.28.02.57.07.86.01.08.03.19.05.31v.17l.08.33c.04.15.06.27.08.36.03.18.08.37.14.57v.43l1.4,2.2v.42l.87.87c.27.27.49.47.68.63.14.11.28.23.44.35.2.16.39.29.57.4.17.11.36.22.54.33.07.04.13.07.2.12.21.14.44.25.66.35h-.51c-2.91,0-5.28,2.37-5.28,5.28v57.95c0,2.91,2.37,5.28,5.28,5.28h57.95c2.91,0,5.28-2.37,5.28-5.28v-13.15c0-2.91-2.37-5.28-5.28-5.28h-39.52v-21.09h39.52c2.91,0,5.28-2.37,5.28-5.28v-13.15c0-1.89-1-3.54-2.5-4.48h6.18c-1.5.93-2.5,2.59-2.5,4.48v57.95c0,2.91,2.37,5.28,5.28,5.28h57.95c2.91,0,5.28-2.37,5.28-5.28v-57.95c0-2.12-1.26-3.95-3.08-4.79v-14.48h5.85v5.45c0,.26.02.52.07.77,0,.17.03.35.06.55v.43l.59,1.69,1.05,1.68v.44l.87.87c.26.26.47.45.66.6l.62.49c.19.15.39.28.6.42.21.12.42.23.61.32.2.12.4.21.6.3h-2.05c-2.91,0-5.27,2.37-5.27,5.28v57.95c0,2.91,2.36,5.28,5.27,5.28h57.95c2.91,0,5.28-2.37,5.28-5.28v-26.56c0-.87-.21-1.69-.57-2.42.37-.73.57-1.55.57-2.42v-26.56c0-2.07-1.2-3.86-2.94-4.72.34.11.69.17,1.05.18.04,0,.38.06.38.06h5.19c-1.5.93-2.5,2.59-2.5,4.48v57.95c0,2.91,2.37,5.28,5.28,5.28h37.06v4.08c0,12.83,10.44,23.26,23.26,23.26h76.59c12.83,0,23.26-10.44,23.26-23.26V34.94c0-12.83-10.44-23.26-23.26-23.26ZM72.58,38.28c.13.08.27.17.41.25.23.14.47.26.73.37.04.01.07.03.1.04h-1.63v-.91c.13.09.25.18.37.26ZM59.68,31.51v7.44h-7.3v-7.44h7.3ZM24.14,24.88h15.72v2.27h-15.72v-2.27ZM126.17,44.22v39.52h-21.09v-39.52c0-2.73-2.09-4.98-4.75-5.25v-1.01c.31.23.64.42.98.57,0,0,0,0,0,0,.31.19.63.35.94.47.11.04.22.08.35.13.3.12.6.21.89.27l.8.17c.2.04.45.09.8.14l.22.03h23.18v-14.8h5.83v14h-2.86c-2.91,0-5.28,2.37-5.28,5.28ZM200.82,31.51v7.44h-7.3v-7.44h7.3ZM214.28,38.94h-.93v-.91c.13.09.25.18.37.25.13.08.27.17.42.25.23.14.47.26.73.37.12.05.23.09.34.13-.3-.05-.61-.09-.93-.09ZM374.08,111.53c0,6.16-5.01,11.17-11.17,11.17h-76.59c-6.16,0-11.17-5.01-11.17-11.17v-4.08h8.8c2.91,0,5.28-2.37,5.28-5.28v-13.15c0-1.99-1.11-3.72-2.73-4.62,1.63-.9,2.73-2.63,2.73-4.62v-13.15c0-1.99-1.11-3.72-2.73-4.62,1.63-.9,2.73-2.63,2.73-4.62v-13.15c0-2.91-2.37-5.28-5.28-5.28h-8.8v-4.01c0-6.16,5.01-11.17,11.17-11.17h76.59c6.16,0,11.17,5.01,11.17,11.17v76.59Z" style="fill: #151c18;"/>
        </g>
        <g>
          <path d="M358.52,43.91h-57.95c-2.91,0-5.28,2.37-5.28,5.28v35.55c0,1.99,1.11,3.72,2.73,4.62-1.63.9-2.73,2.63-2.73,4.62v13.15c0,2.91,2.37,5.28,5.28,5.28h57.95c2.91,0,5.27-2.37,5.27-5.28v-35.55c0-1.99-1.11-3.72-2.73-4.62,1.63-.9,2.73-2.63,2.73-4.62v-13.15c0-2.91-2.37-5.28-5.27-5.28Z" style="fill: #151c18;"/>
          <path d="M367.88,16.64h-76.59c-12.83,0-23.26,10.44-23.26,23.26v4.01h-21.6v-16.87c0-.29-.03-.58-.09-.88,0-.18-.03-.38-.06-.6v-.17l-.08-.34c-.04-.16-.06-.27-.08-.38-.03-.17-.07-.34-.13-.53v-.4l-1.34-2.12v-.37l-.79-.85c-.3-.32-.56-.57-.83-.77-.18-.14-.36-.26-.54-.38-.05-.04-.11-.07-.17-.12-.19-.14-.38-.28-.58-.4-.25-.15-.51-.29-.77-.4-.38-.22-.78-.38-1.2-.47-.28-.11-.57-.19-.85-.24-.06-.01-.13-.02-.2-.04-.3-.07-.61-.11-.91-.12-.03,0-.37-.06-.37-.06h-13.7c-.29,0-.59.03-.86.08-.09.02-.21.04-.36.07h-.13l-2.02.56-1.68,1.06h-.46l-.87.87c-.34.34-.57.6-.75.83l-.22.28-.66-.65c-.16-.16-.34-.33-.54-.49-.02-.02-.07-.06-.15-.14-.21-.21-.43-.41-.66-.58-.24-.19-.5-.36-.76-.5-.06-.03-.12-.07-.19-.12-.28-.18-.59-.34-.9-.46l-.39-.15c-.25-.1-.5-.17-.76-.24.01,0,.03,0,.03,0-.45-.17-.91-.26-1.38-.27-.08-.02-.18-.04-.31-.07l-.33-.08h-19.4v-.02h-12.55v14.8h-7.27v-14.8h-40.81v1.79c-.33-.26-.68-.47-1.05-.63-.31-.2-.65-.36-1.01-.49-.08-.03-.15-.06-.24-.09-.3-.13-.61-.22-.94-.29l-.39-.08c-.14-.03-.93-.19-.93-.19h-23.59v1.75s-.02-.01-.03-.02c-.19-.14-.38-.28-.58-.4-.25-.15-.51-.29-.77-.4-.38-.22-.78-.38-1.2-.47-.28-.11-.56-.19-.85-.24-.06-.01-.13-.02-.2-.04-.3-.07-.61-.11-.92-.12-.03,0-.37-.06-.37-.06h-13.7c-.29,0-.59.03-.86.08-.09.02-.21.04-.36.07h-.13l-2.02.56-1.68,1.06h-.46l-.87.87c-.34.34-.57.59-.75.83l-.22.28-.66-.65c-.16-.16-.34-.33-.54-.49-.02-.02-.07-.06-.15-.14-.21-.21-.43-.4-.66-.58-.24-.19-.49-.36-.76-.5-.06-.03-.12-.07-.19-.12-.28-.18-.59-.34-.9-.46l-.38-.15c-.25-.1-.5-.18-.76-.24.01,0,.03,0,.03,0-.45-.17-.91-.26-1.38-.27-.08-.02-.18-.04-.31-.07l-.34-.08H25.61l-.42.12c-.07.02-.13.04-.2.05-.04,0-.1.02-.16.03h-.16l-.34.08c-.15.04-.27.06-.35.08-.18.03-.37.08-.57.14h-.46l-2.12,1.4h-.42l-.87.87c-.27.27-.47.49-.63.68-.11.14-.23.28-.35.44-.17.22-.33.45-.46.67-.06.11-.13.22-.2.33-.16.26-.29.52-.4.78-.06.14-.12.28-.17.43-.04.11-.08.21-.12.31-.13.32-.23.66-.29,1.02,0,.06-.02.11-.03.16-.04.19-.08.38-.11.56-.02.12-.14.77-.14.77v8.86c0,.28.02.57.07.86.01.08.03.19.05.31v.17l.08.33c.04.15.06.27.08.36.03.18.08.37.14.57v.43l1.4,2.2v.42l.87.87c.27.27.49.47.68.63.14.11.28.23.44.35.2.16.39.29.57.4.17.11.36.22.54.33.07.04.13.07.2.12.21.14.44.25.66.35h-.51c-2.91,0-5.28,2.37-5.28,5.28v57.95c0,2.91,2.37,5.28,5.28,5.28h57.95c2.91,0,5.28-2.37,5.28-5.28v-13.15c0-2.91-2.37-5.28-5.28-5.28h-39.52v-21.09h39.52c2.91,0,5.28-2.37,5.28-5.28v-13.15c0-1.89-1-3.54-2.5-4.48h6.18c-1.5.93-2.5,2.59-2.5,4.48v57.95c0,2.91,2.37,5.28,5.28,5.28h57.95c2.91,0,5.28-2.37,5.28-5.28v-57.95c0-2.12-1.26-3.95-3.08-4.79v-14.48h5.85v5.45c0,.26.02.52.07.77,0,.17.03.35.06.55v.43l.59,1.69,1.05,1.68v.44l.87.87c.26.26.47.45.66.6l.62.49c.19.15.39.28.6.42.21.12.42.23.61.32.2.12.4.21.6.3h-2.05c-2.91,0-5.27,2.37-5.27,5.28v57.95c0,2.91,2.36,5.28,5.27,5.28h57.95c2.91,0,5.28-2.37,5.28-5.28v-26.56c0-.87-.21-1.69-.57-2.42.37-.73.57-1.55.57-2.42v-26.56c0-2.07-1.2-3.86-2.94-4.72.34.11.69.17,1.05.18.04,0,.38.06.38.06h5.19c-1.5.93-2.5,2.59-2.5,4.48v57.95c0,2.91,2.37,5.28,5.28,5.28h37.06v4.08c0,12.83,10.44,23.26,23.26,23.26h76.59c12.83,0,23.26-10.44,23.26-23.26V39.9c0-12.83-10.44-23.26-23.26-23.26ZM77.55,43.25c.13.08.27.17.41.25.23.14.47.26.73.37.04.01.07.03.1.04h-1.63v-.91c.13.09.25.18.37.26ZM64.64,36.47v7.44h-7.3v-7.44h7.3ZM29.1,29.85h15.72v2.27h-15.72v-2.27ZM131.13,49.18v39.52h-21.09v-39.52c0-2.73-2.09-4.98-4.75-5.25v-1.01c.31.23.64.42.98.57,0,0,0,0,0,0,.31.19.63.35.94.47.11.04.22.08.35.13.3.12.6.21.89.27l.8.17c.2.04.45.09.8.14l.22.03h23.18v-14.8h5.83v14h-2.86c-2.91,0-5.28,2.37-5.28,5.28ZM205.78,36.47v7.44h-7.3v-7.44h7.3ZM219.24,43.91h-.93v-.91c.13.09.25.18.37.25.13.08.27.17.42.25.23.14.47.26.73.37.12.05.23.09.34.13-.3-.05-.61-.09-.93-.09ZM379.05,116.49c0,6.16-5.01,11.17-11.17,11.17h-76.59c-6.16,0-11.17-5.01-11.17-11.17v-4.08h8.8c2.91,0,5.28-2.37,5.28-5.28v-13.15c0-1.99-1.11-3.72-2.73-4.62,1.63-.9,2.73-2.63,2.73-4.62v-13.15c0-1.99-1.11-3.72-2.73-4.62,1.63-.9,2.73-2.63,2.73-4.62v-13.15c0-2.91-2.37-5.28-5.28-5.28h-8.8v-4.01c0-6.16,5.01-11.17,11.17-11.17h76.59c6.16,0,11.17,5.01,11.17,11.17v76.59Z" style="fill: #151c18;"/>
        </g>
        <path d="M20.44,36.78c-.25-.08-.44-.14-.56-.17-.12-.03-.28-.06-.47-.1h-.08c-.24-.1-.42-.17-.54-.22s-.25-.11-.37-.19c-.12-.08-.24-.15-.37-.22s-.25-.14-.37-.22c-.12-.08-.24-.16-.37-.26-.13-.1-.25-.2-.37-.29s-.28-.24-.47-.44v-.06l-1.4-2.2v-.08c-.1-.24-.16-.42-.18-.55-.02-.13-.06-.31-.11-.54v-.08c-.04-.24-.07-.42-.09-.55s-.03-.25-.03-.37v-8.6c.04-.24.07-.42.09-.55.02-.13.05-.25.07-.37.03-.12.05-.24.07-.37.02-.13.06-.25.1-.37.05-.12.1-.24.15-.37.05-.13.1-.25.15-.37.05-.12.11-.24.19-.37.08-.13.15-.25.22-.37.07-.12.15-.24.25-.37.1-.13.2-.25.29-.37.1-.12.24-.28.44-.47h.08l2.12-1.4h.08c.24-.1.42-.16.54-.18.13-.02.31-.06.54-.12h.08c.24-.04.42-.08.54-.1.13-.03.26-.06.4-.1h19.85v6.52h-19.76v8.19h19.76v6.66h-20.5Z" style="fill: #0071bc;"/>
        <path d="M42.82,36.78V15.4h20.12c.24.06.42.09.54.12.13.02.25.03.38.03s.25.02.38.07c.13.05.25.09.37.12.12.03.24.07.37.12.13.05.25.1.38.15s.25.11.37.19c.12.08.24.15.37.22.13.07.25.15.38.25.13.1.25.21.38.34s.25.24.37.34c.12.1.23.2.33.29v.08l1.34,2.07v.08c.1.24.16.42.19.54.03.13.06.31.1.57v.06c.06.25.09.44.11.57.02.13.03.29.03.48-.04.25-.08.44-.1.56-.03.12-.04.24-.04.37v.27c-.1.24-.16.42-.18.54-.02.13-.06.27-.11.42l-.88,1.49,1.03,1.63v.06c.1.25.15.44.15.56s.03.21.08.26v8.53h-6.6v-8.24h-13.22v8.24h-6.6ZM62.65,23.58v-3.27h-13.22v3.27h13.22Z" style="fill: #0071bc;"/>
        <path d="M77.16,36.78c-.24-.04-.41-.06-.52-.06s-.23-.02-.35-.07-.24-.08-.36-.1c-.12-.02-.24-.06-.36-.1-.12-.05-.24-.09-.36-.14-.12-.04-.24-.09-.36-.14-.12-.05-.24-.11-.36-.18s-.23-.14-.35-.21c-.11-.07-.23-.15-.35-.25s-.24-.19-.36-.28c-.12-.09-.24-.19-.36-.28-.12-.1-.24-.21-.36-.32-.12-.12-.2-.2-.24-.24v-.06l-.99-1.7-.36-1.07v-1.55l-.06-.06v-8.19c.04-.24.06-.42.06-.53s.01-.24.03-.36c.02-.12.06-.23.1-.35.05-.11.1-.23.15-.35.05-.12.08-.24.1-.36.02-.12.07-.24.14-.36.07-.12.14-.24.21-.36.07-.12.13-.24.18-.36.05-.12.12-.23.22-.35.1-.11.19-.23.28-.35.09-.12.18-.24.27-.36.09-.12.25-.3.49-.53h.08l2.03-1.28,1.22-.34h.06c.24-.06.42-.09.53-.12.12-.02.24-.03.36-.03h13.44c.24.04.41.06.52.06s.23.01.35.04c.12.03.24.05.36.07s.24.06.36.1c.12.05.24.08.36.1.12.02.24.07.36.14.12.07.24.13.36.18.12.05.23.11.35.18.11.07.23.15.35.24.12.09.24.17.36.25s.24.16.36.25c.12.09.27.23.45.43v.06l1.34,2.12v.06c.1.24.16.42.18.53.02.12.06.3.11.53v.06c.04.24.06.42.06.53s.01.24.04.36c.03.12.04.24.04.36v6.53h-19.7v3.25h19.7v4.93h-20.2ZM90.78,23.51v-3.16h-13.12v3.16h13.12Z" style="fill: #0071bc;"/>
        <path d="M105.51,36.78c-.28-.04-.49-.08-.62-.1-.13-.03-.27-.06-.4-.08-.13-.03-.27-.06-.4-.08-.13-.03-.27-.07-.41-.13-.14-.06-.28-.11-.41-.16-.13-.05-.27-.11-.4-.2-.13-.08-.27-.15-.4-.21-.13-.06-.27-.14-.41-.24s-.28-.21-.41-.31c-.13-.1-.27-.21-.4-.32-.13-.11-.26-.22-.37-.31v-.08l-1.22-1.95-.4-1.36c-.06-.27-.09-.47-.12-.61s-.03-.29-.03-.44c.1-.27.15-.47.15-.61s.01-.28.04-.41c.03-.13.06-.27.08-.4.03-.13.07-.27.13-.4.06-.13.09-.27.12-.41.02-.14.07-.28.16-.41.08-.13.15-.27.21-.4.06-.13.12-.27.2-.4.08-.13.17-.27.28-.41.11-.14.22-.28.33-.41.1-.13.26-.3.47-.51h.08l2.18-1.38h.08c.27-.1.47-.16.61-.19.14-.03.34-.07.61-.13h.48l.08-.08h13.56v-3.23h-19.78v-5.01h20.33c.28.06.49.1.62.13.13.03.26.06.4.08.13.03.27.07.4.13.13.06.27.11.41.16.14.05.28.12.41.2.13.08.26.15.4.21.13.06.27.14.4.24.13.1.27.21.41.31s.28.21.41.33c.13.11.27.23.4.37.13.13.23.23.28.28v.08l1.13,1.93c.11.27.19.45.23.57v1.05l.08.08v15.24h-19.99ZM118.99,31.71v-3.14h-13.25v3.14h13.25Z" style="fill: #0071bc;"/>
        <path d="M137.27,36.78v-14.8h-9.91v-6.6h26.39v6.6h-9.91v14.8h-6.56Z" style="fill: #0071bc;"/>
        <path d="M161.85,36.78c-.2-.03-.35-.04-.45-.04s-.21-.01-.3-.03c-.1-.02-.2-.04-.3-.06s-.21-.05-.3-.09-.2-.07-.29-.09c-.1-.02-.2-.05-.3-.09s-.21-.08-.3-.11c-.1-.04-.2-.08-.3-.15-.1-.06-.21-.12-.3-.16-.1-.04-.2-.09-.3-.16-.1-.06-.21-.13-.3-.21-.1-.08-.2-.16-.3-.24s-.21-.16-.3-.24c-.1-.08-.23-.2-.4-.37v-.06l-1.32-2.12-.31-.9v-.19c-.04-.21-.06-.36-.06-.46s-.01-.2-.03-.29c-.02-.1-.03-.2-.03-.3v-15.02h6.62v14.8h13.2v-14.8h6.62v21.4h-20.2Z" style="fill: #0071bc;"/>
        <path d="M183.96,36.78V15.4h20.12c.24.06.42.09.54.12.13.02.25.03.38.03s.25.02.38.07c.13.05.25.09.37.12.12.03.24.07.37.12.13.05.25.1.38.15s.25.11.37.19c.12.08.24.15.37.22.13.07.25.15.38.25.13.1.25.21.38.34s.25.24.37.34c.12.1.23.2.33.29v.08l1.34,2.07v.08c.1.24.16.42.19.54.03.13.06.31.1.57v.06c.06.25.09.44.11.57.02.13.03.29.03.48-.04.25-.08.44-.1.56-.03.12-.04.24-.04.37v.27c-.1.24-.16.42-.18.54-.02.13-.06.27-.11.42l-.88,1.49,1.03,1.63v.06c.1.25.15.44.15.56s.03.21.08.26v8.53h-6.6v-8.24h-13.22v8.24h-6.6ZM203.78,23.58v-3.27h-13.22v3.27h13.22Z" style="fill: #0071bc;"/>
        <path d="M218.29,36.78c-.24-.04-.41-.06-.52-.06s-.23-.02-.35-.07-.24-.08-.36-.1c-.12-.02-.24-.06-.36-.1-.12-.05-.24-.09-.36-.14-.12-.04-.24-.09-.36-.14-.12-.05-.24-.11-.36-.18s-.23-.14-.35-.21c-.11-.07-.23-.15-.35-.25s-.24-.19-.36-.28c-.12-.09-.24-.19-.36-.28-.12-.1-.24-.21-.36-.32-.12-.12-.2-.2-.24-.24v-.06l-.99-1.7-.36-1.07v-1.55l-.06-.06v-8.19c.04-.24.06-.42.06-.53s.01-.24.03-.36c.02-.12.06-.23.1-.35.05-.11.1-.23.15-.35.05-.12.08-.24.1-.36.02-.12.07-.24.14-.36.07-.12.14-.24.21-.36.07-.12.13-.24.18-.36.05-.12.12-.23.22-.35.1-.11.19-.23.28-.35.09-.12.18-.24.27-.36.09-.12.25-.3.49-.53h.08l2.03-1.28,1.22-.34h.06c.24-.06.42-.09.53-.12.12-.02.24-.03.36-.03h13.44c.24.04.41.06.52.06s.23.01.35.04c.12.03.24.05.36.07s.24.06.36.1c.12.05.24.08.36.1.12.02.24.07.36.14.12.07.24.13.36.18.12.05.23.11.35.18.11.07.23.15.35.24.12.09.24.17.36.25s.24.16.36.25c.12.09.27.23.45.43v.06l1.34,2.12v.06c.1.24.16.42.18.53.02.12.06.3.11.53v.06c.04.24.06.42.06.53s.01.24.04.36c.03.12.04.24.04.36v6.53h-19.7v3.25h19.7v4.93h-20.2ZM231.91,23.51v-3.16h-13.12v3.16h13.12Z" style="fill: #0071bc;"/>
        <path d="M54.83,41.91H16.96c-1.28,0-2.31,1.03-2.31,2.31v57.95c0,1.28,1.03,2.31,2.31,2.31h57.95c1.28,0,2.31-1.03,2.31-2.31v-13.15c0-1.28-1.03-2.31-2.31-2.31h-40.17c-1.28,0-2.31-1.03-2.31-2.31v-22.4c0-1.28,1.03-2.31,2.31-2.31h40.17c1.28,0,2.31-1.03,2.31-2.31v-13.15c0-1.28-1.03-2.31-2.31-2.31h-20.09Z" style="fill: #0071bc;"/>
        <path d="M129.13,59.68v24.71c0,1.28-1.03,2.31-2.31,2.31h-22.4c-1.28,0-2.31-1.03-2.31-2.31v-40.17c0-1.28-1.03-2.31-2.31-2.31h-13.15c-1.28,0-2.31,1.03-2.31,2.31v57.95c0,1.28,1.03,2.31,2.31,2.31h57.95c1.28,0,2.31-1.03,2.31-2.31v-57.95c0-1.28-1.03-2.31-2.31-2.31h-13.15c-1.28,0-2.31,1.03-2.31,2.31v15.46Z" style="fill: #0071bc;"/>
        <path d="M263.87,41.91h-37.86c-1.28,0-2.31,1.03-2.31,2.31v57.95c0,1.28,1.03,2.31,2.31,2.31h57.95c1.28,0,2.31-1.03,2.31-2.31v-13.15c0-1.28-1.03-2.31-2.31-2.31h-40.17c-1.28,0-2.31-1.03-2.31-2.31h0c0-1.28,1.03-2.31,2.31-2.31h40.17c1.28,0,2.31-1.03,2.31-2.31v-13.15c0-1.28-1.03-2.31-2.31-2.31h-40.17c-1.28,0-2.31-1.03-2.31-2.31h0c0-1.28,1.03-2.31,2.31-2.31h40.17c1.28,0,2.31-1.03,2.31-2.31v-13.15c0-1.28-1.03-2.31-2.31-2.31h-20.09Z" style="fill: #0071bc;"/>
        <path d="M315.7,59.68h37.86c1.28,0,2.31-1.03,2.31-2.31v-13.15c0-1.28-1.03-2.31-2.31-2.31h-57.95c-1.28,0-2.31,1.03-2.31,2.31v35.55c0,1.28,1.03,2.31,2.31,2.31h40.17c1.28,0,2.31,1.03,2.31,2.31h0c0,1.28-1.03,2.31-2.31,2.31h-40.17c-1.28,0-2.31,1.03-2.31,2.31v13.15c0,1.28,1.03,2.31,2.31,2.31h57.95c1.28,0,2.31-1.03,2.31-2.31v-35.55c0-1.28-1.03-2.31-2.31-2.31h-40.17c-1.28,0-2.31-1.03-2.31-2.31h0c0-1.28,1.03-2.31,2.31-2.31h2.31Z" style="fill: #0071bc;"/>
        <path d="M216.59,70.78v-26.56c0-1.28-1.04-2.31-2.31-2.31h-57.95c-1.28,0-2.31,1.04-2.31,2.31v57.95c0,1.28,1.03,2.31,2.31,2.31h57.95c1.28,0,2.31-1.04,2.31-2.31v-26.56c0-1.33-1.08-2.42-2.42-2.42,1.34,0,2.42-1.08,2.42-2.42ZM196.5,86.7h-22.4c-1.28,0-2.31-1.03-2.31-2.31,0-.64.26-1.21.68-1.63.42-.42.99-.68,1.63-.68h22.4c1.28,0,2.31,1.04,2.31,2.31s-1.04,2.31-2.31,2.31ZM196.5,64.3h-22.4c-1.28,0-2.31-1.04-2.31-2.31,0-.64.26-1.21.68-1.63.42-.42.99-.68,1.63-.68h22.4c1.28,0,2.31,1.04,2.31,2.31s-1.04,2.31-2.31,2.31Z" style="fill: #0071bc;"/>
        <path d="M54.83,41.91H16.96c-1.28,0-2.31,1.03-2.31,2.31v57.95c0,1.28,1.03,2.31,2.31,2.31h57.95c1.28,0,2.31-1.03,2.31-2.31v-13.15c0-1.28-1.03-2.31-2.31-2.31h-40.17c-1.28,0-2.31-1.03-2.31-2.31v-22.4c0-1.28,1.03-2.31,2.31-2.31h40.17c1.28,0,2.31-1.03,2.31-2.31v-13.15c0-1.28-1.03-2.31-2.31-2.31h-20.09Z" style="fill: url(#linear-gradient); opacity: .17;"/>
        <path d="M129.13,59.68v24.71c0,1.28-1.03,2.31-2.31,2.31h-22.4c-1.28,0-2.31-1.03-2.31-2.31v-40.17c0-1.28-1.03-2.31-2.31-2.31h-13.15c-1.28,0-2.31,1.03-2.31,2.31v57.95c0,1.28,1.03,2.31,2.31,2.31h57.95c1.28,0,2.31-1.03,2.31-2.31v-57.95c0-1.28-1.03-2.31-2.31-2.31h-13.15c-1.28,0-2.31,1.03-2.31,2.31v15.46Z" style="fill: url(#linear-gradient-2); opacity: .17;"/>
        <path d="M263.87,41.91h-37.86c-1.28,0-2.31,1.03-2.31,2.31v57.95c0,1.28,1.03,2.31,2.31,2.31h57.95c1.28,0,2.31-1.03,2.31-2.31v-13.15c0-1.28-1.03-2.31-2.31-2.31h-40.17c-1.28,0-2.31-1.03-2.31-2.31h0c0-1.28,1.03-2.31,2.31-2.31h40.17c1.28,0,2.31-1.03,2.31-2.31v-13.15c0-1.28-1.03-2.31-2.31-2.31h-40.17c-1.28,0-2.31-1.03-2.31-2.31h0c0-1.28,1.03-2.31,2.31-2.31h40.17c1.28,0,2.31-1.03,2.31-2.31v-13.15c0-1.28-1.03-2.31-2.31-2.31h-20.09Z" style="fill: url(#linear-gradient-3); opacity: .17;"/>
        <path d="M315.7,59.68h37.86c1.28,0,2.31-1.03,2.31-2.31v-13.15c0-1.28-1.03-2.31-2.31-2.31h-57.95c-1.28,0-2.31,1.03-2.31,2.31v35.55c0,1.28,1.03,2.31,2.31,2.31h40.17c1.28,0,2.31,1.03,2.31,2.31h0c0,1.28-1.03,2.31-2.31,2.31h-40.17c-1.28,0-2.31,1.03-2.31,2.31v13.15c0,1.28,1.03,2.31,2.31,2.31h57.95c1.28,0,2.31-1.03,2.31-2.31v-35.55c0-1.28-1.03-2.31-2.31-2.31h-40.17c-1.28,0-2.31-1.03-2.31-2.31h0c0-1.28,1.03-2.31,2.31-2.31h2.31Z" style="fill: url(#linear-gradient-4); opacity: .17;"/>
        <path d="M216.59,70.78v-26.56c0-1.28-1.04-2.31-2.31-2.31h-57.95c-1.28,0-2.31,1.04-2.31,2.31v57.95c0,1.28,1.03,2.31,2.31,2.31h57.95c1.28,0,2.31-1.04,2.31-2.31v-26.56c0-1.33-1.08-2.42-2.42-2.42,1.34,0,2.42-1.08,2.42-2.42ZM196.5,86.7h-22.4c-1.28,0-2.31-1.03-2.31-2.31,0-.64.26-1.21.68-1.63.42-.42.99-.68,1.63-.68h22.4c1.28,0,2.31,1.04,2.31,2.31s-1.04,2.31-2.31,2.31ZM196.5,64.3h-22.4c-1.28,0-2.31-1.04-2.31-2.31,0-.64.26-1.21.68-1.63.42-.42.99-.68,1.63-.68h22.4c1.28,0,2.31,1.04,2.31,2.31s-1.04,2.31-2.31,2.31Z" style="fill: url(#linear-gradient-5); opacity: .17;"/>
        <path d="M362.92,131.82h-76.59c-11.19,0-20.3-9.11-20.3-20.3v-3.12h6.16v3.12c0,7.79,6.34,14.13,14.13,14.13h76.59c7.79,0,14.13-6.34,14.13-14.13V34.94c0-7.79-6.34-14.13-14.13-14.13h-76.59c-7.79,0-14.13,6.34-14.13,14.13v1.84h-6.16v-1.84c0-11.19,9.11-20.3,20.3-20.3h76.59c11.19,0,20.3,9.11,20.3,20.3v76.59c0,11.19-9.11,20.3-20.3,20.3Z" style="fill: #0071bc;"/>
        <path d="M39.95,21.06v-4.54h-18.72c-.11.03-.22.06-.32.08-.14.03-.33.07-.59.12h-.08s-.06.01-.06.01c-.21.05-.38.08-.49.1,0,0-.09.02-.33.12l-.13.05-2.05,1.36c-.08.09-.13.14-.16.18-.1.12-.19.23-.28.35-.07.09-.13.18-.18.26-.07.12-.15.25-.23.38-.05.08-.09.16-.12.23-.05.11-.09.23-.14.35-.05.13-.11.26-.15.39-.02.05-.04.1-.04.15-.03.15-.06.3-.09.44-.02.1-.04.19-.06.3-.02.11-.05.27-.08.47v8.51c0,.07,0,.13.02.2.02.12.11.62.11.62v.06c.05.21.08.38.1.49,0,0,.02.09.12.34l.06.15,1.31,2.05c.11.1.18.16.22.2.11.09.23.18.34.28.1.08.2.15.3.21.1.06.2.13.31.18.14.08.29.16.42.25.06.04.13.07.19.1.1.04.22.09.39.15l.09.02c.2.05.37.08.49.11.12.03.28.07.48.14h19.35v-4.69h-19.76v-10.17h19.76ZM38.96,32.22v2.71h-18.21c-.16-.05-.29-.09-.41-.12-.14-.03-.3-.07-.51-.12h-.01c-.13-.05-.23-.1-.32-.13-.16-.11-.33-.2-.49-.3-.08-.05-.17-.1-.25-.15-.08-.05-.16-.11-.23-.17-.11-.08-.21-.17-.32-.26-.02-.02-.05-.04-.08-.07l-1.2-1.87-.03-.07c-.04-.09-.06-.14-.07-.17-.02-.09-.04-.23-.08-.39v-.04s-.1-.57-.12-.7c0-.02,0-.03,0-.04v-8.43c.03-.16.05-.29.07-.39.01-.09.03-.16.05-.24.04-.15.07-.3.1-.46.05-.12.1-.25.15-.38.04-.11.09-.22.13-.32.01-.03.03-.06.05-.09.08-.14.16-.27.23-.39.03-.06.07-.11.11-.16.08-.11.17-.21.26-.32,0-.01.03-.03.04-.05l1.87-1.24.04-.02c.09-.03.14-.06.17-.07.11-.02.23-.05.39-.08h.03l.17-.03c.28-.05.49-.09.64-.13.07-.01.15-.03.23-.06h17.6v2.57h-19.76v12.15h19.76Z" style="fill: #fff; opacity: .13;"/>
        <path d="M39.95,21.06v-4.54h-18.72c-.11.03-.22.06-.32.08-.14.03-.33.07-.59.12h-.08s-.06.01-.06.01c-.21.05-.38.08-.49.1,0,0-.09.02-.33.12l-.13.05-2.05,1.36c-.08.09-.13.14-.16.18-.1.12-.19.23-.28.35-.07.09-.13.18-.18.26-.07.12-.15.25-.23.38-.05.08-.09.16-.12.23-.05.11-.09.23-.14.35-.05.13-.11.26-.15.39-.02.05-.04.1-.04.15-.03.15-.06.3-.09.44-.02.1-.04.19-.06.3-.02.11-.05.27-.08.47v8.51c0,.07,0,.13.02.2.02.12.11.62.11.62v.06c.05.21.08.38.1.49,0,0,.02.09.12.34l.06.15,1.31,2.05c.11.1.18.16.22.2.11.09.23.18.34.28.1.08.2.15.3.21.1.06.2.13.31.18.14.08.29.16.42.25.06.04.13.07.19.1.1.04.22.09.39.15l.09.02c.2.05.37.08.49.11.12.03.28.07.48.14h19.35v-4.69h-19.76v-10.17h19.76ZM38.96,32.22v2.71h-18.21c-.16-.05-.29-.09-.41-.12-.14-.03-.3-.07-.51-.12h-.01c-.13-.05-.23-.1-.32-.13-.16-.11-.33-.2-.49-.3-.08-.05-.17-.1-.25-.15-.08-.05-.16-.11-.23-.17-.11-.08-.21-.17-.32-.26-.02-.02-.05-.04-.08-.07l-1.2-1.87-.03-.07c-.04-.09-.06-.14-.07-.17-.02-.09-.04-.23-.08-.39v-.04s-.1-.57-.12-.7c0-.02,0-.03,0-.04v-8.43c.03-.16.05-.29.07-.39.01-.09.03-.16.05-.24.04-.15.07-.3.1-.46.05-.12.1-.25.15-.38.04-.11.09-.22.13-.32.01-.03.03-.06.05-.09.08-.14.16-.27.23-.39.03-.06.07-.11.11-.16.08-.11.17-.21.26-.32,0-.01.03-.03.04-.05l1.87-1.24.04-.02c.09-.03.14-.06.17-.07.11-.02.23-.05.39-.08h.03l.17-.03c.28-.05.49-.09.64-.13.07-.01.15-.03.23-.06h17.6v2.57h-19.76v12.15h19.76Z" style="fill: #fff; opacity: .13;"/>
        <path d="M47.45,18.46v7.22h17.18v-7.22h-17.18ZM63.63,24.7h-15.2v-5.25h15.2v5.25ZM47.45,18.46v7.22h17.18v-7.22h-17.18ZM63.63,24.7h-15.2v-5.25h15.2v5.25ZM47.45,18.46v7.22h17.18v-7.22h-17.18ZM63.63,24.7h-15.2v-5.25h15.2v5.25ZM47.45,18.46v7.22h17.18v-7.22h-17.18ZM63.63,24.7h-15.2v-5.25h15.2v5.25ZM47.45,18.46v7.22h17.18v-7.22h-17.18ZM63.63,24.7h-15.2v-5.25h15.2v5.25ZM47.45,18.46v7.22h17.18v-7.22h-17.18ZM63.63,24.7h-15.2v-5.25h15.2v5.25ZM47.45,18.46v7.22h17.18v-7.22h-17.18ZM63.63,24.7h-15.2v-5.25h15.2v5.25ZM47.45,18.46v7.22h17.18v-7.22h-17.18ZM63.63,24.7h-15.2v-5.25h15.2v5.25ZM47.45,18.46v7.22h17.18v-7.22h-17.18ZM63.63,24.7h-15.2v-5.25h15.2v5.25ZM47.45,18.46v7.22h17.18v-7.22h-17.18ZM63.63,24.7h-15.2v-5.25h15.2v5.25ZM47.45,18.46v7.22h17.18v-7.22h-17.18ZM63.63,24.7h-15.2v-5.25h15.2v5.25ZM47.45,18.46v7.22h17.18v-7.22h-17.18ZM63.63,24.7h-15.2v-5.25h15.2v5.25ZM47.45,18.46v7.22h17.18v-7.22h-17.18ZM63.63,24.7h-15.2v-5.25h15.2v5.25ZM47.45,18.46v7.22h17.18v-7.22h-17.18ZM63.63,24.7h-15.2v-5.25h15.2v5.25ZM47.45,18.46v7.22h17.18v-7.22h-17.18ZM63.63,24.7h-15.2v-5.25h15.2v5.25ZM47.45,18.46v7.22h17.18v-7.22h-17.18ZM63.63,24.7h-15.2v-5.25h15.2v5.25ZM47.45,18.46v7.22h17.18v-7.22h-17.18ZM63.63,24.7h-15.2v-5.25h15.2v5.25ZM47.45,18.46v7.22h17.18v-7.22h-17.18ZM63.63,24.7h-15.2v-5.25h15.2v5.25ZM47.45,18.46v7.22h17.18v-7.22h-17.18ZM63.63,24.7h-15.2v-5.25h15.2v5.25ZM47.45,18.46v7.22h17.18v-7.22h-17.18ZM63.63,24.7h-15.2v-5.25h15.2v5.25ZM47.45,18.46v7.22h17.18v-7.22h-17.18ZM63.63,24.7h-15.2v-5.25h15.2v5.25ZM47.45,18.46v7.22h17.18v-7.22h-17.18ZM63.63,24.7h-15.2v-5.25h15.2v5.25ZM47.45,18.46v7.22h17.18v-7.22h-17.18ZM63.63,24.7h-15.2v-5.25h15.2v5.25ZM47.45,18.46v7.22h17.18v-7.22h-17.18ZM63.63,24.7h-15.2v-5.25h15.2v5.25ZM47.45,18.46v7.22h17.18v-7.22h-17.18ZM63.63,24.7h-15.2v-5.25h15.2v5.25ZM47.45,18.46v7.22h17.18v-7.22h-17.18ZM63.63,24.7h-15.2v-5.25h15.2v5.25ZM68.09,27.92l-.03-.08-1.24-1.96,1.14-1.92c.02-.08.04-.13.04-.16.03-.16.08-.35.16-.57v-.09c0-.2.02-.41.07-.59.02-.09.05-.23.08-.41,0-.13,0-.2-.02-.24-.02-.12-.06-.28-.11-.51l-.02-.11v-.09c-.03-.19-.06-.34-.08-.43,0-.02-.03-.12-.14-.39l-.06-.14-1.26-1.96s-.04-.03-.05-.05c-.14-.12-.29-.25-.44-.4-.1-.1-.19-.18-.28-.25-.09-.07-.17-.12-.25-.17-.14-.08-.29-.16-.42-.25-.06-.04-.13-.07-.19-.1l-.38-.14c-.08-.03-.16-.06-.23-.08-.16-.04-.33-.09-.52-.16-.18,0-.36-.01-.54-.05-.12-.02-.28-.05-.49-.1h-19.02v19.4h4.62v-8.24h15.2v8.24h4.62v-7.3c-.05-.13-.08-.28-.08-.46,0-.03-.03-.1-.08-.24ZM67.27,34.94h-2.65v-8.24h-17.18v8.24h-2.65v-17.43h17.92c.18.04.33.07.44.09.17.03.35.05.52.06.16.06.32.1.48.14.03,0,.07.02.11.04l.37.14c.17.11.33.2.5.3.01,0,.06.03.13.09.06.04.12.1.19.17.15.15.3.29.44.41l1.13,1.75.03.06c.06.14.08.22.09.25,0,.05.03.14.05.28v.11l.05.21c.04.2.08.36.09.46,0,0,0,.01,0,.02-.02.11-.04.19-.05.25-.06.23-.09.47-.09.72-.07.19-.11.37-.14.53l-1.37,2.32,1.5,2.39s.01.03.02.05c.01.15.04.3.08.43v6.17ZM47.45,25.68h17.18v-7.22h-17.18v7.22ZM48.43,19.45h15.2v5.25h-15.2v-5.25ZM47.45,18.46v7.22h17.18v-7.22h-17.18ZM63.63,24.7h-15.2v-5.25h15.2v5.25ZM47.45,18.46v7.22h17.18v-7.22h-17.18ZM63.63,24.7h-15.2v-5.25h15.2v5.25ZM47.45,18.46v7.22h17.18v-7.22h-17.18ZM63.63,24.7h-15.2v-5.25h15.2v5.25ZM47.45,18.46v7.22h17.18v-7.22h-17.18ZM63.63,24.7h-15.2v-5.25h15.2v5.25ZM47.45,18.46v7.22h17.18v-7.22h-17.18ZM63.63,24.7h-15.2v-5.25h15.2v5.25ZM47.45,18.46v7.22h17.18v-7.22h-17.18ZM63.63,24.7h-15.2v-5.25h15.2v5.25ZM47.45,18.46v7.22h17.18v-7.22h-17.18ZM63.63,24.7h-15.2v-5.25h15.2v5.25ZM47.45,18.46v7.22h17.18v-7.22h-17.18ZM63.63,24.7h-15.2v-5.25h15.2v5.25ZM47.45,18.46v7.22h17.18v-7.22h-17.18ZM63.63,24.7h-15.2v-5.25h15.2v5.25ZM47.45,18.46v7.22h17.18v-7.22h-17.18ZM63.63,24.7h-15.2v-5.25h15.2v5.25ZM47.45,18.46v7.22h17.18v-7.22h-17.18ZM63.63,24.7h-15.2v-5.25h15.2v5.25ZM47.45,18.46v7.22h17.18v-7.22h-17.18ZM63.63,24.7h-15.2v-5.25h15.2v5.25ZM47.45,18.46v7.22h17.18v-7.22h-17.18ZM63.63,24.7h-15.2v-5.25h15.2v5.25ZM47.45,18.46v7.22h17.18v-7.22h-17.18ZM63.63,24.7h-15.2v-5.25h15.2v5.25ZM47.45,18.46v7.22h17.18v-7.22h-17.18ZM63.63,24.7h-15.2v-5.25h15.2v5.25ZM47.45,18.46v7.22h17.18v-7.22h-17.18ZM63.63,24.7h-15.2v-5.25h15.2v5.25ZM47.45,18.46v7.22h17.18v-7.22h-17.18ZM63.63,24.7h-15.2v-5.25h15.2v5.25ZM47.45,18.46v7.22h17.18v-7.22h-17.18ZM63.63,24.7h-15.2v-5.25h15.2v5.25ZM47.45,18.46v7.22h17.18v-7.22h-17.18ZM63.63,24.7h-15.2v-5.25h15.2v5.25ZM47.45,18.46v7.22h17.18v-7.22h-17.18ZM63.63,24.7h-15.2v-5.25h15.2v5.25ZM47.45,18.46v7.22h17.18v-7.22h-17.18ZM63.63,24.7h-15.2v-5.25h15.2v5.25ZM47.45,18.46v7.22h17.18v-7.22h-17.18ZM63.63,24.7h-15.2v-5.25h15.2v5.25ZM47.45,18.46v7.22h17.18v-7.22h-17.18ZM63.63,24.7h-15.2v-5.25h15.2v5.25ZM47.45,18.46v7.22h17.18v-7.22h-17.18ZM63.63,24.7h-15.2v-5.25h15.2v5.25ZM47.45,18.46v7.22h17.18v-7.22h-17.18ZM63.63,24.7h-15.2v-5.25h15.2v5.25ZM47.45,18.46v7.22h17.18v-7.22h-17.18ZM63.63,24.7h-15.2v-5.25h15.2v5.25Z" style="fill: #fff; opacity: .13;"/>
        <path d="M47.45,18.46v7.22h17.18v-7.22h-17.18ZM63.63,24.7h-15.2v-5.25h15.2v5.25ZM47.45,18.46v7.22h17.18v-7.22h-17.18ZM63.63,24.7h-15.2v-5.25h15.2v5.25ZM47.45,18.46v7.22h17.18v-7.22h-17.18ZM63.63,24.7h-15.2v-5.25h15.2v5.25ZM47.45,18.46v7.22h17.18v-7.22h-17.18ZM63.63,24.7h-15.2v-5.25h15.2v5.25ZM47.45,18.46v7.22h17.18v-7.22h-17.18ZM63.63,24.7h-15.2v-5.25h15.2v5.25ZM47.45,18.46v7.22h17.18v-7.22h-17.18ZM63.63,24.7h-15.2v-5.25h15.2v5.25ZM47.45,18.46v7.22h17.18v-7.22h-17.18ZM63.63,24.7h-15.2v-5.25h15.2v5.25ZM47.45,18.46v7.22h17.18v-7.22h-17.18ZM63.63,24.7h-15.2v-5.25h15.2v5.25ZM47.45,18.46v7.22h17.18v-7.22h-17.18ZM63.63,24.7h-15.2v-5.25h15.2v5.25ZM47.45,18.46v7.22h17.18v-7.22h-17.18ZM63.63,24.7h-15.2v-5.25h15.2v5.25ZM47.45,18.46v7.22h17.18v-7.22h-17.18ZM63.63,24.7h-15.2v-5.25h15.2v5.25ZM47.45,18.46v7.22h17.18v-7.22h-17.18ZM63.63,24.7h-15.2v-5.25h15.2v5.25ZM47.45,18.46v7.22h17.18v-7.22h-17.18ZM63.63,24.7h-15.2v-5.25h15.2v5.25ZM47.45,18.46v7.22h17.18v-7.22h-17.18ZM63.63,24.7h-15.2v-5.25h15.2v5.25ZM47.45,18.46v7.22h17.18v-7.22h-17.18ZM63.63,24.7h-15.2v-5.25h15.2v5.25ZM47.45,18.46v7.22h17.18v-7.22h-17.18ZM63.63,24.7h-15.2v-5.25h15.2v5.25ZM47.45,18.46v7.22h17.18v-7.22h-17.18ZM63.63,24.7h-15.2v-5.25h15.2v5.25ZM47.45,18.46v7.22h17.18v-7.22h-17.18ZM63.63,24.7h-15.2v-5.25h15.2v5.25ZM47.45,18.46v7.22h17.18v-7.22h-17.18ZM63.63,24.7h-15.2v-5.25h15.2v5.25ZM47.45,18.46v7.22h17.18v-7.22h-17.18ZM63.63,24.7h-15.2v-5.25h15.2v5.25ZM47.45,18.46v7.22h17.18v-7.22h-17.18ZM63.63,24.7h-15.2v-5.25h15.2v5.25ZM47.45,18.46v7.22h17.18v-7.22h-17.18ZM63.63,24.7h-15.2v-5.25h15.2v5.25ZM47.45,18.46v7.22h17.18v-7.22h-17.18ZM63.63,24.7h-15.2v-5.25h15.2v5.25ZM47.45,18.46v7.22h17.18v-7.22h-17.18ZM63.63,24.7h-15.2v-5.25h15.2v5.25ZM47.45,18.46v7.22h17.18v-7.22h-17.18ZM63.63,24.7h-15.2v-5.25h15.2v5.25ZM47.45,18.46v7.22h17.18v-7.22h-17.18ZM63.63,24.7h-15.2v-5.25h15.2v5.25ZM68.09,27.92l-.03-.08-1.24-1.96,1.14-1.92c.02-.08.04-.13.04-.16.03-.16.08-.35.16-.57v-.09c0-.2.02-.41.07-.59.02-.09.05-.23.08-.41,0-.13,0-.2-.02-.24-.02-.12-.06-.28-.11-.51l-.02-.11v-.09c-.03-.19-.06-.34-.08-.43,0-.02-.03-.12-.14-.39l-.06-.14-1.26-1.96s-.04-.03-.05-.05c-.14-.12-.29-.25-.44-.4-.1-.1-.19-.18-.28-.25-.09-.07-.17-.12-.25-.17-.14-.08-.29-.16-.42-.25-.06-.04-.13-.07-.19-.1l-.38-.14c-.08-.03-.16-.06-.23-.08-.16-.04-.33-.09-.52-.16-.18,0-.36-.01-.54-.05-.12-.02-.28-.05-.49-.1h-19.02v19.4h4.62v-8.24h15.2v8.24h4.62v-7.3c-.05-.13-.08-.28-.08-.46,0-.03-.03-.1-.08-.24ZM67.27,34.94h-2.65v-8.24h-17.18v8.24h-2.65v-17.43h17.92c.18.04.33.07.44.09.17.03.35.05.52.06.16.06.32.1.48.14.03,0,.07.02.11.04l.37.14c.17.11.33.2.5.3.01,0,.06.03.13.09.06.04.12.1.19.17.15.15.3.29.44.41l1.13,1.75.03.06c.06.14.08.22.09.25,0,.05.03.14.05.28v.11l.05.21c.04.2.08.36.09.46,0,0,0,.01,0,.02-.02.11-.04.19-.05.25-.06.23-.09.47-.09.72-.07.19-.11.37-.14.53l-1.37,2.32,1.5,2.39s.01.03.02.05c.01.15.04.3.08.43v6.17ZM47.45,25.68h17.18v-7.22h-17.18v7.22ZM48.43,19.45h15.2v5.25h-15.2v-5.25ZM47.45,18.46v7.22h17.18v-7.22h-17.18ZM63.63,24.7h-15.2v-5.25h15.2v5.25ZM47.45,18.46v7.22h17.18v-7.22h-17.18ZM63.63,24.7h-15.2v-5.25h15.2v5.25ZM47.45,18.46v7.22h17.18v-7.22h-17.18ZM63.63,24.7h-15.2v-5.25h15.2v5.25ZM47.45,18.46v7.22h17.18v-7.22h-17.18ZM63.63,24.7h-15.2v-5.25h15.2v5.25ZM47.45,18.46v7.22h17.18v-7.22h-17.18ZM63.63,24.7h-15.2v-5.25h15.2v5.25ZM47.45,18.46v7.22h17.18v-7.22h-17.18ZM63.63,24.7h-15.2v-5.25h15.2v5.25ZM47.45,18.46v7.22h17.18v-7.22h-17.18ZM63.63,24.7h-15.2v-5.25h15.2v5.25ZM47.45,18.46v7.22h17.18v-7.22h-17.18ZM63.63,24.7h-15.2v-5.25h15.2v5.25ZM47.45,18.46v7.22h17.18v-7.22h-17.18ZM63.63,24.7h-15.2v-5.25h15.2v5.25ZM47.45,18.46v7.22h17.18v-7.22h-17.18ZM63.63,24.7h-15.2v-5.25h15.2v5.25ZM47.45,18.46v7.22h17.18v-7.22h-17.18ZM63.63,24.7h-15.2v-5.25h15.2v5.25ZM47.45,18.46v7.22h17.18v-7.22h-17.18ZM63.63,24.7h-15.2v-5.25h15.2v5.25ZM47.45,18.46v7.22h17.18v-7.22h-17.18ZM63.63,24.7h-15.2v-5.25h15.2v5.25ZM47.45,18.46v7.22h17.18v-7.22h-17.18ZM63.63,24.7h-15.2v-5.25h15.2v5.25ZM47.45,18.46v7.22h17.18v-7.22h-17.18ZM63.63,24.7h-15.2v-5.25h15.2v5.25ZM47.45,18.46v7.22h17.18v-7.22h-17.18ZM63.63,24.7h-15.2v-5.25h15.2v5.25ZM47.45,18.46v7.22h17.18v-7.22h-17.18ZM63.63,24.7h-15.2v-5.25h15.2v5.25ZM47.45,18.46v7.22h17.18v-7.22h-17.18ZM63.63,24.7h-15.2v-5.25h15.2v5.25ZM47.45,18.46v7.22h17.18v-7.22h-17.18ZM63.63,24.7h-15.2v-5.25h15.2v5.25ZM47.45,18.46v7.22h17.18v-7.22h-17.18ZM63.63,24.7h-15.2v-5.25h15.2v5.25ZM47.45,18.46v7.22h17.18v-7.22h-17.18ZM63.63,24.7h-15.2v-5.25h15.2v5.25ZM47.45,18.46v7.22h17.18v-7.22h-17.18ZM63.63,24.7h-15.2v-5.25h15.2v5.25ZM47.45,18.46v7.22h17.18v-7.22h-17.18ZM63.63,24.7h-15.2v-5.25h15.2v5.25ZM47.45,18.46v7.22h17.18v-7.22h-17.18ZM63.63,24.7h-15.2v-5.25h15.2v5.25ZM47.45,18.46v7.22h17.18v-7.22h-17.18ZM63.63,24.7h-15.2v-5.25h15.2v5.25ZM47.45,18.46v7.22h17.18v-7.22h-17.18ZM63.63,24.7h-15.2v-5.25h15.2v5.25Z" style="fill: #fff; opacity: .13;"/>
        <path d="M75.68,18.5v7.12h17.07v-7.12h-17.07ZM91.77,24.63h-15.1v-5.14h15.1v5.14ZM75.68,18.5v7.12h17.07v-7.12h-17.07ZM91.77,24.63h-15.1v-5.14h15.1v5.14ZM75.68,18.5v7.12h17.07v-7.12h-17.07ZM91.77,24.63h-15.1v-5.14h15.1v5.14ZM75.68,18.5v7.12h17.07v-7.12h-17.07ZM91.77,24.63h-15.1v-5.14h15.1v5.14ZM75.68,18.5v7.12h17.07v-7.12h-17.07ZM91.77,24.63h-15.1v-5.14h15.1v5.14ZM75.68,18.5v7.12h17.07v-7.12h-17.07ZM91.77,24.63h-15.1v-5.14h15.1v5.14ZM75.68,18.5v7.12h17.07v-7.12h-17.07ZM91.77,24.63h-15.1v-5.14h15.1v5.14ZM75.68,18.5v7.12h17.07v-7.12h-17.07ZM91.77,24.63h-15.1v-5.14h15.1v5.14ZM75.68,18.5v7.12h17.07v-7.12h-17.07ZM91.77,24.63h-15.1v-5.14h15.1v5.14ZM75.68,18.5v7.12h17.07v-7.12h-17.07ZM91.77,24.63h-15.1v-5.14h15.1v5.14ZM75.68,18.5v7.12h17.07v-7.12h-17.07ZM91.77,24.63h-15.1v-5.14h15.1v5.14ZM75.68,18.5v7.12h17.07v-7.12h-17.07ZM91.77,24.63h-15.1v-5.14h15.1v5.14ZM75.68,18.5v7.12h17.07v-7.12h-17.07ZM91.77,24.63h-15.1v-5.14h15.1v5.14ZM75.68,18.5v7.12h17.07v-7.12h-17.07ZM91.77,24.63h-15.1v-5.14h15.1v5.14ZM75.68,18.5v7.12h17.07v-7.12h-17.07ZM91.77,24.63h-15.1v-5.14h15.1v5.14ZM75.68,18.5v7.12h17.07v-7.12h-17.07ZM91.77,24.63h-15.1v-5.14h15.1v5.14ZM75.68,18.5v7.12h17.07v-7.12h-17.07ZM91.77,24.63h-15.1v-5.14h15.1v5.14ZM75.68,18.5v7.12h17.07v-7.12h-17.07ZM91.77,24.63h-15.1v-5.14h15.1v5.14ZM75.68,18.5v7.12h17.07v-7.12h-17.07ZM91.77,24.63h-15.1v-5.14h15.1v5.14ZM75.68,18.5v7.12h17.07v-7.12h-17.07ZM91.77,24.63h-15.1v-5.14h15.1v5.14ZM75.68,18.5v7.12h17.07v-7.12h-17.07ZM91.77,24.63h-15.1v-5.14h15.1v5.14ZM75.68,18.5v7.12h17.07v-7.12h-17.07ZM91.77,24.63h-15.1v-5.14h15.1v5.14ZM75.68,18.5v7.12h17.07v-7.12h-17.07ZM91.77,24.63h-15.1v-5.14h15.1v5.14ZM75.68,18.5v7.12h17.07v-7.12h-17.07ZM91.77,24.63h-15.1v-5.14h15.1v5.14ZM75.68,18.5v7.12h17.07v-7.12h-17.07ZM91.77,24.63h-15.1v-5.14h15.1v5.14ZM75.68,18.5v7.12h17.07v-7.12h-17.07ZM91.77,24.63h-15.1v-5.14h15.1v5.14ZM75.68,18.5v7.12h17.07v-7.12h-17.07ZM91.77,24.63h-15.1v-5.14h15.1v5.14ZM75.68,18.5v7.12h17.07v-7.12h-17.07ZM91.77,24.63h-15.1v-5.14h15.1v5.14ZM75.68,18.5v7.12h17.07v-7.12h-17.07ZM91.77,24.63h-15.1v-5.14h15.1v5.14ZM75.68,18.5v7.12h17.07v-7.12h-17.07ZM91.77,24.63h-15.1v-5.14h15.1v5.14ZM96.37,27.75v-5.54s0-.09-.02-.13c-.05-.19-.07-.39-.07-.58,0,0,0-.1-.05-.36l-.02-.09v-.04c-.05-.21-.08-.37-.1-.47,0,0-.02-.09-.12-.33l-.04-.1-1.28-2.03c-.09-.08-.14-.12-.15-.14-.1-.08-.2-.14-.29-.21-.14-.09-.28-.19-.42-.3-.09-.07-.18-.14-.27-.19-.07-.04-.13-.08-.2-.1-.16-.07-.33-.14-.48-.24-.02-.01-.03-.02-.03-.02-.19-.03-.38-.09-.56-.16-.05-.02-.11-.04-.15-.05-.14-.02-.28-.05-.41-.09-.05,0-.09-.01-.12-.01-.16,0-.35-.02-.61-.07h-13.36c-.06,0-.12,0-.18.02-.11.02-.27.05-.48.1l-.11.03h-.04l-.95.26-2.03,1.27c-.13.14-.18.2-.2.22l-.27.36c-.11.14-.21.27-.32.4-.04.04-.05.07-.05.08-.07.16-.15.33-.24.48l-.22.38c-.03.19-.09.38-.16.56-.05.13-.1.25-.15.37-.02.04-.03.08-.04.12,0,.06-.02.13-.02.18,0,.16-.02.36-.06.62v7.7l.06.07v1.8l.27.82.96,1.65s.04.04.06.06c.1.1.19.18.28.26.11.09.22.18.33.26.13.1.25.2.38.3.09.07.17.13.24.18.11.07.21.13.32.19.08.05.15.09.23.12.1.04.2.08.31.12.14.05.27.1.4.15.05.02.11.04.15.05.19.03.37.09.56.16.15,0,.33.02.58.06h19.13v-2.95h-19.7v-5.22h19.7ZM95.38,33.96v.97h-18.07c-.17-.03-.32-.05-.45-.06-.18-.07-.37-.12-.56-.15-.14-.06-.28-.11-.43-.16-.1-.04-.18-.07-.27-.1-.03-.01-.07-.03-.1-.05-.11-.06-.2-.12-.3-.18-.05-.03-.09-.07-.14-.11-.14-.11-.27-.22-.41-.32-.1-.08-.2-.16-.3-.24-.06-.05-.13-.11-.19-.17l-.84-1.45-.19-.57v-2.05l-.06-.06v-7.22c.04-.26.06-.48.06-.68.05-.11.09-.21.14-.32.08-.19.14-.39.18-.58l.14-.24c.09-.15.17-.31.25-.48.1-.12.2-.25.3-.38l.27-.36s.02-.03.05-.05l1.8-1.13.68-.19h.02l.22-.05c.19-.04.33-.08.42-.09h13.3c.25.04.44.06.62.06.13.03.26.06.39.08.18.07.37.14.57.18.16.09.32.17.49.23,0,0,.03.01.05.03.06.04.13.08.19.14.15.12.32.23.48.34.07.05.14.1.22.15l1.17,1.84v.02c.04.09.07.15.08.18.02.1.04.21.08.36h0s.03.18.03.18c.02.12.03.18.03.22,0,.25.03.49.09.74v4.5h-19.7v7.2h19.7ZM92.76,18.5h-17.07v7.12h17.07v-7.12ZM91.77,24.63h-15.1v-5.14h15.1v5.14ZM75.68,18.5v7.12h17.07v-7.12h-17.07ZM91.77,24.63h-15.1v-5.14h15.1v5.14ZM75.68,18.5v7.12h17.07v-7.12h-17.07ZM91.77,24.63h-15.1v-5.14h15.1v5.14ZM75.68,18.5v7.12h17.07v-7.12h-17.07ZM91.77,24.63h-15.1v-5.14h15.1v5.14ZM75.68,18.5v7.12h17.07v-7.12h-17.07ZM91.77,24.63h-15.1v-5.14h15.1v5.14ZM75.68,18.5v7.12h17.07v-7.12h-17.07ZM91.77,24.63h-15.1v-5.14h15.1v5.14ZM75.68,18.5v7.12h17.07v-7.12h-17.07ZM91.77,24.63h-15.1v-5.14h15.1v5.14ZM75.68,18.5v7.12h17.07v-7.12h-17.07ZM91.77,24.63h-15.1v-5.14h15.1v5.14ZM75.68,18.5v7.12h17.07v-7.12h-17.07ZM91.77,24.63h-15.1v-5.14h15.1v5.14ZM75.68,18.5v7.12h17.07v-7.12h-17.07ZM91.77,24.63h-15.1v-5.14h15.1v5.14ZM75.68,18.5v7.12h17.07v-7.12h-17.07ZM91.77,24.63h-15.1v-5.14h15.1v5.14ZM75.68,18.5v7.12h17.07v-7.12h-17.07ZM91.77,24.63h-15.1v-5.14h15.1v5.14ZM75.68,18.5v7.12h17.07v-7.12h-17.07ZM91.77,24.63h-15.1v-5.14h15.1v5.14ZM75.68,18.5v7.12h17.07v-7.12h-17.07ZM91.77,24.63h-15.1v-5.14h15.1v5.14ZM75.68,18.5v7.12h17.07v-7.12h-17.07ZM91.77,24.63h-15.1v-5.14h15.1v5.14ZM75.68,18.5v7.12h17.07v-7.12h-17.07ZM91.77,24.63h-15.1v-5.14h15.1v5.14ZM75.68,18.5v7.12h17.07v-7.12h-17.07ZM91.77,24.63h-15.1v-5.14h15.1v5.14ZM75.68,18.5v7.12h17.07v-7.12h-17.07ZM91.77,24.63h-15.1v-5.14h15.1v5.14ZM75.68,18.5v7.12h17.07v-7.12h-17.07ZM91.77,24.63h-15.1v-5.14h15.1v5.14ZM75.68,18.5v7.12h17.07v-7.12h-17.07ZM91.77,24.63h-15.1v-5.14h15.1v5.14ZM75.68,18.5v7.12h17.07v-7.12h-17.07ZM91.77,24.63h-15.1v-5.14h15.1v5.14ZM75.68,18.5v7.12h17.07v-7.12h-17.07ZM91.77,24.63h-15.1v-5.14h15.1v5.14ZM75.68,18.5v7.12h17.07v-7.12h-17.07ZM91.77,24.63h-15.1v-5.14h15.1v5.14ZM75.68,18.5v7.12h17.07v-7.12h-17.07ZM91.77,24.63h-15.1v-5.14h15.1v5.14ZM75.68,18.5v7.12h17.07v-7.12h-17.07ZM91.77,24.63h-15.1v-5.14h15.1v5.14ZM75.68,18.5v7.12h17.07v-7.12h-17.07ZM91.77,24.63h-15.1v-5.14h15.1v5.14ZM75.68,18.5v7.12h17.07v-7.12h-17.07ZM91.77,24.63h-15.1v-5.14h15.1v5.14ZM75.68,18.5v7.12h17.07v-7.12h-17.07ZM91.77,24.63h-15.1v-5.14h15.1v5.14ZM75.68,18.5v7.12h17.07v-7.12h-17.07ZM91.77,24.63h-15.1v-5.14h15.1v5.14Z" style="fill: #fff; opacity: .13;"/>
        <path d="M75.68,18.5v7.12h17.07v-7.12h-17.07ZM91.77,24.63h-15.1v-5.14h15.1v5.14ZM75.68,18.5v7.12h17.07v-7.12h-17.07ZM91.77,24.63h-15.1v-5.14h15.1v5.14ZM75.68,18.5v7.12h17.07v-7.12h-17.07ZM91.77,24.63h-15.1v-5.14h15.1v5.14ZM75.68,18.5v7.12h17.07v-7.12h-17.07ZM91.77,24.63h-15.1v-5.14h15.1v5.14ZM75.68,18.5v7.12h17.07v-7.12h-17.07ZM91.77,24.63h-15.1v-5.14h15.1v5.14ZM75.68,18.5v7.12h17.07v-7.12h-17.07ZM91.77,24.63h-15.1v-5.14h15.1v5.14ZM75.68,18.5v7.12h17.07v-7.12h-17.07ZM91.77,24.63h-15.1v-5.14h15.1v5.14ZM75.68,18.5v7.12h17.07v-7.12h-17.07ZM91.77,24.63h-15.1v-5.14h15.1v5.14ZM75.68,18.5v7.12h17.07v-7.12h-17.07ZM91.77,24.63h-15.1v-5.14h15.1v5.14ZM75.68,18.5v7.12h17.07v-7.12h-17.07ZM91.77,24.63h-15.1v-5.14h15.1v5.14ZM75.68,18.5v7.12h17.07v-7.12h-17.07ZM91.77,24.63h-15.1v-5.14h15.1v5.14ZM75.68,18.5v7.12h17.07v-7.12h-17.07ZM91.77,24.63h-15.1v-5.14h15.1v5.14ZM75.68,18.5v7.12h17.07v-7.12h-17.07ZM91.77,24.63h-15.1v-5.14h15.1v5.14ZM75.68,18.5v7.12h17.07v-7.12h-17.07ZM91.77,24.63h-15.1v-5.14h15.1v5.14ZM75.68,18.5v7.12h17.07v-7.12h-17.07ZM91.77,24.63h-15.1v-5.14h15.1v5.14ZM75.68,18.5v7.12h17.07v-7.12h-17.07ZM91.77,24.63h-15.1v-5.14h15.1v5.14ZM75.68,18.5v7.12h17.07v-7.12h-17.07ZM91.77,24.63h-15.1v-5.14h15.1v5.14ZM75.68,18.5v7.12h17.07v-7.12h-17.07ZM91.77,24.63h-15.1v-5.14h15.1v5.14ZM75.68,18.5v7.12h17.07v-7.12h-17.07ZM91.77,24.63h-15.1v-5.14h15.1v5.14ZM75.68,18.5v7.12h17.07v-7.12h-17.07ZM91.77,24.63h-15.1v-5.14h15.1v5.14ZM75.68,18.5v7.12h17.07v-7.12h-17.07ZM91.77,24.63h-15.1v-5.14h15.1v5.14ZM75.68,18.5v7.12h17.07v-7.12h-17.07ZM91.77,24.63h-15.1v-5.14h15.1v5.14ZM75.68,18.5v7.12h17.07v-7.12h-17.07ZM91.77,24.63h-15.1v-5.14h15.1v5.14ZM75.68,18.5v7.12h17.07v-7.12h-17.07ZM91.77,24.63h-15.1v-5.14h15.1v5.14ZM75.68,18.5v7.12h17.07v-7.12h-17.07ZM91.77,24.63h-15.1v-5.14h15.1v5.14ZM75.68,18.5v7.12h17.07v-7.12h-17.07ZM91.77,24.63h-15.1v-5.14h15.1v5.14ZM75.68,18.5v7.12h17.07v-7.12h-17.07ZM91.77,24.63h-15.1v-5.14h15.1v5.14ZM75.68,18.5v7.12h17.07v-7.12h-17.07ZM91.77,24.63h-15.1v-5.14h15.1v5.14ZM75.68,18.5v7.12h17.07v-7.12h-17.07ZM91.77,24.63h-15.1v-5.14h15.1v5.14ZM75.68,18.5v7.12h17.07v-7.12h-17.07ZM91.77,24.63h-15.1v-5.14h15.1v5.14ZM96.37,27.75v-5.54s0-.09-.02-.13c-.05-.19-.07-.39-.07-.58,0,0,0-.1-.05-.36l-.02-.09v-.04c-.05-.21-.08-.37-.1-.47,0,0-.02-.09-.12-.33l-.04-.1-1.28-2.03c-.09-.08-.14-.12-.15-.14-.1-.08-.2-.14-.29-.21-.14-.09-.28-.19-.42-.3-.09-.07-.18-.14-.27-.19-.07-.04-.13-.08-.2-.1-.16-.07-.33-.14-.48-.24-.02-.01-.03-.02-.03-.02-.19-.03-.38-.09-.56-.16-.05-.02-.11-.04-.15-.05-.14-.02-.28-.05-.41-.09-.05,0-.09-.01-.12-.01-.16,0-.35-.02-.61-.07h-13.36c-.06,0-.12,0-.18.02-.11.02-.27.05-.48.1l-.11.03h-.04l-.95.26-2.03,1.27c-.13.14-.18.2-.2.22l-.27.36c-.11.14-.21.27-.32.4-.04.04-.05.07-.05.08-.07.16-.15.33-.24.48l-.22.38c-.03.19-.09.38-.16.56-.05.13-.1.25-.15.37-.02.04-.03.08-.04.12,0,.06-.02.13-.02.18,0,.16-.02.36-.06.62v7.7l.06.07v1.8l.27.82.96,1.65s.04.04.06.06c.1.1.19.18.28.26.11.09.22.18.33.26.13.1.25.2.38.3.09.07.17.13.24.18.11.07.21.13.32.19.08.05.15.09.23.12.1.04.2.08.31.12.14.05.27.1.4.15.05.02.11.04.15.05.19.03.37.09.56.16.15,0,.33.02.58.06h19.13v-2.95h-19.7v-5.22h19.7ZM95.38,33.96v.97h-18.07c-.17-.03-.32-.05-.45-.06-.18-.07-.37-.12-.56-.15-.14-.06-.28-.11-.43-.16-.1-.04-.18-.07-.27-.1-.03-.01-.07-.03-.1-.05-.11-.06-.2-.12-.3-.18-.05-.03-.09-.07-.14-.11-.14-.11-.27-.22-.41-.32-.1-.08-.2-.16-.3-.24-.06-.05-.13-.11-.19-.17l-.84-1.45-.19-.57v-2.05l-.06-.06v-7.22c.04-.26.06-.48.06-.68.05-.11.09-.21.14-.32.08-.19.14-.39.18-.58l.14-.24c.09-.15.17-.31.25-.48.1-.12.2-.25.3-.38l.27-.36s.02-.03.05-.05l1.8-1.13.68-.19h.02l.22-.05c.19-.04.33-.08.42-.09h13.3c.25.04.44.06.62.06.13.03.26.06.39.08.18.07.37.14.57.18.16.09.32.17.49.23,0,0,.03.01.05.03.06.04.13.08.19.14.15.12.32.23.48.34.07.05.14.1.22.15l1.17,1.84v.02c.04.09.07.15.08.18.02.1.04.21.08.36h0s.03.18.03.18c.02.12.03.18.03.22,0,.25.03.49.09.74v4.5h-19.7v7.2h19.7ZM92.76,18.5h-17.07v7.12h17.07v-7.12ZM91.77,24.63h-15.1v-5.14h15.1v5.14ZM75.68,18.5v7.12h17.07v-7.12h-17.07ZM91.77,24.63h-15.1v-5.14h15.1v5.14ZM75.68,18.5v7.12h17.07v-7.12h-17.07ZM91.77,24.63h-15.1v-5.14h15.1v5.14ZM75.68,18.5v7.12h17.07v-7.12h-17.07ZM91.77,24.63h-15.1v-5.14h15.1v5.14ZM75.68,18.5v7.12h17.07v-7.12h-17.07ZM91.77,24.63h-15.1v-5.14h15.1v5.14ZM75.68,18.5v7.12h17.07v-7.12h-17.07ZM91.77,24.63h-15.1v-5.14h15.1v5.14ZM75.68,18.5v7.12h17.07v-7.12h-17.07ZM91.77,24.63h-15.1v-5.14h15.1v5.14ZM75.68,18.5v7.12h17.07v-7.12h-17.07ZM91.77,24.63h-15.1v-5.14h15.1v5.14ZM75.68,18.5v7.12h17.07v-7.12h-17.07ZM91.77,24.63h-15.1v-5.14h15.1v5.14ZM75.68,18.5v7.12h17.07v-7.12h-17.07ZM91.77,24.63h-15.1v-5.14h15.1v5.14ZM75.68,18.5v7.12h17.07v-7.12h-17.07ZM91.77,24.63h-15.1v-5.14h15.1v5.14ZM75.68,18.5v7.12h17.07v-7.12h-17.07ZM91.77,24.63h-15.1v-5.14h15.1v5.14ZM75.68,18.5v7.12h17.07v-7.12h-17.07ZM91.77,24.63h-15.1v-5.14h15.1v5.14ZM75.68,18.5v7.12h17.07v-7.12h-17.07ZM91.77,24.63h-15.1v-5.14h15.1v5.14ZM75.68,18.5v7.12h17.07v-7.12h-17.07ZM91.77,24.63h-15.1v-5.14h15.1v5.14ZM75.68,18.5v7.12h17.07v-7.12h-17.07ZM91.77,24.63h-15.1v-5.14h15.1v5.14ZM75.68,18.5v7.12h17.07v-7.12h-17.07ZM91.77,24.63h-15.1v-5.14h15.1v5.14ZM75.68,18.5v7.12h17.07v-7.12h-17.07ZM91.77,24.63h-15.1v-5.14h15.1v5.14ZM75.68,18.5v7.12h17.07v-7.12h-17.07ZM91.77,24.63h-15.1v-5.14h15.1v5.14ZM75.68,18.5v7.12h17.07v-7.12h-17.07ZM91.77,24.63h-15.1v-5.14h15.1v5.14ZM75.68,18.5v7.12h17.07v-7.12h-17.07ZM91.77,24.63h-15.1v-5.14h15.1v5.14ZM75.68,18.5v7.12h17.07v-7.12h-17.07ZM91.77,24.63h-15.1v-5.14h15.1v5.14ZM75.68,18.5v7.12h17.07v-7.12h-17.07ZM91.77,24.63h-15.1v-5.14h15.1v5.14ZM75.68,18.5v7.12h17.07v-7.12h-17.07ZM91.77,24.63h-15.1v-5.14h15.1v5.14ZM75.68,18.5v7.12h17.07v-7.12h-17.07ZM91.77,24.63h-15.1v-5.14h15.1v5.14ZM75.68,18.5v7.12h17.07v-7.12h-17.07ZM91.77,24.63h-15.1v-5.14h15.1v5.14ZM75.68,18.5v7.12h17.07v-7.12h-17.07ZM91.77,24.63h-15.1v-5.14h15.1v5.14ZM75.68,18.5v7.12h17.07v-7.12h-17.07ZM91.77,24.63h-15.1v-5.14h15.1v5.14ZM75.68,18.5v7.12h17.07v-7.12h-17.07ZM91.77,24.63h-15.1v-5.14h15.1v5.14Z" style="fill: #fff; opacity: .13;"/>
        <path d="M103.77,26.72v7.1h17.2v-7.1h-17.2ZM119.98,32.83h-15.22v-5.12h15.22v5.12ZM103.77,26.72v7.1h17.2v-7.1h-17.2ZM119.98,32.83h-15.22v-5.12h15.22v5.12ZM103.77,26.72v7.1h17.2v-7.1h-17.2ZM119.98,32.83h-15.22v-5.12h15.22v5.12ZM103.77,26.72v7.1h17.2v-7.1h-17.2ZM119.98,32.83h-15.22v-5.12h15.22v5.12ZM103.77,26.72v7.1h17.2v-7.1h-17.2ZM119.98,32.83h-15.22v-5.12h15.22v5.12ZM103.77,26.72v7.1h17.2v-7.1h-17.2ZM119.98,32.83h-15.22v-5.12h15.22v5.12ZM103.77,26.72v7.1h17.2v-7.1h-17.2ZM119.98,32.83h-15.22v-5.12h15.22v5.12ZM103.77,26.72v7.1h17.2v-7.1h-17.2ZM119.98,32.83h-15.22v-5.12h15.22v5.12ZM103.77,26.72v7.1h17.2v-7.1h-17.2ZM119.98,32.83h-15.22v-5.12h15.22v5.12ZM103.77,26.72v7.1h17.2v-7.1h-17.2ZM119.98,32.83h-15.22v-5.12h15.22v5.12ZM103.77,26.72v7.1h17.2v-7.1h-17.2ZM119.98,32.83h-15.22v-5.12h15.22v5.12ZM103.77,26.72v7.1h17.2v-7.1h-17.2ZM119.98,32.83h-15.22v-5.12h15.22v5.12ZM103.77,26.72v7.1h17.2v-7.1h-17.2ZM119.98,32.83h-15.22v-5.12h15.22v5.12ZM103.77,26.72v7.1h17.2v-7.1h-17.2ZM119.98,32.83h-15.22v-5.12h15.22v5.12ZM103.77,26.72v7.1h17.2v-7.1h-17.2ZM119.98,32.83h-15.22v-5.12h15.22v5.12ZM103.77,26.72v7.1h17.2v-7.1h-17.2ZM119.98,32.83h-15.22v-5.12h15.22v5.12ZM103.77,26.72v7.1h17.2v-7.1h-17.2ZM119.98,32.83h-15.22v-5.12h15.22v5.12ZM103.77,26.72v7.1h17.2v-7.1h-17.2ZM119.98,32.83h-15.22v-5.12h15.22v5.12ZM103.77,26.72v7.1h17.2v-7.1h-17.2ZM119.98,32.83h-15.22v-5.12h15.22v5.12ZM103.77,26.72v7.1h17.2v-7.1h-17.2ZM119.98,32.83h-15.22v-5.12h15.22v5.12ZM124.44,22v-1.27c-.03-.08-.08-.19-.13-.31l-1.15-1.96-.07-.08c-.12-.11-.23-.22-.34-.31-.12-.1-.24-.2-.37-.29-.15-.11-.29-.22-.43-.33-.08-.06-.14-.09-.16-.11-.18-.08-.37-.17-.55-.29-.07-.04-.14-.08-.2-.1-.16-.06-.32-.12-.47-.18-.08-.03-.15-.06-.21-.07l-.4-.09c-.12-.02-.29-.06-.51-.11h-19.24v3.03h19.79v5.2h-14.14l-.08.08h-.79c-.22.05-.39.08-.51.11-.04,0-.17.04-.46.15l-.1.04-2.09,1.33c-.1.1-.15.17-.19.22l-.33.41c-.08.1-.15.19-.2.28-.05.1-.1.19-.14.29-.08.18-.17.37-.28.54-.01.02-.02.03-.02.03-.03.22-.1.43-.18.64-.03.08-.05.14-.07.22l-.08.4c-.01.07-.02.14-.02.21,0,.22-.05.46-.14.76,0,.05,0,.1.01.14.02.12.05.29.1.51l.35,1.2,1.18,1.89s.09.08.13.11c.13.11.25.21.38.31.13.1.25.2.39.3.07.06.14.1.2.12.18.08.37.17.54.28.08.05.15.09.22.11.14.05.28.11.43.16.09.04.17.06.25.08l.8.17c.11.02.27.05.49.09h18.93v-13.84l-.08-.09ZM123.53,34.94h-17.87c-.15-.03-.27-.05-.36-.06l-.8-.17s-.04-.01-.09-.03c-.15-.06-.3-.12-.45-.17-.02,0-.03-.01-.04-.02-.21-.14-.43-.25-.66-.35-.14-.11-.26-.2-.38-.29-.13-.1-.24-.19-.36-.29h-.01s-1.02-1.65-1.02-1.65l-.3-1.03c-.03-.13-.05-.24-.07-.33.08-.3.13-.58.13-.84l.08-.4s0-.02.01-.04c.09-.22.16-.45.21-.68.11-.18.19-.36.27-.54.02-.05.05-.11.09-.17.02-.03.05-.09.12-.16l.33-.42s.03-.04.06-.07l1.89-1.2c.24-.09.32-.11.33-.11.1-.02.24-.05.41-.09h1.1l.08-.08h14.72v-7.18h-19.79v-1.06h18.16c.18.04.31.07.41.09l.4.08s.02,0,.04.01c.17.07.34.14.52.2.21.14.43.25.64.34.14.12.29.22.44.34.11.08.22.17.32.26.08.07.17.15.26.24l1.05,1.8s.02.04.03.06v1.48l.08.09v12.44ZM103.77,33.82h17.2v-7.1h-17.2v7.1ZM104.76,27.71h15.22v5.12h-15.22v-5.12ZM103.77,26.72v7.1h17.2v-7.1h-17.2ZM119.98,32.83h-15.22v-5.12h15.22v5.12ZM103.77,26.72v7.1h17.2v-7.1h-17.2ZM119.98,32.83h-15.22v-5.12h15.22v5.12ZM103.77,26.72v7.1h17.2v-7.1h-17.2ZM119.98,32.83h-15.22v-5.12h15.22v5.12ZM103.77,26.72v7.1h17.2v-7.1h-17.2ZM119.98,32.83h-15.22v-5.12h15.22v5.12ZM103.77,26.72v7.1h17.2v-7.1h-17.2ZM119.98,32.83h-15.22v-5.12h15.22v5.12ZM103.77,26.72v7.1h17.2v-7.1h-17.2ZM119.98,32.83h-15.22v-5.12h15.22v5.12ZM103.77,26.72v7.1h17.2v-7.1h-17.2ZM119.98,32.83h-15.22v-5.12h15.22v5.12ZM103.77,26.72v7.1h17.2v-7.1h-17.2ZM119.98,32.83h-15.22v-5.12h15.22v5.12ZM103.77,26.72v7.1h17.2v-7.1h-17.2ZM119.98,32.83h-15.22v-5.12h15.22v5.12ZM103.77,26.72v7.1h17.2v-7.1h-17.2ZM119.98,32.83h-15.22v-5.12h15.22v5.12ZM103.77,26.72v7.1h17.2v-7.1h-17.2ZM119.98,32.83h-15.22v-5.12h15.22v5.12ZM103.77,26.72v7.1h17.2v-7.1h-17.2ZM119.98,32.83h-15.22v-5.12h15.22v5.12ZM103.77,26.72v7.1h17.2v-7.1h-17.2ZM119.98,32.83h-15.22v-5.12h15.22v5.12ZM103.77,26.72v7.1h17.2v-7.1h-17.2ZM119.98,32.83h-15.22v-5.12h15.22v5.12ZM103.77,26.72v7.1h17.2v-7.1h-17.2ZM119.98,32.83h-15.22v-5.12h15.22v5.12ZM103.77,26.72v7.1h17.2v-7.1h-17.2ZM119.98,32.83h-15.22v-5.12h15.22v5.12ZM103.77,26.72v7.1h17.2v-7.1h-17.2ZM119.98,32.83h-15.22v-5.12h15.22v5.12ZM103.77,26.72v7.1h17.2v-7.1h-17.2ZM119.98,32.83h-15.22v-5.12h15.22v5.12ZM103.77,26.72v7.1h17.2v-7.1h-17.2ZM119.98,32.83h-15.22v-5.12h15.22v5.12ZM103.77,26.72v7.1h17.2v-7.1h-17.2ZM119.98,32.83h-15.22v-5.12h15.22v5.12Z" style="fill: #fff; opacity: .13;"/>
        <path d="M103.77,26.72v7.1h17.2v-7.1h-17.2ZM119.98,32.83h-15.22v-5.12h15.22v5.12ZM103.77,26.72v7.1h17.2v-7.1h-17.2ZM119.98,32.83h-15.22v-5.12h15.22v5.12ZM103.77,26.72v7.1h17.2v-7.1h-17.2ZM119.98,32.83h-15.22v-5.12h15.22v5.12ZM103.77,26.72v7.1h17.2v-7.1h-17.2ZM119.98,32.83h-15.22v-5.12h15.22v5.12ZM103.77,26.72v7.1h17.2v-7.1h-17.2ZM119.98,32.83h-15.22v-5.12h15.22v5.12ZM103.77,26.72v7.1h17.2v-7.1h-17.2ZM119.98,32.83h-15.22v-5.12h15.22v5.12ZM103.77,26.72v7.1h17.2v-7.1h-17.2ZM119.98,32.83h-15.22v-5.12h15.22v5.12ZM103.77,26.72v7.1h17.2v-7.1h-17.2ZM119.98,32.83h-15.22v-5.12h15.22v5.12ZM103.77,26.72v7.1h17.2v-7.1h-17.2ZM119.98,32.83h-15.22v-5.12h15.22v5.12ZM103.77,26.72v7.1h17.2v-7.1h-17.2ZM119.98,32.83h-15.22v-5.12h15.22v5.12ZM103.77,26.72v7.1h17.2v-7.1h-17.2ZM119.98,32.83h-15.22v-5.12h15.22v5.12ZM103.77,26.72v7.1h17.2v-7.1h-17.2ZM119.98,32.83h-15.22v-5.12h15.22v5.12ZM103.77,26.72v7.1h17.2v-7.1h-17.2ZM119.98,32.83h-15.22v-5.12h15.22v5.12ZM103.77,26.72v7.1h17.2v-7.1h-17.2ZM119.98,32.83h-15.22v-5.12h15.22v5.12ZM103.77,26.72v7.1h17.2v-7.1h-17.2ZM119.98,32.83h-15.22v-5.12h15.22v5.12ZM103.77,26.72v7.1h17.2v-7.1h-17.2ZM119.98,32.83h-15.22v-5.12h15.22v5.12ZM103.77,26.72v7.1h17.2v-7.1h-17.2ZM119.98,32.83h-15.22v-5.12h15.22v5.12ZM103.77,26.72v7.1h17.2v-7.1h-17.2ZM119.98,32.83h-15.22v-5.12h15.22v5.12ZM103.77,26.72v7.1h17.2v-7.1h-17.2ZM119.98,32.83h-15.22v-5.12h15.22v5.12ZM103.77,26.72v7.1h17.2v-7.1h-17.2ZM119.98,32.83h-15.22v-5.12h15.22v5.12ZM124.44,22v-1.27c-.03-.08-.08-.19-.13-.31l-1.15-1.96-.07-.08c-.12-.11-.23-.22-.34-.31-.12-.1-.24-.2-.37-.29-.15-.11-.29-.22-.43-.33-.08-.06-.14-.09-.16-.11-.18-.08-.37-.17-.55-.29-.07-.04-.14-.08-.2-.1-.16-.06-.32-.12-.47-.18-.08-.03-.15-.06-.21-.07l-.4-.09c-.12-.02-.29-.06-.51-.11h-19.24v3.03h19.79v5.2h-14.14l-.08.08h-.79c-.22.05-.39.08-.51.11-.04,0-.17.04-.46.15l-.1.04-2.09,1.33c-.1.1-.15.17-.19.22l-.33.41c-.08.1-.15.19-.2.28-.05.1-.1.19-.14.29-.08.18-.17.37-.28.54-.01.02-.02.03-.02.03-.03.22-.1.43-.18.64-.03.08-.05.14-.07.22l-.08.4c-.01.07-.02.14-.02.21,0,.22-.05.46-.14.76,0,.05,0,.1.01.14.02.12.05.29.1.51l.35,1.2,1.18,1.89s.09.08.13.11c.13.11.25.21.38.31.13.1.25.2.39.3.07.06.14.1.2.12.18.08.37.17.54.28.08.05.15.09.22.11.14.05.28.11.43.16.09.04.17.06.25.08l.8.17c.11.02.27.05.49.09h18.93v-13.84l-.08-.09ZM123.53,34.94h-17.87c-.15-.03-.27-.05-.36-.06l-.8-.17s-.04-.01-.09-.03c-.15-.06-.3-.12-.45-.17-.02,0-.03-.01-.04-.02-.21-.14-.43-.25-.66-.35-.14-.11-.26-.2-.38-.29-.13-.1-.24-.19-.36-.29h-.01s-1.02-1.65-1.02-1.65l-.3-1.03c-.03-.13-.05-.24-.07-.33.08-.3.13-.58.13-.84l.08-.4s0-.02.01-.04c.09-.22.16-.45.21-.68.11-.18.19-.36.27-.54.02-.05.05-.11.09-.17.02-.03.05-.09.12-.16l.33-.42s.03-.04.06-.07l1.89-1.2c.24-.09.32-.11.33-.11.1-.02.24-.05.41-.09h1.1l.08-.08h14.72v-7.18h-19.79v-1.06h18.16c.18.04.31.07.41.09l.4.08s.02,0,.04.01c.17.07.34.14.52.2.21.14.43.25.64.34.14.12.29.22.44.34.11.08.22.17.32.26.08.07.17.15.26.24l1.05,1.8s.02.04.03.06v1.48l.08.09v12.44ZM103.77,33.82h17.2v-7.1h-17.2v7.1ZM104.76,27.71h15.22v5.12h-15.22v-5.12ZM103.77,26.72v7.1h17.2v-7.1h-17.2ZM119.98,32.83h-15.22v-5.12h15.22v5.12ZM103.77,26.72v7.1h17.2v-7.1h-17.2ZM119.98,32.83h-15.22v-5.12h15.22v5.12ZM103.77,26.72v7.1h17.2v-7.1h-17.2ZM119.98,32.83h-15.22v-5.12h15.22v5.12ZM103.77,26.72v7.1h17.2v-7.1h-17.2ZM119.98,32.83h-15.22v-5.12h15.22v5.12ZM103.77,26.72v7.1h17.2v-7.1h-17.2ZM119.98,32.83h-15.22v-5.12h15.22v5.12ZM103.77,26.72v7.1h17.2v-7.1h-17.2ZM119.98,32.83h-15.22v-5.12h15.22v5.12ZM103.77,26.72v7.1h17.2v-7.1h-17.2ZM119.98,32.83h-15.22v-5.12h15.22v5.12ZM103.77,26.72v7.1h17.2v-7.1h-17.2ZM119.98,32.83h-15.22v-5.12h15.22v5.12ZM103.77,26.72v7.1h17.2v-7.1h-17.2ZM119.98,32.83h-15.22v-5.12h15.22v5.12ZM103.77,26.72v7.1h17.2v-7.1h-17.2ZM119.98,32.83h-15.22v-5.12h15.22v5.12ZM103.77,26.72v7.1h17.2v-7.1h-17.2ZM119.98,32.83h-15.22v-5.12h15.22v5.12ZM103.77,26.72v7.1h17.2v-7.1h-17.2ZM119.98,32.83h-15.22v-5.12h15.22v5.12ZM103.77,26.72v7.1h17.2v-7.1h-17.2ZM119.98,32.83h-15.22v-5.12h15.22v5.12ZM103.77,26.72v7.1h17.2v-7.1h-17.2ZM119.98,32.83h-15.22v-5.12h15.22v5.12ZM103.77,26.72v7.1h17.2v-7.1h-17.2ZM119.98,32.83h-15.22v-5.12h15.22v5.12ZM103.77,26.72v7.1h17.2v-7.1h-17.2ZM119.98,32.83h-15.22v-5.12h15.22v5.12ZM103.77,26.72v7.1h17.2v-7.1h-17.2ZM119.98,32.83h-15.22v-5.12h15.22v5.12ZM103.77,26.72v7.1h17.2v-7.1h-17.2ZM119.98,32.83h-15.22v-5.12h15.22v5.12ZM103.77,26.72v7.1h17.2v-7.1h-17.2ZM119.98,32.83h-15.22v-5.12h15.22v5.12ZM103.77,26.72v7.1h17.2v-7.1h-17.2ZM119.98,32.83h-15.22v-5.12h15.22v5.12Z" style="fill: #fff; opacity: .13;"/>
        <path d="M128.34,16.5v4.62h9.91v14.8h4.58v-14.8h9.91v-4.62h-24.41ZM151.77,20.14h-9.91v14.8h-2.61v-14.8h-9.91v-2.65h22.43v2.65Z" style="fill: #fff; opacity: .13;"/>
        <path d="M128.34,16.5v4.62h9.91v14.8h4.58v-14.8h9.91v-4.62h-24.41ZM151.77,20.14h-9.91v14.8h-2.61v-14.8h-9.91v-2.65h22.43v2.65Z" style="fill: #fff; opacity: .13;"/>
        <path d="M176.42,16.5v14.8h-15.18v-14.8h-4.65v14.03s0,.07,0,.1c.04.16.05.34.05.49,0,0,0,.07.04.27l.02.1v.12l.22.64,1.3,2.08c.07.07.11.1.14.12l.6.48c.07.05.14.1.2.14.07.04.13.07.19.1.14.06.27.13.42.21.05.03.1.05.13.06.11.04.22.08.34.13.06.02.11.04.14.05.16.04.33.09.48.15.03.01.07.03.11.03.11.02.22.04.32.07.03,0,.07,0,.1,0,.14,0,.31.01.52.04h19.15v-19.42h-4.65ZM180.08,34.94h-18.1c-.2-.03-.37-.04-.53-.04-.07-.02-.15-.03-.23-.05-.2-.08-.4-.14-.59-.18-.13-.05-.24-.09-.34-.13-.19-.11-.36-.2-.52-.27-.03,0-.05-.02-.07-.04-.03-.02-.07-.05-.11-.07l-.59-.46-1.16-1.86-.13-.38v-.05l-.04-.19c-.01-.07-.02-.11-.02-.14,0-.19-.03-.39-.06-.58v-12.99h2.67v14.8h17.15v-14.8h2.67v17.45Z" style="fill: #fff; opacity: .13;"/>
        <path d="M176.42,16.5v14.8h-15.18v-14.8h-4.65v14.03s0,.07,0,.1c.04.16.05.34.05.49,0,0,0,.07.04.27l.02.1v.12l.22.64,1.3,2.08c.07.07.11.1.14.12l.6.48c.07.05.14.1.2.14.07.04.13.07.19.1.14.06.27.13.42.21.05.03.1.05.13.06.11.04.22.08.34.13.06.02.11.04.14.05.16.04.33.09.48.15.03.01.07.03.11.03.11.02.22.04.32.07.03,0,.07,0,.1,0,.14,0,.31.01.52.04h19.15v-19.42h-4.65ZM180.08,34.94h-18.1c-.2-.03-.37-.04-.53-.04-.07-.02-.15-.03-.23-.05-.2-.08-.4-.14-.59-.18-.13-.05-.24-.09-.34-.13-.19-.11-.36-.2-.52-.27-.03,0-.05-.02-.07-.04-.03-.02-.07-.05-.11-.07l-.59-.46-1.16-1.86-.13-.38v-.05l-.04-.19c-.01-.07-.02-.11-.02-.14,0-.19-.03-.39-.06-.58v-12.99h2.67v14.8h17.15v-14.8h2.67v17.45Z" style="fill: #fff; opacity: .13;"/>
        <path d="M188.58,18.46v7.22h17.18v-7.22h-17.18ZM204.77,24.7h-15.2v-5.25h15.2v5.25ZM188.58,18.46v7.22h17.18v-7.22h-17.18ZM204.77,24.7h-15.2v-5.25h15.2v5.25ZM188.58,18.46v7.22h17.18v-7.22h-17.18ZM204.77,24.7h-15.2v-5.25h15.2v5.25ZM188.58,18.46v7.22h17.18v-7.22h-17.18ZM204.77,24.7h-15.2v-5.25h15.2v5.25ZM188.58,18.46v7.22h17.18v-7.22h-17.18ZM204.77,24.7h-15.2v-5.25h15.2v5.25ZM188.58,18.46v7.22h17.18v-7.22h-17.18ZM204.77,24.7h-15.2v-5.25h15.2v5.25ZM188.58,18.46v7.22h17.18v-7.22h-17.18ZM204.77,24.7h-15.2v-5.25h15.2v5.25ZM188.58,18.46v7.22h17.18v-7.22h-17.18ZM204.77,24.7h-15.2v-5.25h15.2v5.25ZM188.58,18.46v7.22h17.18v-7.22h-17.18ZM204.77,24.7h-15.2v-5.25h15.2v5.25ZM188.58,18.46v7.22h17.18v-7.22h-17.18ZM204.77,24.7h-15.2v-5.25h15.2v5.25ZM188.58,18.46v7.22h17.18v-7.22h-17.18ZM204.77,24.7h-15.2v-5.25h15.2v5.25ZM188.58,18.46v7.22h17.18v-7.22h-17.18ZM204.77,24.7h-15.2v-5.25h15.2v5.25ZM188.58,18.46v7.22h17.18v-7.22h-17.18ZM204.77,24.7h-15.2v-5.25h15.2v5.25ZM188.58,18.46v7.22h17.18v-7.22h-17.18ZM204.77,24.7h-15.2v-5.25h15.2v5.25ZM188.58,18.46v7.22h17.18v-7.22h-17.18ZM204.77,24.7h-15.2v-5.25h15.2v5.25ZM188.58,18.46v7.22h17.18v-7.22h-17.18ZM204.77,24.7h-15.2v-5.25h15.2v5.25ZM209.23,27.92l-.03-.08-1.24-1.96,1.14-1.92c.03-.08.04-.13.04-.16.03-.16.08-.35.16-.57v-.09c0-.2.02-.41.07-.59.02-.09.05-.23.08-.41,0-.13-.01-.2-.02-.24-.02-.12-.06-.29-.11-.51l-.02-.11v-.09c-.03-.19-.06-.34-.08-.43,0-.02-.03-.12-.14-.39l-.06-.14-1.26-1.96s-.04-.03-.06-.05c-.14-.12-.28-.25-.44-.4-.1-.1-.19-.18-.28-.25-.09-.07-.17-.12-.25-.17-.15-.08-.29-.16-.42-.25-.06-.04-.13-.07-.19-.1l-.38-.14c-.08-.03-.16-.06-.23-.08-.16-.04-.34-.09-.52-.16-.18,0-.36-.01-.54-.05-.12-.02-.28-.05-.49-.1h-19.02v19.4h4.62v-8.24h15.2v8.24h4.63v-7.3c-.05-.13-.08-.28-.09-.46,0-.03-.03-.1-.08-.24ZM208.41,34.94h-2.65v-8.24h-17.18v8.24h-2.65v-17.43h17.92c.18.04.33.07.43.09.18.03.35.05.52.06.16.06.32.1.47.14.04,0,.07.02.11.04l.38.14c.16.11.33.2.49.3.02,0,.06.03.13.08.06.05.13.11.19.17.15.15.3.29.44.41l1.13,1.75.02.06c.06.14.09.22.1.25,0,.05.03.14.05.28v.11l.05.21c.05.2.08.36.1.45,0,0,0,.02,0,.03-.02.11-.04.19-.05.25-.06.23-.09.48-.09.72-.07.19-.12.37-.14.53l-1.37,2.32,1.51,2.39s0,.03.02.04c.01.15.04.3.08.43v6.17ZM188.58,25.68h17.18v-7.22h-17.18v7.22ZM189.57,19.45h15.2v5.25h-15.2v-5.25ZM188.58,18.46v7.22h17.18v-7.22h-17.18ZM204.77,24.7h-15.2v-5.25h15.2v5.25ZM188.58,18.46v7.22h17.18v-7.22h-17.18ZM204.77,24.7h-15.2v-5.25h15.2v5.25ZM188.58,18.46v7.22h17.18v-7.22h-17.18ZM204.77,24.7h-15.2v-5.25h15.2v5.25ZM188.58,18.46v7.22h17.18v-7.22h-17.18ZM204.77,24.7h-15.2v-5.25h15.2v5.25ZM188.58,18.46v7.22h17.18v-7.22h-17.18ZM204.77,24.7h-15.2v-5.25h15.2v5.25ZM188.58,18.46v7.22h17.18v-7.22h-17.18ZM204.77,24.7h-15.2v-5.25h15.2v5.25ZM188.58,18.46v7.22h17.18v-7.22h-17.18ZM204.77,24.7h-15.2v-5.25h15.2v5.25ZM188.58,18.46v7.22h17.18v-7.22h-17.18ZM204.77,24.7h-15.2v-5.25h15.2v5.25ZM188.58,18.46v7.22h17.18v-7.22h-17.18ZM204.77,24.7h-15.2v-5.25h15.2v5.25ZM188.58,18.46v7.22h17.18v-7.22h-17.18ZM204.77,24.7h-15.2v-5.25h15.2v5.25ZM188.58,18.46v7.22h17.18v-7.22h-17.18ZM204.77,24.7h-15.2v-5.25h15.2v5.25ZM188.58,18.46v7.22h17.18v-7.22h-17.18ZM204.77,24.7h-15.2v-5.25h15.2v5.25ZM188.58,18.46v7.22h17.18v-7.22h-17.18ZM204.77,24.7h-15.2v-5.25h15.2v5.25ZM188.58,18.46v7.22h17.18v-7.22h-17.18ZM204.77,24.7h-15.2v-5.25h15.2v5.25Z" style="fill: #fff; opacity: .13;"/>
        <path d="M188.58,18.46v7.22h17.18v-7.22h-17.18ZM204.77,24.7h-15.2v-5.25h15.2v5.25ZM188.58,18.46v7.22h17.18v-7.22h-17.18ZM204.77,24.7h-15.2v-5.25h15.2v5.25ZM188.58,18.46v7.22h17.18v-7.22h-17.18ZM204.77,24.7h-15.2v-5.25h15.2v5.25ZM188.58,18.46v7.22h17.18v-7.22h-17.18ZM204.77,24.7h-15.2v-5.25h15.2v5.25ZM188.58,18.46v7.22h17.18v-7.22h-17.18ZM204.77,24.7h-15.2v-5.25h15.2v5.25ZM188.58,18.46v7.22h17.18v-7.22h-17.18ZM204.77,24.7h-15.2v-5.25h15.2v5.25ZM188.58,18.46v7.22h17.18v-7.22h-17.18ZM204.77,24.7h-15.2v-5.25h15.2v5.25ZM188.58,18.46v7.22h17.18v-7.22h-17.18ZM204.77,24.7h-15.2v-5.25h15.2v5.25ZM188.58,18.46v7.22h17.18v-7.22h-17.18ZM204.77,24.7h-15.2v-5.25h15.2v5.25ZM188.58,18.46v7.22h17.18v-7.22h-17.18ZM204.77,24.7h-15.2v-5.25h15.2v5.25ZM188.58,18.46v7.22h17.18v-7.22h-17.18ZM204.77,24.7h-15.2v-5.25h15.2v5.25ZM188.58,18.46v7.22h17.18v-7.22h-17.18ZM204.77,24.7h-15.2v-5.25h15.2v5.25ZM188.58,18.46v7.22h17.18v-7.22h-17.18ZM204.77,24.7h-15.2v-5.25h15.2v5.25ZM188.58,18.46v7.22h17.18v-7.22h-17.18ZM204.77,24.7h-15.2v-5.25h15.2v5.25ZM188.58,18.46v7.22h17.18v-7.22h-17.18ZM204.77,24.7h-15.2v-5.25h15.2v5.25ZM188.58,18.46v7.22h17.18v-7.22h-17.18ZM204.77,24.7h-15.2v-5.25h15.2v5.25ZM209.23,27.92l-.03-.08-1.24-1.96,1.14-1.92c.03-.08.04-.13.04-.16.03-.16.08-.35.16-.57v-.09c0-.2.02-.41.07-.59.02-.09.05-.23.08-.41,0-.13-.01-.2-.02-.24-.02-.12-.06-.29-.11-.51l-.02-.11v-.09c-.03-.19-.06-.34-.08-.43,0-.02-.03-.12-.14-.39l-.06-.14-1.26-1.96s-.04-.03-.06-.05c-.14-.12-.28-.25-.44-.4-.1-.1-.19-.18-.28-.25-.09-.07-.17-.12-.25-.17-.15-.08-.29-.16-.42-.25-.06-.04-.13-.07-.19-.1l-.38-.14c-.08-.03-.16-.06-.23-.08-.16-.04-.34-.09-.52-.16-.18,0-.36-.01-.54-.05-.12-.02-.28-.05-.49-.1h-19.02v19.4h4.62v-8.24h15.2v8.24h4.63v-7.3c-.05-.13-.08-.28-.09-.46,0-.03-.03-.1-.08-.24ZM208.41,34.94h-2.65v-8.24h-17.18v8.24h-2.65v-17.43h17.92c.18.04.33.07.43.09.18.03.35.05.52.06.16.06.32.1.47.14.04,0,.07.02.11.04l.38.14c.16.11.33.2.49.3.02,0,.06.03.13.08.06.05.13.11.19.17.15.15.3.29.44.41l1.13,1.75.02.06c.06.14.09.22.1.25,0,.05.03.14.05.28v.11l.05.21c.05.2.08.36.1.45,0,0,0,.02,0,.03-.02.11-.04.19-.05.25-.06.23-.09.48-.09.72-.07.19-.12.37-.14.53l-1.37,2.32,1.51,2.39s0,.03.02.04c.01.15.04.3.08.43v6.17ZM188.58,25.68h17.18v-7.22h-17.18v7.22ZM189.57,19.45h15.2v5.25h-15.2v-5.25ZM188.58,18.46v7.22h17.18v-7.22h-17.18ZM204.77,24.7h-15.2v-5.25h15.2v5.25ZM188.58,18.46v7.22h17.18v-7.22h-17.18ZM204.77,24.7h-15.2v-5.25h15.2v5.25ZM188.58,18.46v7.22h17.18v-7.22h-17.18ZM204.77,24.7h-15.2v-5.25h15.2v5.25ZM188.58,18.46v7.22h17.18v-7.22h-17.18ZM204.77,24.7h-15.2v-5.25h15.2v5.25ZM188.58,18.46v7.22h17.18v-7.22h-17.18ZM204.77,24.7h-15.2v-5.25h15.2v5.25ZM188.58,18.46v7.22h17.18v-7.22h-17.18ZM204.77,24.7h-15.2v-5.25h15.2v5.25ZM188.58,18.46v7.22h17.18v-7.22h-17.18ZM204.77,24.7h-15.2v-5.25h15.2v5.25ZM188.58,18.46v7.22h17.18v-7.22h-17.18ZM204.77,24.7h-15.2v-5.25h15.2v5.25ZM188.58,18.46v7.22h17.18v-7.22h-17.18ZM204.77,24.7h-15.2v-5.25h15.2v5.25ZM188.58,18.46v7.22h17.18v-7.22h-17.18ZM204.77,24.7h-15.2v-5.25h15.2v5.25ZM188.58,18.46v7.22h17.18v-7.22h-17.18ZM204.77,24.7h-15.2v-5.25h15.2v5.25ZM188.58,18.46v7.22h17.18v-7.22h-17.18ZM204.77,24.7h-15.2v-5.25h15.2v5.25ZM188.58,18.46v7.22h17.18v-7.22h-17.18ZM204.77,24.7h-15.2v-5.25h15.2v5.25ZM188.58,18.46v7.22h17.18v-7.22h-17.18ZM204.77,24.7h-15.2v-5.25h15.2v5.25Z" style="fill: #fff; opacity: .13;"/>
        <path d="M216.82,18.5v7.12h17.07v-7.12h-17.07ZM232.9,24.63h-15.1v-5.14h15.1v5.14ZM216.82,18.5v7.12h17.07v-7.12h-17.07ZM232.9,24.63h-15.1v-5.14h15.1v5.14ZM216.82,18.5v7.12h17.07v-7.12h-17.07ZM232.9,24.63h-15.1v-5.14h15.1v5.14ZM216.82,18.5v7.12h17.07v-7.12h-17.07ZM232.9,24.63h-15.1v-5.14h15.1v5.14ZM216.82,18.5v7.12h17.07v-7.12h-17.07ZM232.9,24.63h-15.1v-5.14h15.1v5.14ZM216.82,18.5v7.12h17.07v-7.12h-17.07ZM232.9,24.63h-15.1v-5.14h15.1v5.14ZM216.82,18.5v7.12h17.07v-7.12h-17.07ZM232.9,24.63h-15.1v-5.14h15.1v5.14ZM216.82,18.5v7.12h17.07v-7.12h-17.07ZM232.9,24.63h-15.1v-5.14h15.1v5.14ZM216.82,18.5v7.12h17.07v-7.12h-17.07ZM232.9,24.63h-15.1v-5.14h15.1v5.14ZM216.82,18.5v7.12h17.07v-7.12h-17.07ZM232.9,24.63h-15.1v-5.14h15.1v5.14ZM216.82,18.5v7.12h17.07v-7.12h-17.07ZM232.9,24.63h-15.1v-5.14h15.1v5.14ZM216.82,18.5v7.12h17.07v-7.12h-17.07ZM232.9,24.63h-15.1v-5.14h15.1v5.14ZM237.51,27.75v-5.54s0-.09-.02-.13c-.05-.19-.07-.39-.07-.59,0,0,0-.1-.05-.36l-.02-.09v-.04c-.05-.21-.08-.37-.1-.47,0,0-.02-.09-.12-.34l-.04-.1-1.28-2.03c-.09-.08-.13-.12-.15-.14-.1-.08-.19-.14-.29-.21-.14-.09-.28-.19-.42-.3-.09-.07-.18-.14-.27-.19-.06-.04-.13-.08-.19-.1-.16-.06-.33-.14-.48-.24-.02,0-.03-.02-.03-.02-.19-.03-.38-.09-.56-.16-.05-.02-.1-.04-.15-.05-.14-.02-.28-.05-.41-.09-.05,0-.09-.01-.12-.01-.15,0-.35-.02-.61-.07h-13.36c-.06,0-.12,0-.18.02-.11.02-.27.05-.48.1l-.11.03h-.05l-.95.26-2.03,1.27c-.13.13-.18.2-.2.22l-.27.36c-.11.14-.21.27-.32.39-.04.05-.05.07-.05.08-.07.16-.15.33-.24.48l-.22.38c-.03.19-.09.38-.16.57-.05.13-.11.25-.16.37-.02.04-.03.08-.04.12,0,.06-.02.13-.02.18,0,.16-.02.36-.06.62v7.7l.06.07v1.8l.27.82.96,1.65s.04.04.06.06c.1.1.19.18.28.26.11.09.22.18.33.26.13.1.25.2.38.3.09.07.17.13.24.18.1.07.21.13.32.19.08.05.15.09.23.12.1.04.2.08.31.12.14.05.27.1.4.15.06.02.11.04.16.05.18.03.37.09.56.16.15,0,.33.02.58.06h19.13v-2.95h-19.7v-5.22h19.7ZM236.52,33.96v.97h-18.07c-.17-.03-.32-.05-.45-.06-.18-.07-.37-.12-.56-.15-.14-.06-.28-.11-.43-.16-.1-.04-.18-.07-.27-.11-.03,0-.07-.03-.1-.05-.1-.06-.2-.12-.3-.18-.04-.03-.09-.07-.14-.11-.14-.11-.27-.22-.41-.32-.11-.08-.21-.16-.31-.24-.06-.05-.12-.11-.18-.16l-.84-1.45-.19-.57v-2.05l-.06-.06v-7.22c.04-.26.06-.48.06-.68.05-.11.09-.21.14-.32.08-.19.14-.39.19-.58l.14-.24c.09-.15.17-.32.25-.48.11-.12.2-.24.3-.37l.27-.36s.02-.03.05-.06l1.8-1.13.68-.19h.02l.22-.05c.19-.04.33-.08.42-.09h13.3c.24.04.44.06.62.06.13.03.26.06.39.08.18.07.38.14.57.18.16.09.33.17.49.24,0,0,.03.01.05.02.06.04.12.08.19.13.15.12.32.23.48.34.07.05.14.1.22.15l1.17,1.84v.02c.04.09.07.14.08.18.01.09.04.21.07.36h0s.03.18.03.18c.02.12.03.18.03.22,0,.25.03.49.09.74v4.5h-19.7v7.2h19.7ZM233.89,18.5h-17.07v7.12h17.07v-7.12ZM232.9,24.63h-15.1v-5.14h15.1v5.14ZM216.82,18.5v7.12h17.07v-7.12h-17.07ZM232.9,24.63h-15.1v-5.14h15.1v5.14ZM216.82,18.5v7.12h17.07v-7.12h-17.07ZM232.9,24.63h-15.1v-5.14h15.1v5.14ZM216.82,18.5v7.12h17.07v-7.12h-17.07ZM232.9,24.63h-15.1v-5.14h15.1v5.14ZM216.82,18.5v7.12h17.07v-7.12h-17.07ZM232.9,24.63h-15.1v-5.14h15.1v5.14ZM216.82,18.5v7.12h17.07v-7.12h-17.07ZM232.9,24.63h-15.1v-5.14h15.1v5.14ZM216.82,18.5v7.12h17.07v-7.12h-17.07ZM232.9,24.63h-15.1v-5.14h15.1v5.14ZM216.82,18.5v7.12h17.07v-7.12h-17.07ZM232.9,24.63h-15.1v-5.14h15.1v5.14ZM216.82,18.5v7.12h17.07v-7.12h-17.07ZM232.9,24.63h-15.1v-5.14h15.1v5.14ZM216.82,18.5v7.12h17.07v-7.12h-17.07ZM232.9,24.63h-15.1v-5.14h15.1v5.14ZM216.82,18.5v7.12h17.07v-7.12h-17.07ZM232.9,24.63h-15.1v-5.14h15.1v5.14ZM216.82,18.5v7.12h17.07v-7.12h-17.07ZM232.9,24.63h-15.1v-5.14h15.1v5.14ZM216.82,18.5v7.12h17.07v-7.12h-17.07ZM232.9,24.63h-15.1v-5.14h15.1v5.14Z" style="fill: #fff; opacity: .13;"/>
        <path d="M216.82,18.5v7.12h17.07v-7.12h-17.07ZM232.9,24.63h-15.1v-5.14h15.1v5.14ZM216.82,18.5v7.12h17.07v-7.12h-17.07ZM232.9,24.63h-15.1v-5.14h15.1v5.14ZM216.82,18.5v7.12h17.07v-7.12h-17.07ZM232.9,24.63h-15.1v-5.14h15.1v5.14ZM216.82,18.5v7.12h17.07v-7.12h-17.07ZM232.9,24.63h-15.1v-5.14h15.1v5.14ZM216.82,18.5v7.12h17.07v-7.12h-17.07ZM232.9,24.63h-15.1v-5.14h15.1v5.14ZM216.82,18.5v7.12h17.07v-7.12h-17.07ZM232.9,24.63h-15.1v-5.14h15.1v5.14ZM216.82,18.5v7.12h17.07v-7.12h-17.07ZM232.9,24.63h-15.1v-5.14h15.1v5.14ZM216.82,18.5v7.12h17.07v-7.12h-17.07ZM232.9,24.63h-15.1v-5.14h15.1v5.14ZM216.82,18.5v7.12h17.07v-7.12h-17.07ZM232.9,24.63h-15.1v-5.14h15.1v5.14ZM216.82,18.5v7.12h17.07v-7.12h-17.07ZM232.9,24.63h-15.1v-5.14h15.1v5.14ZM216.82,18.5v7.12h17.07v-7.12h-17.07ZM232.9,24.63h-15.1v-5.14h15.1v5.14ZM216.82,18.5v7.12h17.07v-7.12h-17.07ZM232.9,24.63h-15.1v-5.14h15.1v5.14ZM237.51,27.75v-5.54s0-.09-.02-.13c-.05-.19-.07-.39-.07-.59,0,0,0-.1-.05-.36l-.02-.09v-.04c-.05-.21-.08-.37-.1-.47,0,0-.02-.09-.12-.34l-.04-.1-1.28-2.03c-.09-.08-.13-.12-.15-.14-.1-.08-.19-.14-.29-.21-.14-.09-.28-.19-.42-.3-.09-.07-.18-.14-.27-.19-.06-.04-.13-.08-.19-.1-.16-.06-.33-.14-.48-.24-.02,0-.03-.02-.03-.02-.19-.03-.38-.09-.56-.16-.05-.02-.1-.04-.15-.05-.14-.02-.28-.05-.41-.09-.05,0-.09-.01-.12-.01-.15,0-.35-.02-.61-.07h-13.36c-.06,0-.12,0-.18.02-.11.02-.27.05-.48.1l-.11.03h-.05l-.95.26-2.03,1.27c-.13.13-.18.2-.2.22l-.27.36c-.11.14-.21.27-.32.39-.04.05-.05.07-.05.08-.07.16-.15.33-.24.48l-.22.38c-.03.19-.09.38-.16.57-.05.13-.11.25-.16.37-.02.04-.03.08-.04.12,0,.06-.02.13-.02.18,0,.16-.02.36-.06.62v7.7l.06.07v1.8l.27.82.96,1.65s.04.04.06.06c.1.1.19.18.28.26.11.09.22.18.33.26.13.1.25.2.38.3.09.07.17.13.24.18.1.07.21.13.32.19.08.05.15.09.23.12.1.04.2.08.31.12.14.05.27.1.4.15.06.02.11.04.16.05.18.03.37.09.56.16.15,0,.33.02.58.06h19.13v-2.95h-19.7v-5.22h19.7ZM236.52,33.96v.97h-18.07c-.17-.03-.32-.05-.45-.06-.18-.07-.37-.12-.56-.15-.14-.06-.28-.11-.43-.16-.1-.04-.18-.07-.27-.11-.03,0-.07-.03-.1-.05-.1-.06-.2-.12-.3-.18-.04-.03-.09-.07-.14-.11-.14-.11-.27-.22-.41-.32-.11-.08-.21-.16-.31-.24-.06-.05-.12-.11-.18-.16l-.84-1.45-.19-.57v-2.05l-.06-.06v-7.22c.04-.26.06-.48.06-.68.05-.11.09-.21.14-.32.08-.19.14-.39.19-.58l.14-.24c.09-.15.17-.32.25-.48.11-.12.2-.24.3-.37l.27-.36s.02-.03.05-.06l1.8-1.13.68-.19h.02l.22-.05c.19-.04.33-.08.42-.09h13.3c.24.04.44.06.62.06.13.03.26.06.39.08.18.07.38.14.57.18.16.09.33.17.49.24,0,0,.03.01.05.02.06.04.12.08.19.13.15.12.32.23.48.34.07.05.14.1.22.15l1.17,1.84v.02c.04.09.07.14.08.18.01.09.04.21.07.36h0s.03.18.03.18c.02.12.03.18.03.22,0,.25.03.49.09.74v4.5h-19.7v7.2h19.7ZM233.89,18.5h-17.07v7.12h17.07v-7.12ZM232.9,24.63h-15.1v-5.14h15.1v5.14ZM216.82,18.5v7.12h17.07v-7.12h-17.07ZM232.9,24.63h-15.1v-5.14h15.1v5.14ZM216.82,18.5v7.12h17.07v-7.12h-17.07ZM232.9,24.63h-15.1v-5.14h15.1v5.14ZM216.82,18.5v7.12h17.07v-7.12h-17.07ZM232.9,24.63h-15.1v-5.14h15.1v5.14ZM216.82,18.5v7.12h17.07v-7.12h-17.07ZM232.9,24.63h-15.1v-5.14h15.1v5.14ZM216.82,18.5v7.12h17.07v-7.12h-17.07ZM232.9,24.63h-15.1v-5.14h15.1v5.14ZM216.82,18.5v7.12h17.07v-7.12h-17.07ZM232.9,24.63h-15.1v-5.14h15.1v5.14ZM216.82,18.5v7.12h17.07v-7.12h-17.07ZM232.9,24.63h-15.1v-5.14h15.1v5.14ZM216.82,18.5v7.12h17.07v-7.12h-17.07ZM232.9,24.63h-15.1v-5.14h15.1v5.14ZM216.82,18.5v7.12h17.07v-7.12h-17.07ZM232.9,24.63h-15.1v-5.14h15.1v5.14ZM216.82,18.5v7.12h17.07v-7.12h-17.07ZM232.9,24.63h-15.1v-5.14h15.1v5.14ZM216.82,18.5v7.12h17.07v-7.12h-17.07ZM232.9,24.63h-15.1v-5.14h15.1v5.14ZM216.82,18.5v7.12h17.07v-7.12h-17.07ZM232.9,24.63h-15.1v-5.14h15.1v5.14Z" style="fill: #fff; opacity: .13;"/>
        <path d="M34.74,58.83h40.17c.73,0,1.32-.59,1.32-1.32v-13.16c0-.73-.6-1.32-1.32-1.32H16.96c-.73,0-1.32.59-1.32,1.32v57.95c0,.73.6,1.32,1.32,1.32h57.95c.73,0,1.32-.59,1.32-1.32v-13.15c0-.73-.6-1.32-1.32-1.32h-40.17c-1.82,0-3.3-1.48-3.3-3.3v-22.4c0-1.82,1.48-3.3,3.3-3.3ZM34.74,88.81h40.17c.18,0,.34.15.34.34v13.15c0,.18-.15.34-.34.34H16.96c-.18,0-.34-.15-.34-.34v-57.95c0-.18.15-.33.34-.33h57.95c.18,0,.34.15.34.33v13.16c0,.18-.15.33-.34.33h-40.17c-2.36,0-4.29,1.92-4.29,4.29v22.4c0,2.36,1.92,4.29,4.29,4.29Z" style="fill: #fff; opacity: .13;"/>
        <path d="M34.74,58.83h40.17c.73,0,1.32-.59,1.32-1.32v-13.16c0-.73-.6-1.32-1.32-1.32H16.96c-.73,0-1.32.59-1.32,1.32v57.95c0,.73.6,1.32,1.32,1.32h57.95c.73,0,1.32-.59,1.32-1.32v-13.15c0-.73-.6-1.32-1.32-1.32h-40.17c-1.82,0-3.3-1.48-3.3-3.3v-22.4c0-1.82,1.48-3.3,3.3-3.3ZM34.74,88.81h40.17c.18,0,.34.15.34.34v13.15c0,.18-.15.34-.34.34H16.96c-.18,0-.34-.15-.34-.34v-57.95c0-.18.15-.33.34-.33h57.95c.18,0,.34.15.34.33v13.16c0,.18-.15.33-.34.33h-40.17c-2.36,0-4.29,1.92-4.29,4.29v22.4c0,2.36,1.92,4.29,4.29,4.29Z" style="fill: #fff; opacity: .13;"/>
        <path d="M144.59,43.03h-13.16c-.73,0-1.32.59-1.32,1.32v40.18c0,1.82-1.48,3.3-3.3,3.3h-22.39c-1.82,0-3.3-1.48-3.3-3.3v-40.18c0-.73-.59-1.32-1.32-1.32h-13.16c-.73,0-1.32.59-1.32,1.32v57.95c0,.73.59,1.32,1.32,1.32h57.95c.73,0,1.32-.59,1.32-1.32v-57.95c0-.73-.59-1.32-1.32-1.32ZM144.93,102.3c0,.18-.15.34-.33.34h-57.95c-.18,0-.34-.15-.34-.34v-57.95c0-.18.15-.33.34-.33h13.16c.18,0,.33.15.33.33v40.18c0,2.36,1.92,4.29,4.29,4.29h22.39c2.36,0,4.29-1.92,4.29-4.29v-40.18c0-.18.15-.33.33-.33h13.16c.18,0,.33.15.33.33v57.95Z" style="fill: #fff; opacity: .13;"/>
        <path d="M144.59,43.03h-13.16c-.73,0-1.32.59-1.32,1.32v40.18c0,1.82-1.48,3.3-3.3,3.3h-22.39c-1.82,0-3.3-1.48-3.3-3.3v-40.18c0-.73-.59-1.32-1.32-1.32h-13.16c-.73,0-1.32.59-1.32,1.32v57.95c0,.73.59,1.32,1.32,1.32h57.95c.73,0,1.32-.59,1.32-1.32v-57.95c0-.73-.59-1.32-1.32-1.32ZM144.93,102.3c0,.18-.15.34-.33.34h-57.95c-.18,0-.34-.15-.34-.34v-57.95c0-.18.15-.33.34-.33h13.16c.18,0,.33.15.33.33v40.18c0,2.36,1.92,4.29,4.29,4.29h22.39c2.36,0,4.29-1.92,4.29-4.29v-40.18c0-.18.15-.33.33-.33h13.16c.18,0,.33.15.33.33v57.95Z" style="fill: #fff; opacity: .13;"/>
        <path d="M243.78,58.83h40.17c.73,0,1.32-.59,1.32-1.32v-13.16c0-.73-.59-1.32-1.32-1.32h-57.95c-.73,0-1.32.59-1.32,1.32v57.95c0,.73.59,1.32,1.32,1.32h57.95c.73,0,1.32-.59,1.32-1.32v-13.15c0-.73-.59-1.32-1.32-1.32h-40.17c-1.82,0-3.3-1.48-3.3-3.3s1.48-3.3,3.3-3.3h40.17c.73,0,1.32-.59,1.32-1.32v-13.16c0-.73-.59-1.32-1.32-1.32h-40.17c-1.82,0-3.3-1.48-3.3-3.3s1.48-3.3,3.3-3.3ZM239.49,62.13c0,2.36,1.92,4.29,4.29,4.29h40.17c.18,0,.34.15.34.34v13.16c0,.18-.15.33-.34.33h-40.17c-2.36,0-4.29,1.92-4.29,4.29s1.92,4.29,4.29,4.29h40.17c.18,0,.34.15.34.34v13.15c0,.18-.15.34-.34.34h-57.95c-.18,0-.33-.15-.33-.34v-57.95c0-.18.15-.33.33-.33h57.95c.18,0,.34.15.34.33v13.16c0,.18-.15.33-.34.33h-40.17c-2.36,0-4.29,1.92-4.29,4.29Z" style="fill: #fff; opacity: .13;"/>
        <path d="M243.78,58.83h40.17c.73,0,1.32-.59,1.32-1.32v-13.16c0-.73-.59-1.32-1.32-1.32h-57.95c-.73,0-1.32.59-1.32,1.32v57.95c0,.73.59,1.32,1.32,1.32h57.95c.73,0,1.32-.59,1.32-1.32v-13.15c0-.73-.59-1.32-1.32-1.32h-40.17c-1.82,0-3.3-1.48-3.3-3.3s1.48-3.3,3.3-3.3h40.17c.73,0,1.32-.59,1.32-1.32v-13.16c0-.73-.59-1.32-1.32-1.32h-40.17c-1.82,0-3.3-1.48-3.3-3.3s1.48-3.3,3.3-3.3ZM239.49,62.13c0,2.36,1.92,4.29,4.29,4.29h40.17c.18,0,.34.15.34.34v13.16c0,.18-.15.33-.34.33h-40.17c-2.36,0-4.29,1.92-4.29,4.29s1.92,4.29,4.29,4.29h40.17c.18,0,.34.15.34.34v13.15c0,.18-.15.34-.34.34h-57.95c-.18,0-.33-.15-.33-.34v-57.95c0-.18.15-.33.33-.33h57.95c.18,0,.34.15.34.33v13.16c0,.18-.15.33-.34.33h-40.17c-2.36,0-4.29,1.92-4.29,4.29Z" style="fill: #fff; opacity: .13;"/>
        <path d="M313.38,58.83h40.17c.73,0,1.32-.59,1.32-1.32v-13.16c0-.73-.59-1.32-1.32-1.32h-57.95c-.73,0-1.32.59-1.32,1.32v35.55c0,.73.59,1.32,1.32,1.32h40.18c1.82,0,3.3,1.48,3.3,3.3s-1.48,3.3-3.3,3.3h-40.18c-.73,0-1.32.59-1.32,1.32v13.15c0,.73.59,1.32,1.32,1.32h57.95c.73,0,1.32-.59,1.32-1.32v-35.55c0-.73-.59-1.32-1.32-1.32h-40.17c-1.82,0-3.3-1.48-3.3-3.3s1.48-3.3,3.3-3.3ZM309.1,62.13c0,2.36,1.92,4.29,4.29,4.29h40.17c.18,0,.34.15.34.34v35.55c0,.18-.15.34-.34.34h-57.95c-.18,0-.33-.15-.33-.34v-13.15c0-.18.15-.34.33-.34h40.18c2.36,0,4.29-1.92,4.29-4.29s-1.92-4.29-4.29-4.29h-40.18c-.18,0-.33-.15-.33-.33v-35.55c0-.18.15-.33.33-.33h57.95c.18,0,.34.15.34.33v13.16c0,.18-.15.33-.34.33h-40.17c-2.36,0-4.29,1.92-4.29,4.29Z" style="fill: #fff; opacity: .13;"/>
        <path d="M313.38,58.83h40.17c.73,0,1.32-.59,1.32-1.32v-13.16c0-.73-.59-1.32-1.32-1.32h-57.95c-.73,0-1.32.59-1.32,1.32v35.55c0,.73.59,1.32,1.32,1.32h40.18c1.82,0,3.3,1.48,3.3,3.3s-1.48,3.3-3.3,3.3h-40.18c-.73,0-1.32.59-1.32,1.32v13.15c0,.73.59,1.32,1.32,1.32h57.95c.73,0,1.32-.59,1.32-1.32v-35.55c0-.73-.59-1.32-1.32-1.32h-40.17c-1.82,0-3.3-1.48-3.3-3.3s1.48-3.3,3.3-3.3ZM309.1,62.13c0,2.36,1.92,4.29,4.29,4.29h40.17c.18,0,.34.15.34.34v35.55c0,.18-.15.34-.34.34h-57.95c-.18,0-.33-.15-.33-.34v-13.15c0-.18.15-.34.33-.34h40.18c2.36,0,4.29-1.92,4.29-4.29s-1.92-4.29-4.29-4.29h-40.18c-.18,0-.33-.15-.33-.33v-35.55c0-.18.15-.33.33-.33h57.95c.18,0,.34.15.34.33v13.16c0,.18-.15.33-.34.33h-40.17c-2.36,0-4.29,1.92-4.29,4.29Z" style="fill: #fff; opacity: .13;"/>
        <path d="M196.5,80.24h-22.39c-1.15,0-2.22.44-3.03,1.25-.81.81-1.26,1.89-1.26,3.03,0,2.36,1.92,4.28,4.29,4.28h22.39c2.37,0,4.29-1.92,4.29-4.28s-1.92-4.29-4.29-4.29ZM196.5,87.82h-22.39c-1.82,0-3.3-1.48-3.3-3.29,0-.88.35-1.71.97-2.33.62-.62,1.45-.97,2.33-.97h22.39c1.82,0,3.3,1.48,3.3,3.3s-1.48,3.29-3.3,3.29ZM196.5,57.84h-22.39c-1.14,0-2.22.45-3.03,1.26-.81.81-1.26,1.89-1.26,3.03,0,2.36,1.92,4.29,4.29,4.29h22.39c2.37,0,4.29-1.92,4.29-4.29s-1.92-4.29-4.29-4.29ZM196.5,65.42h-22.39c-1.82,0-3.3-1.48-3.3-3.3,0-.88.35-1.71.97-2.33.62-.62,1.45-.97,2.33-.97h22.39c1.82,0,3.3,1.48,3.3,3.3s-1.48,3.3-3.3,3.3ZM196.5,57.84h-22.39c-1.14,0-2.22.45-3.03,1.26-.81.81-1.26,1.89-1.26,3.03,0,2.36,1.92,4.29,4.29,4.29h22.39c2.37,0,4.29-1.92,4.29-4.29s-1.92-4.29-4.29-4.29ZM196.5,65.42h-22.39c-1.82,0-3.3-1.48-3.3-3.3,0-.88.35-1.71.97-2.33.62-.62,1.45-.97,2.33-.97h22.39c1.82,0,3.3,1.48,3.3,3.3s-1.48,3.3-3.3,3.3ZM196.5,80.24h-22.39c-1.15,0-2.22.44-3.03,1.25-.81.81-1.26,1.89-1.26,3.03,0,2.36,1.92,4.28,4.29,4.28h22.39c2.37,0,4.29-1.92,4.29-4.28s-1.92-4.29-4.29-4.29ZM196.5,87.82h-22.39c-1.82,0-3.3-1.48-3.3-3.29,0-.88.35-1.71.97-2.33.62-.62,1.45-.97,2.33-.97h22.39c1.82,0,3.3,1.48,3.3,3.3s-1.48,3.29-3.3,3.29ZM196.5,80.24h-22.39c-1.15,0-2.22.44-3.03,1.25-.81.81-1.26,1.89-1.26,3.03,0,2.36,1.92,4.28,4.29,4.28h22.39c2.37,0,4.29-1.92,4.29-4.28s-1.92-4.29-4.29-4.29ZM196.5,87.82h-22.39c-1.82,0-3.3-1.48-3.3-3.29,0-.88.35-1.71.97-2.33.62-.62,1.45-.97,2.33-.97h22.39c1.82,0,3.3,1.48,3.3,3.3s-1.48,3.29-3.3,3.29ZM196.5,57.84h-22.39c-1.14,0-2.22.45-3.03,1.26-.81.81-1.26,1.89-1.26,3.03,0,2.36,1.92,4.29,4.29,4.29h22.39c2.37,0,4.29-1.92,4.29-4.29s-1.92-4.29-4.29-4.29ZM196.5,65.42h-22.39c-1.82,0-3.3-1.48-3.3-3.3,0-.88.35-1.71.97-2.33.62-.62,1.45-.97,2.33-.97h22.39c1.82,0,3.3,1.48,3.3,3.3s-1.48,3.3-3.3,3.3ZM174.1,66.41h22.39c2.37,0,4.29-1.92,4.29-4.29s-1.92-4.29-4.29-4.29h-22.39c-1.14,0-2.22.45-3.03,1.26-.81.81-1.26,1.89-1.26,3.03,0,2.36,1.92,4.29,4.29,4.29ZM171.77,59.79c.62-.62,1.45-.97,2.33-.97h22.39c1.82,0,3.3,1.48,3.3,3.3s-1.48,3.3-3.3,3.3h-22.39c-1.82,0-3.3-1.48-3.3-3.3,0-.88.35-1.71.97-2.33ZM196.5,80.24h-22.39c-1.15,0-2.22.44-3.03,1.25-.81.81-1.26,1.89-1.26,3.03,0,2.36,1.92,4.28,4.29,4.28h22.39c2.37,0,4.29-1.92,4.29-4.28s-1.92-4.29-4.29-4.29ZM196.5,87.82h-22.39c-1.82,0-3.3-1.48-3.3-3.29,0-.88.35-1.71.97-2.33.62-.62,1.45-.97,2.33-.97h22.39c1.82,0,3.3,1.48,3.3,3.3s-1.48,3.29-3.3,3.29ZM215.6,70.91v-26.56c0-.73-.6-1.32-1.32-1.32h-57.95c-.73,0-1.32.59-1.32,1.32v57.95c0,.73.59,1.32,1.32,1.32h57.95c.73,0,1.32-.59,1.32-1.32v-26.56c0-.79-.65-1.43-1.44-1.43v-1.98c.79,0,1.44-.64,1.44-1.43ZM214.16,75.3c.25,0,.45.2.45.44v26.56c0,.18-.15.34-.34.34h-57.95c-.18,0-.33-.15-.33-.34v-57.95c0-.18.14-.34.33-.34h57.95c.18,0,.34.15.34.34v26.56c0,.24-.2.44-.45.44h-.99v3.95h.99ZM196.5,57.84h-22.39c-1.14,0-2.22.45-3.03,1.26-.81.81-1.26,1.89-1.26,3.03,0,2.36,1.92,4.29,4.29,4.29h22.39c2.37,0,4.29-1.92,4.29-4.29s-1.92-4.29-4.29-4.29ZM196.5,65.42h-22.39c-1.82,0-3.3-1.48-3.3-3.3,0-.88.35-1.71.97-2.33.62-.62,1.45-.97,2.33-.97h22.39c1.82,0,3.3,1.48,3.3,3.3s-1.48,3.3-3.3,3.3ZM196.5,80.24h-22.39c-1.15,0-2.22.44-3.03,1.25-.81.81-1.26,1.89-1.26,3.03,0,2.36,1.92,4.28,4.29,4.28h22.39c2.37,0,4.29-1.92,4.29-4.28s-1.92-4.29-4.29-4.29ZM196.5,87.82h-22.39c-1.82,0-3.3-1.48-3.3-3.29,0-.88.35-1.71.97-2.33.62-.62,1.45-.97,2.33-.97h22.39c1.82,0,3.3,1.48,3.3,3.3s-1.48,3.29-3.3,3.29ZM196.5,80.24h-22.39c-1.15,0-2.22.44-3.03,1.25-.81.81-1.26,1.89-1.26,3.03,0,2.36,1.92,4.28,4.29,4.28h22.39c2.37,0,4.29-1.92,4.29-4.28s-1.92-4.29-4.29-4.29ZM196.5,87.82h-22.39c-1.82,0-3.3-1.48-3.3-3.29,0-.88.35-1.71.97-2.33.62-.62,1.45-.97,2.33-.97h22.39c1.82,0,3.3,1.48,3.3,3.3s-1.48,3.29-3.3,3.29ZM196.5,57.84h-22.39c-1.14,0-2.22.45-3.03,1.26-.81.81-1.26,1.89-1.26,3.03,0,2.36,1.92,4.29,4.29,4.29h22.39c2.37,0,4.29-1.92,4.29-4.29s-1.92-4.29-4.29-4.29ZM196.5,65.42h-22.39c-1.82,0-3.3-1.48-3.3-3.3,0-.88.35-1.71.97-2.33.62-.62,1.45-.97,2.33-.97h22.39c1.82,0,3.3,1.48,3.3,3.3s-1.48,3.3-3.3,3.3ZM196.5,57.84h-22.39c-1.14,0-2.22.45-3.03,1.26-.81.81-1.26,1.89-1.26,3.03,0,2.36,1.92,4.29,4.29,4.29h22.39c2.37,0,4.29-1.92,4.29-4.29s-1.92-4.29-4.29-4.29ZM196.5,65.42h-22.39c-1.82,0-3.3-1.48-3.3-3.3,0-.88.35-1.71.97-2.33.62-.62,1.45-.97,2.33-.97h22.39c1.82,0,3.3,1.48,3.3,3.3s-1.48,3.3-3.3,3.3ZM196.5,80.24h-22.39c-1.15,0-2.22.44-3.03,1.25-.81.81-1.26,1.89-1.26,3.03,0,2.36,1.92,4.28,4.29,4.28h22.39c2.37,0,4.29-1.92,4.29-4.28s-1.92-4.29-4.29-4.29ZM196.5,87.82h-22.39c-1.82,0-3.3-1.48-3.3-3.29,0-.88.35-1.71.97-2.33.62-.62,1.45-.97,2.33-.97h22.39c1.82,0,3.3,1.48,3.3,3.3s-1.48,3.29-3.3,3.29Z" style="fill: #fff; opacity: .13;"/>
        <path d="M196.5,80.24h-22.39c-1.15,0-2.22.44-3.03,1.25-.81.81-1.26,1.89-1.26,3.03,0,2.36,1.92,4.28,4.29,4.28h22.39c2.37,0,4.29-1.92,4.29-4.28s-1.92-4.29-4.29-4.29ZM196.5,87.82h-22.39c-1.82,0-3.3-1.48-3.3-3.29,0-.88.35-1.71.97-2.33.62-.62,1.45-.97,2.33-.97h22.39c1.82,0,3.3,1.48,3.3,3.3s-1.48,3.29-3.3,3.29ZM196.5,57.84h-22.39c-1.14,0-2.22.45-3.03,1.26-.81.81-1.26,1.89-1.26,3.03,0,2.36,1.92,4.29,4.29,4.29h22.39c2.37,0,4.29-1.92,4.29-4.29s-1.92-4.29-4.29-4.29ZM196.5,65.42h-22.39c-1.82,0-3.3-1.48-3.3-3.3,0-.88.35-1.71.97-2.33.62-.62,1.45-.97,2.33-.97h22.39c1.82,0,3.3,1.48,3.3,3.3s-1.48,3.3-3.3,3.3ZM196.5,57.84h-22.39c-1.14,0-2.22.45-3.03,1.26-.81.81-1.26,1.89-1.26,3.03,0,2.36,1.92,4.29,4.29,4.29h22.39c2.37,0,4.29-1.92,4.29-4.29s-1.92-4.29-4.29-4.29ZM196.5,65.42h-22.39c-1.82,0-3.3-1.48-3.3-3.3,0-.88.35-1.71.97-2.33.62-.62,1.45-.97,2.33-.97h22.39c1.82,0,3.3,1.48,3.3,3.3s-1.48,3.3-3.3,3.3ZM196.5,80.24h-22.39c-1.15,0-2.22.44-3.03,1.25-.81.81-1.26,1.89-1.26,3.03,0,2.36,1.92,4.28,4.29,4.28h22.39c2.37,0,4.29-1.92,4.29-4.28s-1.92-4.29-4.29-4.29ZM196.5,87.82h-22.39c-1.82,0-3.3-1.48-3.3-3.29,0-.88.35-1.71.97-2.33.62-.62,1.45-.97,2.33-.97h22.39c1.82,0,3.3,1.48,3.3,3.3s-1.48,3.29-3.3,3.29ZM196.5,80.24h-22.39c-1.15,0-2.22.44-3.03,1.25-.81.81-1.26,1.89-1.26,3.03,0,2.36,1.92,4.28,4.29,4.28h22.39c2.37,0,4.29-1.92,4.29-4.28s-1.92-4.29-4.29-4.29ZM196.5,87.82h-22.39c-1.82,0-3.3-1.48-3.3-3.29,0-.88.35-1.71.97-2.33.62-.62,1.45-.97,2.33-.97h22.39c1.82,0,3.3,1.48,3.3,3.3s-1.48,3.29-3.3,3.29ZM196.5,57.84h-22.39c-1.14,0-2.22.45-3.03,1.26-.81.81-1.26,1.89-1.26,3.03,0,2.36,1.92,4.29,4.29,4.29h22.39c2.37,0,4.29-1.92,4.29-4.29s-1.92-4.29-4.29-4.29ZM196.5,65.42h-22.39c-1.82,0-3.3-1.48-3.3-3.3,0-.88.35-1.71.97-2.33.62-.62,1.45-.97,2.33-.97h22.39c1.82,0,3.3,1.48,3.3,3.3s-1.48,3.3-3.3,3.3ZM174.1,66.41h22.39c2.37,0,4.29-1.92,4.29-4.29s-1.92-4.29-4.29-4.29h-22.39c-1.14,0-2.22.45-3.03,1.26-.81.81-1.26,1.89-1.26,3.03,0,2.36,1.92,4.29,4.29,4.29ZM171.77,59.79c.62-.62,1.45-.97,2.33-.97h22.39c1.82,0,3.3,1.48,3.3,3.3s-1.48,3.3-3.3,3.3h-22.39c-1.82,0-3.3-1.48-3.3-3.3,0-.88.35-1.71.97-2.33ZM196.5,80.24h-22.39c-1.15,0-2.22.44-3.03,1.25-.81.81-1.26,1.89-1.26,3.03,0,2.36,1.92,4.28,4.29,4.28h22.39c2.37,0,4.29-1.92,4.29-4.28s-1.92-4.29-4.29-4.29ZM196.5,87.82h-22.39c-1.82,0-3.3-1.48-3.3-3.29,0-.88.35-1.71.97-2.33.62-.62,1.45-.97,2.33-.97h22.39c1.82,0,3.3,1.48,3.3,3.3s-1.48,3.29-3.3,3.29ZM215.6,70.91v-26.56c0-.73-.6-1.32-1.32-1.32h-57.95c-.73,0-1.32.59-1.32,1.32v57.95c0,.73.59,1.32,1.32,1.32h57.95c.73,0,1.32-.59,1.32-1.32v-26.56c0-.79-.65-1.43-1.44-1.43v-1.98c.79,0,1.44-.64,1.44-1.43ZM214.16,75.3c.25,0,.45.2.45.44v26.56c0,.18-.15.34-.34.34h-57.95c-.18,0-.33-.15-.33-.34v-57.95c0-.18.14-.34.33-.34h57.95c.18,0,.34.15.34.34v26.56c0,.24-.2.44-.45.44h-.99v3.95h.99ZM196.5,57.84h-22.39c-1.14,0-2.22.45-3.03,1.26-.81.81-1.26,1.89-1.26,3.03,0,2.36,1.92,4.29,4.29,4.29h22.39c2.37,0,4.29-1.92,4.29-4.29s-1.92-4.29-4.29-4.29ZM196.5,65.42h-22.39c-1.82,0-3.3-1.48-3.3-3.3,0-.88.35-1.71.97-2.33.62-.62,1.45-.97,2.33-.97h22.39c1.82,0,3.3,1.48,3.3,3.3s-1.48,3.3-3.3,3.3ZM196.5,80.24h-22.39c-1.15,0-2.22.44-3.03,1.25-.81.81-1.26,1.89-1.26,3.03,0,2.36,1.92,4.28,4.29,4.28h22.39c2.37,0,4.29-1.92,4.29-4.28s-1.92-4.29-4.29-4.29ZM196.5,87.82h-22.39c-1.82,0-3.3-1.48-3.3-3.29,0-.88.35-1.71.97-2.33.62-.62,1.45-.97,2.33-.97h22.39c1.82,0,3.3,1.48,3.3,3.3s-1.48,3.29-3.3,3.29ZM196.5,80.24h-22.39c-1.15,0-2.22.44-3.03,1.25-.81.81-1.26,1.89-1.26,3.03,0,2.36,1.92,4.28,4.29,4.28h22.39c2.37,0,4.29-1.92,4.29-4.28s-1.92-4.29-4.29-4.29ZM196.5,87.82h-22.39c-1.82,0-3.3-1.48-3.3-3.29,0-.88.35-1.71.97-2.33.62-.62,1.45-.97,2.33-.97h22.39c1.82,0,3.3,1.48,3.3,3.3s-1.48,3.29-3.3,3.29ZM196.5,57.84h-22.39c-1.14,0-2.22.45-3.03,1.26-.81.81-1.26,1.89-1.26,3.03,0,2.36,1.92,4.29,4.29,4.29h22.39c2.37,0,4.29-1.92,4.29-4.29s-1.92-4.29-4.29-4.29ZM196.5,65.42h-22.39c-1.82,0-3.3-1.48-3.3-3.3,0-.88.35-1.71.97-2.33.62-.62,1.45-.97,2.33-.97h22.39c1.82,0,3.3,1.48,3.3,3.3s-1.48,3.3-3.3,3.3ZM196.5,57.84h-22.39c-1.14,0-2.22.45-3.03,1.26-.81.81-1.26,1.89-1.26,3.03,0,2.36,1.92,4.29,4.29,4.29h22.39c2.37,0,4.29-1.92,4.29-4.29s-1.92-4.29-4.29-4.29ZM196.5,65.42h-22.39c-1.82,0-3.3-1.48-3.3-3.3,0-.88.35-1.71.97-2.33.62-.62,1.45-.97,2.33-.97h22.39c1.82,0,3.3,1.48,3.3,3.3s-1.48,3.3-3.3,3.3ZM196.5,80.24h-22.39c-1.15,0-2.22.44-3.03,1.25-.81.81-1.26,1.89-1.26,3.03,0,2.36,1.92,4.28,4.29,4.28h22.39c2.37,0,4.29-1.92,4.29-4.28s-1.92-4.29-4.29-4.29ZM196.5,87.82h-22.39c-1.82,0-3.3-1.48-3.3-3.29,0-.88.35-1.71.97-2.33.62-.62,1.45-.97,2.33-.97h22.39c1.82,0,3.3,1.48,3.3,3.3s-1.48,3.29-3.3,3.29Z" style="fill: #fff; opacity: .13;"/>
        <path d="M362.91,15.76h-76.59c-10.65,0-19.31,8.66-19.31,19.31v.86h4.19v-.86c0-8.34,6.79-15.12,15.12-15.12h76.59c8.34,0,15.12,6.78,15.12,15.12v76.59c0,8.34-6.78,15.12-15.12,15.12h-76.59c-8.34,0-15.12-6.78-15.12-15.12v-2.13h-4.19v2.13c0,10.65,8.66,19.31,19.31,19.31h76.59c10.65,0,19.31-8.66,19.31-19.31V35.07c0-10.65-8.66-19.31-19.31-19.31ZM381.24,111.66c0,10.1-8.22,18.32-18.32,18.32h-76.59c-10.1,0-18.32-8.22-18.32-18.32v-1.15h2.21v1.15c0,8.88,7.23,16.11,16.11,16.11h76.59c8.88,0,16.11-7.23,16.11-16.11V35.07c0-8.88-7.23-16.11-16.11-16.11h-76.59c-8.84,0-16.03,7.15-16.11,15.98h-2.21c.07-10.04,8.26-18.19,18.32-18.19h76.59c10.1,0,18.32,8.22,18.32,18.32v76.59Z" style="fill: #fff; opacity: .13;"/>
        <path d="M362.91,15.76h-76.59c-10.65,0-19.31,8.66-19.31,19.31v.86h4.19v-.86c0-8.34,6.79-15.12,15.12-15.12h76.59c8.34,0,15.12,6.78,15.12,15.12v76.59c0,8.34-6.78,15.12-15.12,15.12h-76.59c-8.34,0-15.12-6.78-15.12-15.12v-2.13h-4.19v2.13c0,10.65,8.66,19.31,19.31,19.31h76.59c10.65,0,19.31-8.66,19.31-19.31V35.07c0-10.65-8.66-19.31-19.31-19.31ZM381.24,111.66c0,10.1-8.22,18.32-18.32,18.32h-76.59c-10.1,0-18.32-8.22-18.32-18.32v-1.15h2.21v1.15c0,8.88,7.23,16.11,16.11,16.11h76.59c8.88,0,16.11-7.23,16.11-16.11V35.07c0-8.88-7.23-16.11-16.11-16.11h-76.59c-8.84,0-16.03,7.15-16.11,15.98h-2.21c.07-10.04,8.26-18.19,18.32-18.19h76.59c10.1,0,18.32,8.22,18.32,18.32v76.59Z" style="fill: #fff; opacity: .13;"/>
      </g>
    </g>
  </g>
</svg>