<?xml version="1.0" encoding="UTF-8"?>
<svg id="Layer_2" xmlns="http://www.w3.org/2000/svg" viewBox="0 0 148.35 32.42">
  <g id="Layer_1-2" data-name="Layer_1">
    <g>
      <g>
        <path d="M9.14,0h124.72c5.04,0,9.13,4.09,9.13,9.13v8.8c0,5.04-4.09,9.13-9.13,9.13H9.13c-5.04,0-9.13-4.09-9.13-9.13v-8.79C0,4.09,4.09,0,9.14,0Z"/>
        <path d="M9.39.26h124.72c5.04,0,9.13,4.09,9.13,9.13v8.8c0,5.04-4.09,9.13-9.13,9.13H9.39C4.35,27.32.26,23.23.26,18.19v-8.79C.26,4.35,4.35.26,9.39.26Z"/>
        <path d="M9.65.51h124.72c5.04,0,9.13,4.09,9.13,9.13v8.8c0,5.04-4.09,9.13-9.13,9.13H9.64c-5.04,0-9.13-4.09-9.13-9.13v-8.79C.51,4.6,4.6.51,9.65.51Z"/>
        <path d="M9.9.77h124.72c5.04,0,9.13,4.09,9.13,9.13v8.8c0,5.04-4.09,9.13-9.13,9.13H9.9c-5.04,0-9.13-4.09-9.13-9.13v-8.79C.77,4.86,4.86.77,9.9.77Z"/>
        <path d="M10.16,1.02h124.72c5.04,0,9.13,4.09,9.13,9.13v8.8c0,5.04-4.09,9.13-9.13,9.13H10.15c-5.04,0-9.13-4.09-9.13-9.13v-8.79C1.02,5.11,5.11,1.02,10.16,1.02Z"/>
        <path d="M10.41,1.28h124.72c5.04,0,9.13,4.09,9.13,9.13v8.8c0,5.04-4.09,9.13-9.13,9.13H10.41c-5.04,0-9.13-4.09-9.13-9.13v-8.79C1.28,5.37,5.37,1.28,10.41,1.28Z"/>
        <path d="M10.67,1.53h124.72c5.04,0,9.13,4.09,9.13,9.13v8.8c0,5.04-4.09,9.13-9.13,9.13H10.66c-5.04,0-9.13-4.09-9.13-9.13v-8.79C1.53,5.62,5.62,1.53,10.67,1.53Z"/>
        <rect x="1.79" y="1.79" width="142.99" height="27.07" rx="9.13" ry="9.13"/>
        <path d="M11.18,2.04h124.72c5.04,0,9.13,4.09,9.13,9.13v8.8c0,5.04-4.09,9.13-9.13,9.13H11.17c-5.04,0-9.13-4.09-9.13-9.13v-8.79C2.04,6.13,6.13,2.04,11.18,2.04Z"/>
        <path d="M11.43,2.3h124.72c5.04,0,9.13,4.09,9.13,9.13v8.8c0,5.04-4.09,9.13-9.13,9.13H11.43c-5.04,0-9.13-4.09-9.13-9.13v-8.79C2.3,6.39,6.39,2.3,11.43,2.3Z"/>
        <path d="M11.69,2.55h124.72c5.04,0,9.13,4.09,9.13,9.13v8.8c0,5.04-4.09,9.13-9.13,9.13H11.68c-5.04,0-9.13-4.09-9.13-9.13v-8.79C2.55,6.64,6.64,2.55,11.69,2.55Z"/>
        <path d="M11.94,2.81h124.72c5.04,0,9.13,4.09,9.13,9.13v8.8c0,5.04-4.09,9.13-9.13,9.13H11.94c-5.04,0-9.13-4.09-9.13-9.13v-8.79C2.81,6.9,6.9,2.81,11.94,2.81Z"/>
        <path d="M12.2,3.06h124.72c5.04,0,9.13,4.09,9.13,9.13v8.8c0,5.04-4.09,9.13-9.13,9.13H12.19c-5.04,0-9.13-4.09-9.13-9.13v-8.79C3.06,7.15,7.15,3.06,12.2,3.06Z"/>
        <path d="M12.45,3.32h124.72c5.04,0,9.13,4.09,9.13,9.13v8.8c0,5.04-4.09,9.13-9.13,9.13H12.45c-5.04,0-9.13-4.09-9.13-9.13v-8.79C3.32,7.41,7.41,3.32,12.45,3.32Z"/>
        <path d="M12.71,3.57h124.72c5.04,0,9.14,4.09,9.14,9.14v8.79c0,5.04-4.09,9.13-9.13,9.13H12.7c-5.04,0-9.13-4.09-9.13-9.13v-8.79C3.57,7.66,7.66,3.57,12.71,3.57Z"/>
        <rect x="3.83" y="3.83" width="142.99" height="27.07" rx="9.13" ry="9.13"/>
        <path d="M13.22,4.08h124.72c5.04,0,9.13,4.09,9.13,9.13v8.8c0,5.04-4.09,9.13-9.13,9.13H13.22c-5.04,0-9.13-4.09-9.13-9.13v-8.79c0-5.04,4.09-9.14,9.14-9.14Z"/>
        <path d="M13.47,4.34h124.72c5.04,0,9.13,4.09,9.13,9.13v8.8c0,5.04-4.09,9.13-9.13,9.13H13.47c-5.04,0-9.13-4.09-9.13-9.13v-8.79c0-5.04,4.09-9.14,9.14-9.14Z"/>
        <path d="M13.73,4.59h124.72c5.04,0,9.13,4.09,9.13,9.13v8.8c0,5.04-4.09,9.13-9.13,9.13H13.73c-5.04,0-9.13-4.09-9.13-9.13v-8.79c0-5.04,4.09-9.14,9.14-9.14Z"/>
        <path d="M13.98,4.85h124.72c5.04,0,9.13,4.09,9.13,9.13v8.8c0,5.04-4.09,9.13-9.13,9.13H13.98c-5.04,0-9.13-4.09-9.13-9.13v-8.79c0-5.04,4.09-9.14,9.14-9.14Z"/>
        <path d="M14.24,5.1h124.72c5.04,0,9.13,4.09,9.13,9.13v8.8c0,5.04-4.09,9.13-9.13,9.13H14.24c-5.04,0-9.13-4.09-9.13-9.13v-8.79c0-5.04,4.09-9.14,9.14-9.14Z"/>
        <path d="M14.49,5.36h124.72c5.04,0,9.13,4.09,9.13,9.13v8.8c0,5.04-4.09,9.13-9.13,9.13H14.49c-5.04,0-9.13-4.09-9.13-9.13v-8.79c0-5.04,4.09-9.14,9.14-9.14Z"/>
      </g>
      <rect x="2" y="2" width="138.99" height="23.07" rx="7.14" ry="7.14" style="fill: #0071bc;"/>
      <g>
        <path d="M16.9,18.93v-10.4h3.19v10.4h-3.19Z" style="fill: #fff;"/>
        <path d="M21.08,18.93v-10.4h9.78c.1.02.18.03.23.03s.1,0,.16.02c.05,0,.11.03.16.05s.1.04.16.05c.05,0,.11.03.16.05.05.02.1.04.16.06.05.02.11.05.16.08.05.03.1.07.16.1.05.03.11.06.16.09.05.03.1.07.16.11.05.04.11.09.16.13s.1.08.16.12c.05.04.1.08.14.13v.03l.63,1.04c.04.1.07.18.08.23s.04.13.08.23v.06l.06.16v.38l.03.03v7.22h-3.21v-7.22h-6.38v7.22h-3.18Z" style="fill: #fff;"/>
        <path d="M34.85,18.93v-10.42h3.19v7.22h6.4v-7.22h3.19v1.99l.02.02v5.06l-.02.03v.4c-.01.09-.03.15-.04.19,0,.04-.01.08-.01.12s0,.08-.01.13-.02.09-.04.13c-.02.04-.03.08-.04.12-.01.04-.02.08-.04.13-.02.04-.03.09-.05.13-.02.04-.03.08-.05.12-.02.04-.03.08-.05.13-.02.04-.04.09-.06.13-.02.04-.05.08-.09.12s-.06.08-.09.13c-.02.04-.06.09-.1.13-.04.04-.08.08-.11.12-.03.04-.06.08-.1.13-.03.04-.07.08-.1.12h-.03l-.95.6-.31.1c-.08.03-.14.05-.19.06-.04,0-.11.02-.19.04h-.1c-.08.01-.14.02-.19.03-.04,0-.09.01-.13.01h-9.72Z" style="fill: #fff;"/>
        <path d="M51.57,18.93c-.12-.02-.2-.03-.25-.03s-.11-.01-.17-.04c-.06-.02-.12-.04-.17-.05-.06-.01-.12-.03-.17-.05-.06-.02-.12-.05-.17-.07-.06-.02-.12-.04-.17-.07-.06-.02-.12-.05-.17-.09s-.11-.07-.17-.1c-.05-.03-.11-.07-.17-.12-.06-.05-.12-.09-.17-.14s-.12-.09-.17-.14c-.06-.05-.12-.1-.17-.16l-.12-.12v-.03l-.48-.83-.17-.52v-.75l-.03-.03v-3.99c.02-.12.03-.2.03-.26s0-.12.02-.17.03-.11.05-.17c.02-.05.05-.11.07-.17.02-.06.04-.12.05-.17,0-.06.03-.12.07-.17.03-.06.07-.12.1-.17.03-.06.06-.12.09-.17.02-.06.06-.11.11-.17.05-.05.09-.11.14-.17.04-.06.09-.12.13-.17.04-.06.12-.14.24-.26h.04l.99-.62.59-.16h.03c.12-.03.2-.05.26-.06.06,0,.12-.01.17-.01h6.54c.12.02.2.03.25.03s.11,0,.17.02c.06.01.12.03.17.04.06,0,.12.03.17.05.06.02.12.04.17.05.06,0,.12.03.17.07s.12.06.17.09c.06.02.11.05.17.09.05.03.11.07.17.12.06.04.12.08.17.12s.12.08.17.12c.06.04.13.11.22.21v.03l.65,1.03v.03c.05.12.08.2.09.26.01.06.03.14.06.26v.03c.02.12.03.2.03.26s0,.12.02.17.02.12.02.17v3.18h-9.59v1.58h9.59v2.4h-9.83ZM58.2,12.47v-1.54h-6.39v1.54h6.39Z" style="fill: #fff;"/>
        <path d="M62.39,18.93v-10.4h9.78c.1.02.18.03.23.03s.1,0,.16.02c.05,0,.11.03.16.05s.1.04.16.05c.05,0,.11.03.16.05.05.02.1.04.16.06.05.02.11.05.16.08.05.03.1.07.16.1.05.03.11.06.16.09.05.03.1.07.16.11.05.04.11.09.16.13s.1.08.16.12c.05.04.1.08.14.13v.03l.63,1.04c.04.1.07.18.08.23s.04.13.08.23v.06l.06.16v.38l.03.03v7.22h-3.21v-7.22h-6.38v7.22h-3.18Z" style="fill: #fff;"/>
        <path d="M80.98,18.93v-7.2h-4.83v-3.21h12.84v3.21h-4.82v7.2h-3.19Z" style="fill: #fff;"/>
        <path d="M92.96,18.93c-.11-.02-.19-.03-.24-.03s-.11,0-.16-.02c-.05-.01-.11-.03-.16-.05s-.11-.04-.16-.05c-.05-.01-.11-.03-.16-.05-.05-.02-.11-.04-.16-.06s-.11-.05-.16-.08c-.05-.03-.11-.07-.16-.1-.05-.03-.11-.07-.16-.1-.05-.03-.11-.07-.16-.11-.05-.04-.11-.09-.16-.15s-.11-.1-.16-.15c-.05-.04-.09-.08-.11-.1v-.03l-.65-1.08-.16-.55v-.03c-.02-.11-.04-.19-.05-.25-.01-.05-.02-.11-.02-.16v-4.2c.02-.11.04-.19.05-.24,0-.05.02-.11.02-.16s0-.11.03-.16c.02-.05.04-.11.05-.16.01-.05.03-.11.05-.16.02-.05.04-.11.06-.16s.05-.11.08-.16c.03-.05.07-.11.1-.16s.07-.11.1-.16c.03-.05.07-.11.11-.16.04-.05.09-.11.13-.16.04-.05.09-.11.13-.16.04-.05.09-.1.13-.14h.03l.98-.62.56-.16h.03c.11-.02.19-.04.25-.05.05-.01.14-.03.25-.05h6.56c.11.02.19.03.25.03s.11,0,.16.02c.05,0,.11.03.16.05.05.02.11.04.16.05s.11.03.16.05.11.04.16.06.11.05.16.08c.05.03.11.06.16.08.05.02.11.05.16.08.05.03.11.07.16.12.05.04.11.09.16.13.05.04.11.09.16.13s.1.08.14.13v.03l.65,1.04.2.59v.06l.03.04v.39l-.03.03v4.38c-.03.11-.05.19-.07.25-.02.05-.04.11-.05.16,0,.05-.03.11-.05.16-.02.05-.05.11-.07.16s-.04.11-.06.16c-.02.05-.05.11-.08.16-.03.05-.06.11-.08.16-.02.05-.05.11-.1.16-.04.05-.09.11-.13.16-.04.05-.09.11-.13.16-.04.05-.12.14-.23.25h-.03l-1.04.65-.59.19h-.06l-.04.03h-6.89ZM99.46,15.66v-3.95h-6.37v3.95h6.37Z" style="fill: #fff;"/>
        <path d="M103.7,18.93v-10.4h9.79c.12.03.2.05.27.06.06.01.12.02.18.02s.12.01.18.04c.06.02.12.04.18.06s.12.03.18.06c.06.02.12.05.18.07.06.02.12.05.18.09.06.04.12.07.18.11s.12.08.18.12c.06.05.12.1.18.16.06.06.12.12.18.16s.11.09.16.14v.04l.65,1.01v.04c.05.12.08.2.09.26.01.06.03.15.05.28v.03c.03.12.05.21.06.28,0,.06.02.14.02.23-.02.12-.04.21-.05.27s-.02.12-.02.18v.13c-.05.12-.08.2-.09.27-.01.06-.03.13-.06.2l-.43.72.5.8v.03c.05.12.07.21.07.27s.01.1.04.13v4.15h-3.21v-4.01h-6.44v4.01h-3.21ZM113.35,12.5v-1.59h-6.44v1.59h6.44Z" style="fill: #fff;"/>
        <path d="M122.29,18.93v-3.21h-1.77l-.02-.02h-.29c-.09-.02-.16-.04-.2-.05-.05-.01-.09-.02-.14-.03-.04,0-.09-.02-.14-.04-.05-.02-.09-.04-.14-.06-.05-.02-.09-.04-.14-.06s-.09-.04-.14-.07-.09-.06-.14-.1c-.04-.04-.09-.07-.14-.1-.05-.03-.09-.05-.14-.08s-.09-.06-.14-.11-.1-.09-.14-.12c-.05-.03-.09-.07-.14-.11-.04-.04-.09-.09-.15-.15v-.02l-.66-1.05c-.04-.1-.07-.17-.09-.21-.02-.05-.03-.1-.03-.15-.02-.09-.04-.16-.05-.2-.01-.05-.02-.09-.02-.14v-.16l-.02-.02v-4.16h3.18v4.02h6.46v-4.02h3.18v4.16l-.03.02v.29c-.01.09-.03.16-.04.2-.01.05-.02.09-.03.14,0,.04-.02.09-.04.14-.02.05-.04.09-.06.14-.02.04-.04.09-.07.14-.03.05-.05.1-.08.14-.03.05-.05.09-.08.14-.03.04-.05.09-.08.14-.03.05-.05.09-.08.14-.03.04-.07.09-.11.14-.05.05-.09.09-.13.14-.04.04-.07.09-.11.14-.04.05-.06.08-.08.1h-.03l-1.11.71c-.09.04-.16.07-.2.09-.05.02-.1.03-.15.03-.1.02-.17.04-.21.05-.04.01-.09.02-.14.02h-.15l-.03.02h-1.77v3.21h-3.18Z" style="fill: #fff;"/>
      </g>
    </g>
  </g>
</svg>