<?xml version="1.0" encoding="UTF-8"?>
<svg id="Layer_2" xmlns="http://www.w3.org/2000/svg" viewBox="0 0 530 520.76">
  <g id="Layer_1-2" data-name="Layer_1">
    <g>
      <path d="M521,255.76c0-116-77.1-213.9-182.8-245.4-3.05-.92-6.14-1.36-9.17-1.36-13.75,0-26.45,9.01-30.63,22.86-5.1,16.9,4.6,34.8,21.5,39.8,79.3,23.7,137.1,97.2,137.1,184.1,0,106-86,192-192,192s-192-86-192-192c0-86.9,57.8-160.4,137.2-184.1,16.9-5,26.5-22.9,21.5-39.8-4.1-13.87-16.9-22.82-30.69-22.82-3.01,0-6.08.43-9.11,1.32C86.1,41.86,9,139.76,9,255.76c0,141.4,114.6,256,256,256s256-114.6,256-256Z" style="fill: #fbb03b;"/>
      <path d="M515.82,170c-9.1-26.62-22.36-51.54-39.4-74.06-16.86-22.27-37.01-41.66-59.91-57.64-23.22-16.21-48.7-28.51-75.74-36.57-3.8-1.15-7.76-1.73-11.74-1.73-8.63,0-17.23,2.84-24.24,7.99-7.22,5.31-12.41,12.67-15.01,21.27-3.16,10.47-2.03,21.56,3.19,31.22,5.22,9.67,13.88,16.7,24.38,19.81,18.64,5.57,36.24,14.08,52.27,25.29,15.82,11.05,29.74,24.47,41.39,39.86,24.2,31.98,36.99,70.13,36.99,110.32,0,24.7-4.84,48.66-14.38,71.21-9.22,21.79-22.42,41.36-39.23,58.17-16.81,16.81-36.39,30.01-58.17,39.23-22.55,9.54-46.51,14.38-71.21,14.38s-48.66-4.84-71.21-14.38c-21.79-9.22-41.36-22.42-58.17-39.23-16.81-16.81-30.01-36.39-39.23-58.17-9.54-22.55-14.38-46.51-14.38-71.21,0-40.19,12.79-78.34,37-110.32,11.65-15.4,25.59-28.81,41.42-39.86,16.05-11.21,33.66-19.72,52.36-25.3,21.61-6.39,33.98-29.26,27.56-50.98C235.23,12.07,219.06.04,201.01.04c-3.94,0-7.86.57-11.66,1.69-27.08,8.06-52.58,20.36-75.81,36.57-22.91,15.98-43.07,35.37-59.94,57.64-17.05,22.52-30.32,47.44-39.42,74.06C4.77,197.53,0,226.39,0,255.76c0,35.77,7.01,70.48,20.83,103.16,13.35,31.56,32.45,59.9,56.78,84.23s52.67,43.44,84.23,56.78c32.68,13.82,67.38,20.83,103.16,20.83s70.48-7.01,103.16-20.83c31.56-13.35,59.9-32.45,84.23-56.78s43.44-52.67,56.78-84.23c13.82-32.68,20.83-67.38,20.83-103.16,0-29.37-4.77-58.23-14.18-85.76ZM9,255.76C9,139.76,86.1,41.86,191.9,10.36c3.03-.9,6.09-1.32,9.11-1.32,13.8,0,26.59,8.95,30.69,22.82,5,16.9-4.6,34.8-21.5,39.8-79.4,23.7-137.2,97.2-137.2,184.1,0,106,86,192,192,192s192-86,192-192c0-86.9-57.8-160.4-137.1-184.1-16.9-5-26.6-22.9-21.5-39.8,4.18-13.85,16.88-22.86,30.63-22.86,3.03,0,6.11.44,9.17,1.36,105.7,31.5,182.8,129.4,182.8,245.4,0,141.4-114.6,256-256,256S9,397.16,9,255.76Z"/>
    </g>
  </g>
</svg>