<?xml version="1.0" encoding="UTF-8"?>
<svg id="Layer_2" xmlns="http://www.w3.org/2000/svg" viewBox="0 0 37.64 37.64">
  <g id="Layer_1-2" data-name="Layer_1">
    <g>
      <path d="M18.82,37.64c-5.03,0-9.75-1.96-13.31-5.51S0,23.85,0,18.82,1.96,9.07,5.51,5.51,13.79,0,18.82,0s9.75,1.96,13.31,5.51,5.51,8.28,5.51,13.31-1.96,9.75-5.51,13.31-8.28,5.51-13.31,5.51ZM18.82,1.93C9.51,1.93,1.93,9.51,1.93,18.82s7.58,16.89,16.89,16.89,16.89-7.58,16.89-16.89S28.13,1.93,18.82,1.93Z" style="fill: #fff;"/>
      <path d="M18.82,37.64c-3.37,0-6.51-2.02-8.83-5.68-2.24-3.53-3.47-8.19-3.47-13.14s1.23-9.62,3.47-13.14C12.31,2.02,15.45,0,18.82,0s6.51,2.02,8.83,5.68c2.24,3.53,3.47,8.19,3.47,13.14s-1.23,9.62-3.47,13.14c-2.33,3.66-5.46,5.68-8.83,5.68ZM18.82,1.93c-2.69,0-5.25,1.7-7.2,4.78-2.04,3.22-3.17,7.52-3.17,12.11s1.13,8.89,3.17,12.11c1.96,3.08,4.52,4.78,7.2,4.78s5.25-1.7,7.2-4.78c2.04-3.22,3.17-7.52,3.17-12.11s-1.13-8.89-3.17-12.11c-1.96-3.08-4.52-4.78-7.2-4.78Z" style="fill: #fff;"/>
      <path d="M18.82,37.64c-1.69,0-2.96-1.95-3.91-5.97-.81-3.44-1.26-8-1.26-12.85s.45-9.4,1.26-12.85c.95-4.02,2.22-5.97,3.91-5.97s2.96,1.95,3.91,5.97c.81,3.44,1.26,8,1.26,12.85s-.45,9.4-1.26,12.85c-.95,4.02-2.22,5.97-3.91,5.97ZM18.82,1.93c-.19,0-1.16.8-2.03,4.48-.78,3.3-1.2,7.71-1.2,12.4s.43,9.1,1.2,12.4c.87,3.69,1.84,4.48,2.03,4.48s1.16-.8,2.03-4.48c.78-3.3,1.2-7.71,1.2-12.4s-.43-9.1-1.2-12.4c-.87-3.69-1.84-4.48-2.03-4.48Z" style="fill: #fff;"/>
      <path d="M18.82,21.51c-4.8,0-9.32-.18-12.72-.51-1.68-.16-3.01-.35-3.95-.57-.75-.17-2.15-.49-2.15-1.61h1.93c0-.3-.16-.5-.24-.55.03.02.8.5,5.49.89,3.22.27,7.36.42,11.64.42s8.42-.15,11.64-.42c4.69-.39,5.46-.87,5.49-.89-.08.05-.24.26-.24.55h1.93c0,1.12-1.4,1.44-2.15,1.61-.94.21-2.27.41-3.95.57-3.4.33-7.92.51-12.72.51Z" style="fill: #fff;"/>
    </g>
  </g>
</svg>