<?xml version="1.0" encoding="UTF-8"?>
<svg id="Layer_2" xmlns="http://www.w3.org/2000/svg" viewBox="0 0 521 521">
  <g id="Layer_1-2" data-name="Layer_1">
    <g>
      <g>
        <path d="M262.5,4c-27.85,0-50.5,22.65-50.5,50.5,0,16.79,8.24,31.69,20.88,40.88,8.33,6.05,18.56,9.62,29.62,9.62,27.85,0,50.5-22.65,50.5-50.5s-22.65-50.5-50.5-50.5Z"/>
        <g>
          <circle cx="258.5" cy="50.5" r="48" style="fill: #fbb03b;"/>
          <path d="M258.5,0c-27.85,0-50.5,22.65-50.5,50.5s22.65,50.5,50.5,50.5,50.5-22.65,50.5-50.5S286.35,0,258.5,0ZM258.5,98.5c-26.51,0-48-21.49-48-48S231.99,2.5,258.5,2.5s48,21.49,48,48-21.49,48-48,48Z"/>
        </g>
      </g>
      <g>
        <path d="M115.97,64.41c-27.85,0-50.5,22.65-50.5,50.5,0,16.79,8.24,31.69,20.88,40.88,8.33,6.05,18.56,9.62,29.62,9.62,27.85,0,50.5-22.65,50.5-50.5s-22.65-50.5-50.5-50.5Z"/>
        <g>
          <circle cx="111.97" cy="110.91" r="48" style="fill: #fbb03b;"/>
          <path d="M111.97,60.41c-27.85,0-50.5,22.65-50.5,50.5s22.65,50.5,50.5,50.5,50.5-22.65,50.5-50.5-22.65-50.5-50.5-50.5ZM111.97,158.91c-26.51,0-48-21.49-48-48s21.49-48,48-48,48,21.49,48,48-21.49,48-48,48Z"/>
        </g>
      </g>
      <g>
        <path d="M54.5,212c-27.85,0-50.5,22.65-50.5,50.5,0,16.79,8.24,31.69,20.88,40.88,8.33,6.05,18.56,9.62,29.62,9.62,27.85,0,50.5-22.65,50.5-50.5s-22.65-50.5-50.5-50.5Z"/>
        <g>
          <circle cx="50.5" cy="258.5" r="48" style="fill: #fbb03b;"/>
          <path d="M50.5,208c-27.85,0-50.5,22.65-50.5,50.5s22.65,50.5,50.5,50.5,50.5-22.65,50.5-50.5-22.65-50.5-50.5-50.5ZM50.5,306.5c-26.51,0-48-21.49-48-48s21.49-48,48-48,48,21.49,48,48-21.49,48-48,48Z"/>
        </g>
      </g>
      <g>
        <path d="M115.97,361.59c-27.85,0-50.5,22.65-50.5,50.5,0,16.79,8.24,31.69,20.88,40.88,8.33,6.05,18.56,9.62,29.62,9.62,27.85,0,50.5-22.65,50.5-50.5s-22.65-50.5-50.5-50.5Z"/>
        <g>
          <circle cx="111.97" cy="408.09" r="48" style="fill: #fbb03b;"/>
          <path d="M111.97,357.59c-27.85,0-50.5,22.65-50.5,50.5s22.65,50.5,50.5,50.5,50.5-22.65,50.5-50.5-22.65-50.5-50.5-50.5ZM111.97,456.09c-26.51,0-48-21.49-48-48s21.49-48,48-48,48,21.49,48,48-21.49,48-48,48Z"/>
        </g>
      </g>
      <g>
        <path d="M264.5,420c-27.85,0-50.5,22.65-50.5,50.5,0,16.79,8.24,31.69,20.88,40.88,8.33,6.05,18.56,9.62,29.62,9.62,27.85,0,50.5-22.65,50.5-50.5s-22.65-50.5-50.5-50.5Z"/>
        <g>
          <circle cx="260.5" cy="466.5" r="48" style="fill: #fbb03b;"/>
          <path d="M260.5,416c-27.85,0-50.5,22.65-50.5,50.5s22.65,50.5,50.5,50.5,50.5-22.65,50.5-50.5-22.65-50.5-50.5-50.5ZM260.5,514.5c-26.51,0-48-21.49-48-48s21.49-48,48-48,48,21.49,48,48-21.49,48-48,48Z"/>
        </g>
      </g>
      <g>
        <path d="M409.55,359.59c-27.85,0-50.5,22.65-50.5,50.5,0,16.79,8.24,31.69,20.88,40.88,8.33,6.05,18.56,9.62,29.62,9.62,27.85,0,50.5-22.65,50.5-50.5s-22.65-50.5-50.5-50.5Z"/>
        <g>
          <circle cx="405.55" cy="406.09" r="48" style="fill: #fbb03b;"/>
          <path d="M405.55,355.59c-27.85,0-50.5,22.65-50.5,50.5s22.65,50.5,50.5,50.5,50.5-22.65,50.5-50.5-22.65-50.5-50.5-50.5ZM405.55,454.09c-26.51,0-48-21.49-48-48s21.49-48,48-48,48,21.49,48,48-21.49,48-48,48Z"/>
        </g>
      </g>
      <g>
        <path d="M470.5,214c-27.85,0-50.5,22.65-50.5,50.5,0,16.79,8.24,31.69,20.88,40.88,8.33,6.05,18.56,9.62,29.62,9.62,27.85,0,50.5-22.65,50.5-50.5s-22.65-50.5-50.5-50.5Z"/>
        <g>
          <circle cx="466.5" cy="260.5" r="48" style="fill: #fbb03b;"/>
          <path d="M466.5,210c-27.85,0-50.5,22.65-50.5,50.5s22.65,50.5,50.5,50.5,50.5-22.65,50.5-50.5-22.65-50.5-50.5-50.5ZM466.5,308.5c-26.51,0-48-21.49-48-48s21.49-48,48-48,48,21.49,48,48-21.49,48-48,48Z"/>
        </g>
      </g>
    </g>
  </g>
</svg>