<?xml version="1.0" encoding="UTF-8"?>
<svg id="Layer_2" xmlns="http://www.w3.org/2000/svg" viewBox="0 0 133.17 38.12">
  <defs>
    <style>
      .cls-1 {
        fill: #666;
      }
    </style>
  </defs>
  <g id="Layer_1-2" data-name="Layer_1">
    <g>
      <g>
        <path d="M16.72,33.44C7.5,33.44,0,25.94,0,16.72S7.5,0,16.72,0h95.05c9.22,0,16.72,7.5,16.72,16.72s-7.5,16.72-16.72,16.72H16.72Z"/>
        <path d="M16.94,33.67C7.72,33.67.22,26.16.22,16.94S7.72.22,16.94.22h95.05c9.22,0,16.72,7.5,16.72,16.72s-7.5,16.72-16.72,16.72H16.94Z"/>
        <path d="M17.17,33.89C7.95,33.89.45,26.39.45,17.17S7.95.45,17.17.45h95.05c9.22,0,16.72,7.5,16.72,16.72s-7.5,16.72-16.72,16.72H17.17Z"/>
        <path d="M17.39,34.11C8.17,34.11.67,26.61.67,17.39S8.17.67,17.39.67h95.05c9.22,0,16.72,7.5,16.72,16.72s-7.5,16.72-16.72,16.72H17.39Z"/>
        <path d="M17.61,34.33C8.39,34.33.89,26.83.89,17.61S8.39.89,17.61.89h95.05c9.22,0,16.72,7.5,16.72,16.72s-7.5,16.72-16.72,16.72H17.61Z"/>
        <path d="M17.83,34.56c-9.22,0-16.72-7.5-16.72-16.72S8.61,1.11,17.83,1.11h95.05c9.22,0,16.72,7.5,16.72,16.72s-7.5,16.72-16.72,16.72H17.83Z"/>
        <path d="M18.06,34.78c-9.22,0-16.72-7.5-16.72-16.72S8.84,1.34,18.06,1.34h95.05c9.22,0,16.72,7.5,16.72,16.72s-7.5,16.72-16.72,16.72H18.06Z"/>
        <path d="M18.28,35c-9.22,0-16.72-7.5-16.72-16.72S9.06,1.56,18.28,1.56h95.05c9.22,0,16.72,7.5,16.72,16.72s-7.5,16.72-16.72,16.72H18.28Z"/>
        <path d="M18.5,35.22c-9.22,0-16.72-7.5-16.72-16.72S9.28,1.78,18.5,1.78h95.05c9.22,0,16.72,7.5,16.72,16.72s-7.5,16.72-16.72,16.72H18.5Z"/>
        <path d="M18.73,35.45c-9.22,0-16.72-7.5-16.72-16.72S9.5,2,18.73,2h95.05c9.22,0,16.72,7.5,16.72,16.72s-7.5,16.72-16.72,16.72H18.73Z"/>
        <path d="M18.95,35.67c-9.22,0-16.72-7.5-16.72-16.72S9.73,2.23,18.95,2.23h95.05c9.22,0,16.72,7.5,16.72,16.72s-7.5,16.72-16.72,16.72H18.95Z"/>
        <path d="M19.17,35.89c-9.22,0-16.72-7.5-16.72-16.72S9.95,2.45,19.17,2.45h95.05c9.22,0,16.72,7.5,16.72,16.72s-7.5,16.72-16.72,16.72H19.17Z"/>
        <path d="M19.39,36.11c-9.22,0-16.72-7.5-16.72-16.72S10.17,2.67,19.39,2.67h95.05c9.22,0,16.72,7.5,16.72,16.72s-7.5,16.72-16.72,16.72H19.39Z"/>
        <path d="M19.62,36.34c-9.22,0-16.72-7.5-16.72-16.72S10.4,2.89,19.62,2.89h95.05c9.22,0,16.72,7.5,16.72,16.72s-7.5,16.72-16.72,16.72H19.62Z"/>
        <path d="M19.84,36.56c-9.22,0-16.72-7.5-16.72-16.72S10.62,3.12,19.84,3.12h95.05c9.22,0,16.72,7.5,16.72,16.72s-7.5,16.72-16.72,16.72H19.84Z"/>
        <path d="M20.06,36.78c-9.22,0-16.72-7.5-16.72-16.72S10.84,3.34,20.06,3.34h95.05c9.22,0,16.72,7.5,16.72,16.72s-7.5,16.72-16.72,16.72H20.06Z"/>
        <path d="M20.28,37c-9.22,0-16.72-7.5-16.72-16.72S11.06,3.56,20.28,3.56h95.05c9.22,0,16.72,7.5,16.72,16.72s-7.5,16.72-16.72,16.72H20.28Z"/>
        <path d="M20.51,37.23c-9.22,0-16.72-7.5-16.72-16.72S11.29,3.78,20.51,3.78h95.05c9.22,0,16.72,7.5,16.72,16.72s-7.5,16.72-16.72,16.72H20.51Z"/>
        <path d="M20.73,37.45c-9.22,0-16.72-7.5-16.72-16.72S11.51,4.01,20.73,4.01h95.05c9.22,0,16.72,7.5,16.72,16.72s-7.5,16.72-16.72,16.72H20.73Z"/>
        <path d="M20.95,37.67c-9.22,0-16.72-7.5-16.72-16.72S11.73,4.23,20.95,4.23h95.05c9.22,0,16.72,7.5,16.72,16.72s-7.5,16.72-16.72,16.72H20.95Z"/>
        <path d="M21.17,37.9c-9.22,0-16.72-7.5-16.72-16.72S11.95,4.45,21.17,4.45h95.05c9.22,0,16.72,7.5,16.72,16.72s-7.5,16.72-16.72,16.72H21.17Z"/>
        <path d="M21.4,38.12c-9.22,0-16.72-7.5-16.72-16.72S12.18,4.67,21.4,4.67h95.05c9.22,0,16.72,7.5,16.72,16.72s-7.5,16.72-16.72,16.72H21.4Z"/>
      </g>
      <rect class="cls-1" x="1.83" y="1.83" width="124.84" height="29.79" rx="14.67" ry="14.67"/>
    </g>
  </g>
</svg>