<?xml version="1.0" encoding="UTF-8"?>
<svg id="Layer_2" xmlns="http://www.w3.org/2000/svg" viewBox="0 0 53.98 52.25">
  <g id="Layer_1-2" data-name="Layer_1">
    <g>
      <g>
        <path d="M9.14,0h30.36c5.04,0,9.13,4.09,9.13,9.13v28.62c0,5.04-4.09,9.13-9.13,9.13H9.13c-5.04,0-9.13-4.09-9.13-9.13V9.14C0,4.09,4.09,0,9.14,0Z" style="fill: #750513;"/>
        <path d="M9.39.26h30.36c5.04,0,9.13,4.09,9.13,9.13v28.62c0,5.04-4.09,9.13-9.13,9.13H9.39c-5.04,0-9.13-4.09-9.13-9.13V9.39C.26,4.35,4.35.26,9.39.26Z" style="fill: #750513;"/>
        <path d="M9.65.51h30.36c5.04,0,9.13,4.09,9.13,9.13v28.62c0,5.04-4.09,9.13-9.13,9.13H9.64c-5.04,0-9.13-4.09-9.13-9.13V9.65C.51,4.6,4.6.51,9.65.51Z" style="fill: #750513;"/>
        <path d="M9.9.77h30.36c5.04,0,9.13,4.09,9.13,9.13v28.62c0,5.04-4.09,9.13-9.13,9.13H9.9c-5.04,0-9.13-4.09-9.13-9.13V9.9C.77,4.86,4.86.77,9.9.77Z" style="fill: #750513;"/>
        <path d="M10.16,1.02h30.36c5.04,0,9.13,4.09,9.13,9.13v28.62c0,5.04-4.09,9.13-9.13,9.13H10.15c-5.04,0-9.13-4.09-9.13-9.13V10.16C1.02,5.11,5.11,1.02,10.16,1.02Z" style="fill: #750513;"/>
        <path d="M10.41,1.28h30.36c5.04,0,9.13,4.09,9.13,9.13v28.62c0,5.04-4.09,9.13-9.13,9.13H10.41c-5.04,0-9.13-4.09-9.13-9.13V10.41C1.28,5.37,5.37,1.28,10.41,1.28Z" style="fill: #750513;"/>
        <path d="M10.67,1.53h30.36c5.04,0,9.13,4.09,9.13,9.13v28.62c0,5.04-4.09,9.13-9.13,9.13H10.66c-5.04,0-9.13-4.09-9.13-9.13V10.67C1.53,5.62,5.62,1.53,10.67,1.53Z" style="fill: #750513;"/>
        <path d="M10.92,1.79h30.36c5.04,0,9.13,4.09,9.13,9.13v28.62c0,5.04-4.09,9.13-9.13,9.13H10.92c-5.04,0-9.13-4.09-9.13-9.13V10.92C1.79,5.88,5.88,1.79,10.92,1.79Z" style="fill: #750513;"/>
        <path d="M11.18,2.04h30.36c5.04,0,9.13,4.09,9.13,9.13v28.62c0,5.04-4.09,9.13-9.13,9.13H11.17c-5.04,0-9.13-4.09-9.13-9.13V11.18C2.04,6.13,6.13,2.04,11.18,2.04Z" style="fill: #750513;"/>
        <path d="M11.43,2.3h30.36c5.04,0,9.13,4.09,9.13,9.13v28.62c0,5.04-4.09,9.13-9.13,9.13H11.43c-5.04,0-9.13-4.09-9.13-9.13V11.43C2.3,6.39,6.39,2.3,11.43,2.3Z" style="fill: #750513;"/>
        <path d="M11.69,2.55h30.36c5.04,0,9.13,4.09,9.13,9.13v28.62c0,5.04-4.09,9.13-9.13,9.13H11.68c-5.04,0-9.13-4.09-9.13-9.13V11.69C2.55,6.64,6.64,2.55,11.69,2.55Z" style="fill: #750513;"/>
        <path d="M11.94,2.81h30.36c5.04,0,9.13,4.09,9.13,9.13v28.62c0,5.04-4.09,9.13-9.13,9.13H11.94c-5.04,0-9.13-4.09-9.13-9.13V11.94C2.81,6.9,6.9,2.81,11.94,2.81Z" style="fill: #750513;"/>
        <path d="M12.2,3.06h30.36c5.04,0,9.13,4.09,9.13,9.13v28.62c0,5.04-4.09,9.13-9.13,9.13H12.19c-5.04,0-9.13-4.09-9.13-9.13V12.2C3.06,7.15,7.15,3.06,12.2,3.06Z" style="fill: #750513;"/>
        <path d="M12.45,3.32h30.36c5.04,0,9.13,4.09,9.13,9.13v28.62c0,5.04-4.09,9.13-9.13,9.13H12.45c-5.04,0-9.13-4.09-9.13-9.13V12.45C3.32,7.41,7.41,3.32,12.45,3.32Z" style="fill: #750513;"/>
        <path d="M12.71,3.57h30.36c5.04,0,9.13,4.09,9.13,9.13v28.62c0,5.04-4.09,9.13-9.13,9.13H12.7c-5.04,0-9.13-4.09-9.13-9.13V12.71C3.57,7.66,7.66,3.57,12.71,3.57Z" style="fill: #750513;"/>
        <path d="M12.96,3.83h30.36c5.04,0,9.13,4.09,9.13,9.13v28.62c0,5.04-4.09,9.13-9.13,9.13H12.96c-5.04,0-9.13-4.09-9.13-9.13V12.96C3.83,7.92,7.92,3.83,12.96,3.83Z" style="fill: #750513;"/>
        <path d="M13.22,4.08h30.36c5.04,0,9.13,4.09,9.13,9.13v28.62c0,5.04-4.09,9.13-9.13,9.13H13.22c-5.04,0-9.13-4.09-9.13-9.13V13.22c0-5.04,4.09-9.14,9.14-9.14Z" style="fill: #750513;"/>
        <path d="M13.47,4.34h30.36c5.04,0,9.13,4.09,9.13,9.13v28.62c0,5.04-4.09,9.13-9.13,9.13H13.47c-5.04,0-9.13-4.09-9.13-9.13V13.47c0-5.04,4.09-9.14,9.14-9.14Z" style="fill: #750513;"/>
        <path d="M13.73,4.59h30.36c5.04,0,9.13,4.09,9.13,9.13v28.62c0,5.04-4.09,9.13-9.13,9.13H13.73c-5.04,0-9.13-4.09-9.13-9.13V13.73c0-5.04,4.09-9.14,9.14-9.14Z" style="fill: #750513;"/>
        <path d="M13.98,4.85h30.36c5.04,0,9.13,4.09,9.13,9.13v28.62c0,5.04-4.09,9.13-9.13,9.13H13.98c-5.04,0-9.13-4.09-9.13-9.13V13.98c0-5.04,4.09-9.14,9.14-9.14Z" style="fill: #750513;"/>
        <path d="M14.24,5.1h30.36c5.04,0,9.13,4.09,9.13,9.13v28.62c0,5.04-4.09,9.13-9.13,9.13H14.24c-5.04,0-9.13-4.09-9.13-9.13V14.24c0-5.04,4.09-9.14,9.14-9.14Z" style="fill: #750513;"/>
        <path d="M14.49,5.36h30.36c5.04,0,9.13,4.09,9.13,9.13v28.62c0,5.04-4.09,9.13-9.13,9.13H14.49c-5.04,0-9.13-4.09-9.13-9.13V14.49c0-5.04,4.09-9.14,9.14-9.14Z" style="fill: #750513;"/>
      </g>
      <rect x="2" y="2" width="44.63" height="42.89" rx="7.14" ry="7.14" style="fill: #ea5369;"/>
      <path d="M28.24,23.45l7.61-7.61c.92-.92.92-2.41,0-3.33l-.59-.59c-.92-.92-2.41-.92-3.33,0l-7.61,7.61-7.61-7.61c-.92-.92-2.41-.92-3.33,0l-.59.59c-.92.92-.92,2.41,0,3.33l7.61,7.61-7.61,7.61c-.92.92-.92,2.41,0,3.33l.59.59c.92.92,2.41.92,3.33,0l7.61-7.61,7.61,7.61c.92.92,2.41.92,3.33,0l.59-.59c.92-.92.92-2.41,0-3.33l-7.61-7.61Z" style="fill: #fff;"/>
    </g>
  </g>
</svg>